<?xml version="1.0" encoding="UTF-8" standalone="no"?>
<!-- Created with Inkscape (http://www.inkscape.org/) -->

<svg
   version="1.1"
   id="svg994"
   width="485"
   height="328"
   viewBox="0 0 485 328"
   xmlns="http://www.w3.org/2000/svg"
   xmlns:svg="http://www.w3.org/2000/svg">
  <defs
     id="defs998" />
  <g
     id="g1000">
    <path
       style="fill:#3860a6;fill-opacity:1"
       d="m 168.31001,212.75 c 0.28975,-1.2375 9.42411,-40.6125 20.29857,-87.5 L 208.38032,40 h 19.30984 c 14.78785,0 19.30692,0.292726 19.29738,1.25 -0.007,0.6875 -3.08868,14.4125 -6.84851,30.5 -3.75983,16.0875 -6.68796,29.25 -6.50696,29.25 0.181,0 2.89981,-1.644467 6.0418,-3.654371 23.78535,-15.215307 47.82528,-16.291619 60.35171,-2.702056 8.68887,9.426317 11.42909,23.092887 8.58692,42.826467 -0.94821,6.58353 -2.93642,15.53361 -4.41825,19.88908 l -2.69425,7.91904 -12,5.12664 c -21.30523,9.10201 -42.22682,21.64523 -58.56609,35.11241 -11.40482,9.4001 -10.69891,9.14231 -16.70292,6.09984 C 211.39051,210.17767 208.86228,209 208.6127,209 c -0.24958,0 -0.7503,1.35 -1.1127,3 l -0.65891,3 h -19.52895 -19.52896 z m 66.21612,-24.83946 c 13.79835,-2.55077 22.52421,-10.6501 28.36696,-26.33019 5.3239,-14.28768 7.03505,-32.50768 3.59924,-38.32405 -4.48666,-7.5953 -15.04723,-8.2965 -27.88419,-1.85144 -11.99162,6.02063 -10.79968,3.72488 -18.09897,34.85965 C 216.92913,171.53499 214,184.45442 214,184.97437 c 0,1.00504 5.5201,2.77614 10.5,3.36888 1.65,0.1964 3.25485,0.42451 3.56634,0.50692 0.31149,0.0824 3.21839,-0.34043 6.45979,-0.93963 z"
       id="path1014" />
    <path
       style="fill:#3860a6;fill-opacity:1"
       d="M 70.339748,216.63309 C 53.521497,211.09841 46.85142,194.14015 53.391868,173.54415 59.198275,155.25966 72.341099,143.81439 94,138.18105 c 7.54526,-1.96247 25.9176,-4.57903 40.18801,-5.7235 7.49331,-0.60096 7.70425,-0.69053 8.32945,-3.53706 1.36406,-6.21053 -1.64871,-11.5108 -7.88644,-13.87436 -1.57794,-0.59791 -6.04823,-1.538 -9.93399,-2.0891 -9.56506,-1.35657 -20.08607,0.18273 -35.532919,5.19874 -6.784739,2.20318 -12.578546,3.76313 -12.875127,3.46655 -0.683577,-0.68358 5.642735,-28.819365 6.745295,-29.999181 0.450694,-0.482274 4.789856,-1.705612 9.642582,-2.71853 30.712539,-6.410681 63.885349,-4.641555 77.741929,4.146023 9.16422,5.811781 13.4995,15.980228 12.08445,28.344268 -0.3843,3.35781 -5.26814,25.6801 -10.85298,49.6051 l -10.15426,43.5 -19.36342,0.272 -19.36342,0.27199 0.69905,-3.77199 c 0.38447,-2.0746 0.94894,-5.04087 1.25436,-6.59171 l 0.55531,-2.81971 -7.21486,4.66727 C 106.99307,213.68897 96.595363,217.11998 84.5,217.60291 77.736989,217.87293 73.153331,217.559 70.339748,216.63309 Z M 121.58027,187.0351 c 3.56009,-1.75263 7.08973,-4.16501 7.84365,-5.36085 C 130.55981,179.87257 136,158.77845 136,156.1758 c 0,-1.0317 -14.57669,0.43318 -23.6141,2.37309 -9.47134,2.03305 -15.464208,5.9157 -18.358189,11.89387 -2.718649,5.61598 -3.160418,13.8531 -0.866013,16.14751 5.314376,5.31438 18.119962,5.51482 28.418572,0.44483 z"
       id="path1012" />
    <path
       style="fill:#b03831;fill-opacity:1"
       d="m 174,302.27853 c 0,-4.83854 5.48961,-20.66527 11.02261,-31.77853 8.41357,-16.89903 17.22077,-28.80546 32.94573,-44.53927 35.31701,-35.33689 82.74028,-59.15629 134.53166,-67.57156 16.61837,-2.70022 44.5348,-2.52123 59.02363,0.37844 12.61003,2.52366 25.39643,6.63585 33.69662,10.83705 l 5.72024,2.89534 -26.72024,0.0576 c -29.08442,0.0627 -44.95405,1.49516 -67.22025,6.06776 -42.91848,8.81377 -83.62655,27.96651 -118.315,55.66603 -18.79244,15.00619 -44.29317,41.87203 -58.28603,61.40618 -6.79996,9.49282 -6.39897,9.08042 -6.39897,6.581 z"
       id="path1010" />
    <path
       style="fill:#b03831;fill-opacity:1"
       d="m 218,307.27112 c 0,-3.64461 4.10379,-15.54286 8.19883,-23.77112 5.76779,-11.58937 11.56739,-19.88733 20.78652,-29.74095 39.17173,-41.86767 104.5161,-64.69109 154.01465,-53.79409 6.49475,1.4298 26.00077,8.47081 25.99985,9.38506 -8e-5,0.0825 -9.78758,0.18339 -21.75,0.22422 -24.74762,0.0845 -34.90568,1.18463 -54.74985,5.9296 -25.32531,6.05558 -46.32239,14.97124 -66.5,28.23684 -23.62554,15.53242 -46.4346,37.53047 -61.87516,59.6751 C 219.20707,307.6004 218,308.72861 218,307.27112 Z"
       id="path1008" />
    <path
       style="fill:#b03831;fill-opacity:1"
       d="m 260.40176,308.5 c 0.98028,-5.55974 6.81161,-17.64871 12.01638,-24.91125 11.62541,-16.22163 32.83357,-31.67829 54.82208,-39.95475 23.99596,-9.03205 51.63444,-9.95129 69.25978,-2.30353 l 5,2.16953 -17.5,0.6441 c -27.11532,0.998 -46.80506,5.84584 -66.93405,16.47993 -19.46849,10.28515 -37.76183,25.89566 -51.17841,43.67277 -6.14764,8.14568 -6.1861,8.17515 -5.48578,4.2032 z"
       id="path1004" />
  </g>
</svg>
