<?xml version="1.0" encoding="UTF-8" standalone="no"?>
<!-- Created with Inkscape (http://www.inkscape.org/) -->

<svg
   version="1.1"
   id="svg4559"
   width="200"
   height="200"
   viewBox="0 0 200 200"
   sodipodi:docname="amiko.png"
   xmlns:inkscape="http://www.inkscape.org/namespaces/inkscape"
   xmlns:sodipodi="http://sodipodi.sourceforge.net/DTD/sodipodi-0.dtd"
   xmlns="http://www.w3.org/2000/svg"
   xmlns:svg="http://www.w3.org/2000/svg">
  <defs
     id="defs4563" />
  <sodipodi:namedview
     id="namedview4561"
     pagecolor="#505050"
     bordercolor="#ffffff"
     borderopacity="1"
     inkscape:showpageshadow="0"
     inkscape:pageopacity="0"
     inkscape:pagecheckerboard="1"
     inkscape:deskcolor="#505050"
     showgrid="false" />
  <g
     inkscape:groupmode="layer"
     inkscape:label="Image"
     id="g4565">
    <path
       style="fill:#1a1a1a"
       d="M 28.54196,122.75 C 29.232532,88.572314 29.883575,83.750775 35.139474,73.889698 38.99004,66.665297 47.297879,58.666677 54.247356,55.493015 65.972955,50.13821 67.632649,50 120.2101,50 H 169 l -0.006,28.25 c -0.008,36.85472 -1.39368,45.36039 -9.26706,56.86558 -5.32545,7.78195 -12.72842,12.98995 -23.22715,16.34033 0,0 -5.4342,0.80591 -8.17059,1.01766 -16.66602,1.28963 -50.124138,1.53133 -50.124138,1.53133 L 27.910544,154 Z m 97.964,5.07726 c 4.52313,-0.90838 6.66654,-1.99976 9.50812,-4.84134 C 141.1012,117.8988 142,113.32296 142,92.51115 V 74.90794 l -36.75,0.29603 c 0,0 -24.690055,-0.816582 -36.75,1.381675 -1.449676,0.264244 -4.192058,1.403256 -4.192058,1.403256 -2.723927,1.617245 -5.000338,4.068765 -6.5,7 -2.139263,4.181399 -2.3317,5.954556 -2.633003,24.261099 L 54.849878,129 h 32.908279 c 21.184183,0 34.988703,-0.41781 38.747803,-1.17274 z"
       id="path4686" />
    <path
       style="fill:#ac272d;fill-opacity:1"
       d="m 70.331324,118.42103 c -0.8493,-2.21324 0.5156,-23.68347 1.726403,-27.156782 0.549646,-1.576714 2.449012,-3.743689 4.220814,-4.8155 2.90743,-1.758783 5.547897,-1.98097 27.087149,-2.279295 l 23.8657,-0.330547 -0.3854,14.03361 c -0.59599,21.701844 -0.93801,21.919604 -34.627375,22.047004 -18.515617,0.07 -21.360129,-0.12473 -21.887291,-1.49849 z"
       id="path5053" />
  </g>
</svg>
