<?xml version="1.0" encoding="UTF-8" standalone="no"?>
<!-- Created with Inkscape (http://www.inkscape.org/) -->

<svg
   version="1.1"
   id="svg2138"
   width="189"
   height="113"
   viewBox="0 0 189 113"
   xmlns="http://www.w3.org/2000/svg"
   xmlns:svg="http://www.w3.org/2000/svg">
  <defs
     id="defs2142" />
  <g
     id="g2144">
    <path
       style="fill:#bb0019;fill-opacity:1"
       d="M 14.438008,94.11988 C 33.843539,67.710619 53.410625,41.166883 70.859429,17.5 l 0.734133,1.140347 C 83.750886,34.69554 93.00169,44.857942 106.18971,59.286485 l -5.14656,5.106758 -5.146555,5.106757 -5.447157,-6 -5.505731,-5.980475 -0.274952,-0.252393 -0.274952,-0.271918 -0.321072,-0.299705 -0.223447,-0.260656 -5.702136,-6.355434 -5.702137,-6.355434 -1.641156,-1.583346 -2.303851,2.94506 -4,5.613956 c -2.2,3.087676 -4.456472,6.105893 -5.014382,6.70715 C 58.927707,58.008062 56.906689,60.525 54.994465,63 53.082242,65.475 51.163827,67.95 50.731322,68.5 50.298816,69.05 46.313319,74.225 41.87466,80 37.436001,85.775 32.642463,91.9625 31.222354,93.75 L 28.640335,97 H 20.794488 12.94864 Z"
       id="path2730" />
    <path
       style="fill:#999999"
       d="M 76,96.368762 V 94.737524 L 88.690715,81.118762 C 95.670608,73.628443 103.38903,65.39008 105.84276,62.811289 l 4.46132,-4.68871 -5.25098,-6.06129 L 99.525989,46.165673 99.062756,45.75149 98.627135,45.337307 98.35091,45.061287 97.936623,44.730044 86.968311,33.010151 76,21.290258 V 19.645129 18 l 5.25,-0.09274 c 2.8875,-0.05101 7.275,-0.03178 9.75,0.04272 l 4.5,0.135461 6.30212,6.707277 c 3.46616,3.689002 9.04418,9.744776 12.39559,13.457276 3.35141,3.7125 6.61633,6.75 7.25538,6.75 0.63904,0 7.02878,-6.1875 14.19941,-13.75 l 13.03751,-13.75 9.655,0.31862 9.65499,0.31862 v 1.517934 1.517934 l -6.13492,6.388879 c -3.3742,3.513884 -6.46422,6.473787 -7.17488,7.139105 -0.75388,0.665175 -1.39037,1.413707 -2.14204,2.153067 -0.676,0.664943 -1.25066,1.3448 -1.85796,2.012437 -1.59095,1.74901 -5.75189,6.771335 -9.63323,10.606584 L 134,56.446361 l -1.48388,1.495773 1.48388,1.65197 3.79216,3.702948 c 0.50096,0.558587 1.016,1.124267 1.56781,1.659119 1.11391,1.079663 2.18525,2.017033 3.19062,3.04957 4.88602,5.134815 9.06686,9.497859 12.94941,13.777677 6.6,7.273954 12,13.785893 12,14.470976 V 97.5 l -9.59416,0.284332 -9.59415,0.284332 -11.75663,-12.531059 C 131.61585,80.403643 126.48316,74.76901 121.85309,69.665673 L 108.43356,83.75 94.820748,98 H 85.410374 76 Z"
       id="path2267" />
  </g>
</svg>
