<?xml version="1.0" encoding="UTF-8" standalone="no"?>
<!-- Created with Inkscape (http://www.inkscape.org/) -->

<svg
   version="1.1"
   id="svg3275"
   width="446"
   height="200"
   viewBox="0 0 446 200"
   xmlns="http://www.w3.org/2000/svg"
   xmlns:svg="http://www.w3.org/2000/svg">
  <defs
     id="defs3279" />
  <g
     id="g3281">
    <path
       style="fill:#b3b3b3"
       d="m 103.16014,166.79377 c 7.78613,-12.81157 18.89237,-31.11297 24.68053,-40.66978 L 138.36461,108.74798 113.68364,59.373992 89.002658,10 h 34.762002 34.762 L 173.5,40 c 8.23534,16.5 15.27973,30 15.65419,30 0.37447,0 8.86999,-13.5 18.87894,-30 L 226.2312,10 h 6.99941 6.99941 l -1.47076,2.25 c -5.6376,8.624494 -42.11446,69.3923 -42.47002,70.751964 -0.24404,0.933187 11.29105,25.162806 25.63353,53.843596 C 236.26525,165.52635 248,189.21915 248,189.49623 248,189.7733 232.47629,190 213.50286,190 h -34.49714 l -17.07145,-34.13141 c -9.49737,-18.98836 -17.44651,-33.74036 -17.91682,-33.25 -0.46496,0.48477 -9.85016,15.73141 -20.85599,33.88141 l -20.0106,33 -7.073661,0.29377 -7.073662,0.29378 z m 256.8487,-14.89236 c -10.83302,-2.12132 -18.56185,-9.11611 -21.59273,-19.542 -0.88063,-3.02924 -1.39102,-5.71783 -1.13421,-5.97465 0.25682,-0.25681 3.73649,-0.56094 7.7326,-0.67585 7.25301,-0.20855 7.2676,-0.20362 8.37558,2.82678 1.50612,4.11933 3.56194,6.76831 6.97055,8.98173 3.7469,2.43308 13.8377,2.50932 18.37244,0.1388 6.39787,-3.34446 7.92093,-11.68723 2.75193,-15.07409 -1.31361,-0.86071 -7.46089,-2.94416 -13.66062,-4.62988 -19.86809,-5.40219 -26.81246,-11.11812 -27.57504,-22.697068 -0.98526,-14.95999 12.25504,-24.425941 32.04308,-22.908718 8.75818,0.671523 14.82675,2.977057 19.1007,7.256617 3.47393,3.478485 6.5547,9.863237 6.58492,13.646919 L 398,96 h -7.7932 -7.79321 l -0.95679,-3.228518 c -2.06153,-6.956222 -13.33186,-10.129305 -21.38191,-6.019928 -4.29526,2.192637 -5.55135,4.213923 -4.70766,7.575481 0.83023,3.3079 3.8447,4.871094 15.7094,8.146325 17.90382,4.94232 23.21781,8.09961 27.31142,16.22698 2.06839,4.10655 2.09954,14.19664 0.0589,19.08178 -4.90447,11.74095 -20.78829,17.57547 -38.43811,14.11929 z M 37.131041,112.79685 c 8.181395,-21.011736 15.254031,-38.581922 15.716968,-39.044859 0.462938,-0.462938 4.332355,-0.709019 8.598705,-0.546848 L 69.203713,73.5 84.601857,111.98726 C 93.070835,133.15525 100,150.59275 100,150.73726 100,150.88176 96.208911,151 91.575358,151 h -8.424642 l -3.217201,-8.52409 -3.217202,-8.52409 -15.971962,0.27409 L 44.772389,134.5 41.793318,142.75 38.814246,151 H 30.535012 22.255778 Z M 71,120.17283 c 0,-1.0293 -8.759581,-24.920807 -9.853911,-26.876267 -0.533608,-0.953504 -2.390118,2.984373 -5.581868,11.839797 -2.630287,7.29766 -5.006408,13.85239 -5.280269,14.56606 C 49.895156,120.7156 52.110817,121 60.393011,121 66.226855,121 71,120.62777 71,120.17283 Z m 174.00955,30.11761 C 245.01481,149.8557 251.69654,132.4 259.85784,111.5 l 14.83873,-38 h 8.34639 8.34639 l 14.81501,37 c 8.14826,20.35 15.06598,37.7875 15.37272,38.75 0.50097,1.57199 -0.2963,1.75 -7.83782,1.75 h -8.39552 l -3.22875,-8.5 -3.22876,-8.5 h -15.85024 -15.85024 l -2.97723,8.25 -2.97723,8.25 -8.11565,0.29044 c -4.4636,0.15975 -8.11134,-0.0652 -8.10609,-0.5 z M 293,119.87526 c 0,-0.61861 -1.76387,-5.90611 -3.9197,-11.75 -6.99673,-18.966243 -5.57089,-18.547267 -11.17869,-3.28482 -2.69589,7.33724 -4.90161,13.97474 -4.90161,14.75 0,1.11878 2.06294,1.40956 10,1.40956 6.73939,0 10,-0.36673 10,-1.12474 z M 406.32548,83.540868 c -5.93715,-2.582528 -8.50581,-9.251254 -5.77777,-15.000164 2.9659,-6.250177 10.04538,-8.305858 16.03198,-4.655236 8.13884,4.963057 6.4732,16.498484 -2.89479,20.04792 -3.45202,1.307936 -3.44987,1.308051 -7.35942,-0.39252 z m 8.69454,-2.051218 c 5.83152,-3.015599 6.79373,-9.829748 2.0569,-14.566573 -7.74878,-7.748784 -19.98755,1.393438 -14.68141,10.966852 1.47344,2.658414 5.15251,5.020456 7.90415,5.074636 0.98981,0.01949 3.11397,-0.644223 4.72036,-1.474915 z M 406.116,73.25 c -0.12687,-6.835894 0.60528,-7.447066 6.3189,-5.274751 2.88861,1.098247 3.31329,3.158916 1.03987,5.045689 -1.36139,1.129854 -1.34414,1.46592 0.16054,3.128575 0.92717,1.024512 1.36861,2.179904 0.98097,2.567538 -0.38763,0.387634 -1.77629,-0.627625 -3.08589,-2.256131 -2.48706,-3.092669 -3.89664,-2.788628 -4.81732,1.03908 -0.26459,1.1 -0.53327,-0.8125 -0.59707,-4.25 z M 412.5,71 c 0,-0.892989 -1.11285,-1.628048 -2.75,-1.816422 -2.65933,-0.30599 -3.78257,1.450521 -2.04115,3.191938 C 408.93042,73.597082 412.5,72.572272 412.5,71 Z"
       id="path3402" />
  </g>
</svg>
