<?xml version="1.0" encoding="UTF-8" standalone="no"?>
<svg
   width="22.476"
   height="9.9820004"
   viewBox="0 0 22.475999 9.9820004"
   version="1.1"
   xml:space="preserve"
   style="clip-rule:evenodd;fill-rule:evenodd;stroke-linejoin:round;stroke-miterlimit:1.41421"
   id="svg8806"
   xmlns="http://www.w3.org/2000/svg"
   xmlns:svg="http://www.w3.org/2000/svg"><path
     d="m 17.685118,6.5294463 c 0.621,0 0.993,-0.184 1.116,-0.552 0.032,-0.152 0.049,-0.353 0.049,-0.603 v -3.548 h 1.593 v 3.808 c 0,0.694 -0.212,1.235 -0.637,1.623 -0.221,0.208 -0.507,0.352 -0.858,0.432 -0.352,0.08 -0.842,0.119 -1.472,0.119 H 4.7251179 c -0.801,0 -1.454,-0.187 -1.9609999,-0.561 -0.54,-0.403 -0.805,-0.94 -0.797,-1.613 0,-0.624 0.247,-1.146 0.742,-1.566 0.4939999,-0.42 1.1129999,-0.629 1.8569999,-0.629 l 10.1890001,-0.021 c 0.482,0.028 0.723,0.243 0.723,0.645 0,0.43 -0.253,0.645 -0.76,0.645 -0.017,0 -0.037,0 -0.061,0 -0.017,-0.007 -0.033,-0.01 -0.05,-0.01 l -9.8080001,-0.011 c -0.907,0 -1.349,0.305 -1.324,0.916 0.016,0.617 0.503,0.926 1.459,0.926 z"
     style="fill:url(#_Linear1);fill-rule:nonzero"
     id="path8732" /><defs
     id="defs8804"><linearGradient
       id="_Linear1"
       x1="0"
       y1="0"
       x2="1"
       y2="0"
       gradientUnits="userSpaceOnUse"
       gradientTransform="matrix(0,-20,20,0,137.75212,14.996446)"><stop
         offset="0%"
         style="stop-color:#fff;stop-opacity:1"
         id="stop8748" /><stop
         offset="51%"
         style="stop-color:#cbcbcb;stop-opacity:1"
         id="stop8750" /><stop
         offset="100%"
         style="stop-color:#282828;stop-opacity:1"
         id="stop8752" /></linearGradient></defs></svg>
