<?xml version="1.0" encoding="UTF-8" standalone="no"?>
<!-- Created with Inkscape (http://www.inkscape.org/) -->

<svg
   version="1.1"
   id="svg3377"
   width="150"
   height="150"
   viewBox="0 0 150 150"
   xmlns="http://www.w3.org/2000/svg"
   xmlns:svg="http://www.w3.org/2000/svg">
  <defs
     id="defs3381" />
  <g
     id="g3383">
    <path
       style="fill:#cccccc"
       d="M 17.59322,112.75 C 17.993618,111.5125 22.484889,96.643677 27.573823,79.708172 37.463175,46.797314 38.635685,44.25569 46.256273,39.210646 L 50.350731,36.5 88.558612,36.216319 126.76649,35.932637 129.84924,38.5266 c 3.29058,2.768837 4.82148,7.66492 3.74177,11.966827 L 132.9619,53 H 95.523293 58.08469 l -2.042345,6.857813 C 54.919055,63.62961 54,67.00461 54,67.357813 54,67.711016 68.858573,68 87.019052,68 H 120.0381 l -0.62828,2.503281 c -0.34556,1.376805 -1.42828,5.089305 -2.40605,8.25 L 115.226,84.5 81.806432,84.763068 48.386867,85.026136 43.996172,100.01307 39.605476,115 H 28.23535 c -11.340277,0 -11.368214,-0.006 -10.64213,-2.25 z"
       id="path3504" />
  </g>
</svg>
