<?xml version="1.0" encoding="UTF-8" standalone="no"?>
<!-- Created with Inkscape (http://www.inkscape.org/) -->

<svg
   version="1.1"
   id="svg235"
   width="53"
   height="34"
   viewBox="0 0 53 34"
   xmlns="http://www.w3.org/2000/svg"
   xmlns:svg="http://www.w3.org/2000/svg">
  <defs
     id="defs239" />
  <g
     id="g241">
    <path
       style="fill:#0087fe;fill-opacity:1"
       d="M 18.5,23 12.562607,17 18.5,11 24.437393,5 H 25.218697 26 V 6.791792 8.5835841 L 21.511076,12.98913 17.022151,17.394676 19.18539,19.697338 21.348628,22 H 22.174314 23 V 20 18 H 24.5 26 V 23.5 29 H 25.218697 24.437393 Z M 27,23.5 V 18 h 1.5 1.5 v 2.654988 2.654987 l 1.996469,-1.806779 1.996468,-1.80678 L 32.874024,18.348208 31.755111,17 32.855188,15.674488 33.955266,14.348975 30.477633,10.978321 27,7.6076664 V 6.3038332 5 h 0.590508 0.590507 l 5.422149,4.6322866 5.422149,4.6322864 -1.135101,1.367714 L 36.755111,17 l 1.148522,1.383885 1.148522,1.383884 -5.134231,4.616116 L 28.783693,29 H 27.891846 27 Z"
       id="path420" />
  </g>
</svg>
