<?xml version="1.0" encoding="UTF-8" standalone="no"?>
<!-- Created with Inkscape (http://www.inkscape.org/) -->

<svg
   version="1.1"
   id="svg2"
   width="110.2"
   height="100.88"
   viewBox="0 0 110.2 100.88"
   xmlns="http://www.w3.org/2000/svg"
   xmlns:svg="http://www.w3.org/2000/svg">
  <defs
     id="defs6" />
  <g
     id="g8"
     transform="matrix(9,0,0,9,4.3541022,1.3894183)">
    <path
       style="display:inline;fill:#f8180c;fill-opacity:1;stroke-width:0.32"
       d="M 1.9523533,10.227285 C 0.39654269,9.5214038 0.36152842,8.9544598 1.9134447,9.5972848 2.946084,10.025018 5.9122822,9.8979926 6.3997123,9.4051638 6.5641478,9.2389069 6.1567894,9.089759 5.4227814,9.0474758 3.9352173,8.961783 2.0601787,8.0639347 1.0029379,6.9310666 -0.14636957,5.6995459 -0.29294564,3.5092144 0.67843523,2.0819229 2.0145982,0.11864128 4.6802134,-0.57481456 6.7588784,0.50010474 7.5485635,0.90846688 7.8161231,0.92539243 8.2173914,0.59236931 8.3478241,0.4841198 8.4823961,0.34052093 8.6127916,0.34399794 8.8975652,0.35159145 9.2323825,0.74582772 9.9544045,1.5198733 11.063717,2.7091149 11.2,3.0333707 11.2,4.4834998 11.2,9.2663206 6.4022563,12.246236 1.9523533,10.227285 Z M 7.5435491,7.5237334 C 8.8335266,6.5398194 9.2947386,5.1444967 8.6083466,3.8171611 7.6687072,2.0000994 6.0548058,1.7639934 4.4764717,3.092074 3.5372451,3.8823811 3.106595,4.0319979 3.2852828,5.3935134 c 0.055771,0.4249482 0.188475,0.9060368 0.3636718,1.2931026 0.087851,0.1940915 0.2620578,0.3494797 0.3385815,0.493107 0.060807,0.1141292 0.033331,0.2256696 0.042031,0.3087209 0.018404,0.1756825 -0.2746445,0.4969212 -0.2281337,0.7072135 0.039995,0.1808299 0.4080145,0.2556842 0.5518865,0.3620374 0.2262548,0.1672523 0.7336315,0.1078726 1.0538108,0.096142 0.6577277,-0.024098 1.4769392,-0.627094 2.1364184,-1.1301034 z M 5.2173568,1.3296688 C 6.5240493,1.0366021 6.5223092,0.55432897 5.4896827,0.52097708 5.1138994,0.50883999 4.6189035,0.47673236 4.2598754,0.6223769 3.9595756,0.7441975 3.6701028,0.86656673 3.4388887,1.021531 3.0045002,1.3126668 2.458873,1.8226899 2.1159057,2.2460899 1.8885269,2.5267936 1.7640395,3.0364912 1.6980721,3.3797513 1.6370571,3.6972411 1.7626265,3.9053359 1.8277568,3.9308105 1.9638679,3.9840481 2.3627578,3.0431766 2.8973567,2.5437864 3.4349028,2.0416432 4.4789027,1.4952902 5.2173568,1.3296688 Z"
       id="path303" />
  </g>
</svg>
