<?xml version="1.0" encoding="UTF-8" standalone="no"?>
<!-- Created with Inkscape (http://www.inkscape.org/) -->

<svg
   version="1.1"
   id="svg3788"
   width="452"
   height="100"
   viewBox="0 0 452 100"
   xmlns="http://www.w3.org/2000/svg"
   xmlns:svg="http://www.w3.org/2000/svg">
  <defs
     id="defs3792" />
  <g
     id="g3794">
    <path
       style="fill:#cccccc"
       d="m 8,83 v -5 h 5 5 v 5 5 H 13 8 Z m 18,0 v -5 h 5 5 v 5 5 h -5 -5 z m 55.654988,2.171259 C 80.240679,83.608466 80,80.65502 80,64.862389 80,50.480458 80.314767,45.95179 81.419389,44.44113 82.745141,42.628056 84.201793,42.5 103.5,42.5 c 19.29821,0 20.75486,0.128056 22.08061,1.94113 2.16281,2.957819 2.04618,37.218992 -0.13731,40.336364 C 123.92162,86.949985 123.43003,87 103.59828,87 85.213292,87 83.154715,86.828439 81.654988,85.171259 Z M 119,64.5 V 50 H 103.5 88 V 64.5 79 h 15.5 15.5 z m 17,0 V 42 h 18.36514 c 17.06532,0 18.55163,0.14669 21,2.07258 C 177.87068,46.043439 178,46.596931 178,55.350074 178,69.237102 178.31365,69 159.9433,69 H 145 v 9 9 h -4.5 -4.5 z m 33.81365,-7.966875 C 170.25138,49.601339 169.13343,49 155.80887,49 H 145 v 6.530779 6.530779 L 157.25,61.780779 169.5,61.5 Z M 203,68.5 V 50 h -9 -9 v -4 -4 h 22 22 v 4 4 h -9 -9 V 68.5 87 h -4 -4 z m 33,-4 V 42 h 4 4 V 64.5 87 h -4 -4 z m 19.44113,21.08248 c -1.77981,-1.299712 -1.96703,-2.960539 -2.2528,-19.983785 0,0 -0.27654,-12.863283 1.27319,-19.028513 0.18326,-0.729074 0.93136,-2.053966 0.93136,-2.053966 C 257.41177,41.659763 258.17485,42 273.52029,42 c 19.65163,0 21.43549,0.727193 21.4644,8.75 L 295,55 h -4 c -3.6,0 -4,-0.25 -4,-2.5 V 50 H 274 261 V 64.5 79 h 13 13 v -3.5 c 0,-3.416667 0.0952,-3.5 4,-3.5 h 4 v 5.277494 c 0,3.158077 -0.62516,6.170042 -1.5567,7.5 C 291.93693,86.928131 291.32871,87 274.63443,87 261.3249,87 256.93865,86.676054 255.44113,85.58248 Z m 48.96386,-0.685191 c -1.71734,-1.895585 -1.93688,-4.111933 -2.2287,-22.5 L 301.85258,42 H 306.42629 311 V 60.5 79 H 324.5 338 V 60.5 42 h 4.05613 4.05613 l -0.30613,21.082273 c -0.28343,19.519329 -0.45004,21.187377 -2.24726,22.5 C 342.05716,86.679068 337.62141,87 323.96386,87 307.29317,87 306.20388,86.882894 304.40499,84.897289 Z M 353,64.5 V 42 h 3.35718 c 3.20753,0 3.77109,0.624047 12.64282,14 5.1071,7.7 9.34695,14 9.42187,14 0.0749,0 4.17316,-6.276142 9.10718,-13.946982 8.87769,-13.80199 9.00993,-13.947533 12.72095,-14 L 404,42 V 64.5 87 h -4 -4 V 70.819779 54.639558 l -8.75,13.674109 c -4.8125,7.520759 -9.04118,13.676859 -9.39708,13.680221 C 377.01959,82.001759 361,57.27157 361,55.977247 c 0,-0.537486 -0.3375,-0.97787 -0.75,-0.978632 -0.4125,-7.62e-4 -0.61601,7.199238 -0.45225,16 L 360.09549,87 H 356.54775 353 Z M 8,65 v -5 h 5 5 v 5 5 H 13 8 Z m 18,0 v -5 h 5 5 v 5 5 h -5 -5 z m 18,0 v -5 h 5 5 v 5 5 H 49 44 Z M 8,47 v -5 h 5 5 v 5 5 H 13 8 Z m 18,0 v -5 h 5 5 v 5 5 h -5 -5 z m 18,0 v -5 h 5 5 v 5 5 h -5 -5 z m 18,0 v -5 h 5 5 v 5 5 H 67 62 Z M 421,36 c 0,-3.777778 -0.36667,-5 -1.5,-5 -0.825,0 -1.5,-0.45 -1.5,-1 0,-0.55 2.25,-1 5,-1 2.75,0 5,0.45 5,1 0,0.55 -0.9,1 -2,1 -1.73333,0 -2,0.666667 -2,5 0,3.777778 -0.36667,5 -1.5,5 -1.13333,0 -1.5,-1.222222 -1.5,-5 z m 9,-1 c 0,-5.383091 0.21088,-6 2.05103,-6 1.39881,0 2.51606,1.112979 3.51342,3.5 0.80431,1.925 1.67531,3.5 1.93555,3.5 0.26024,0 1.13124,-1.575 1.93555,-3.5 0.99736,-2.387021 2.11461,-3.5 3.51342,-3.5 1.84015,0 2.05103,0.616909 2.05103,6 0,6.844096 -1.70031,8.168318 -2.24701,1.75 l -0.36201,-4.25 -1.86329,4.291009 c -2.17979,5.019893 -4.33567,5.212556 -5.93916,0.530761 C 432.91217,32.427216 432,32.255096 432,36.833333 432,39.125 431.55,41 431,41 c -0.55556,0 -1,-2.666667 -1,-6 z M 8,29 v -5 h 5 5 v 5 5 H 13 8 Z m 18,0 v -5 h 5 5 v 5 5 h -5 -5 z m 18,0 v -5 h 5 5 v 5 5 h -5 -5 z m 18,0 v -5 h 5 5 v 5 5 h -5 -5 z m 17,0 v -5 h 5 5 v 5 5 H 84 79 Z M 8,11 V 6 h 5 5 v 5 5 H 13 8 Z m 18,0 V 6 h 5 5 v 5 5 h -5 -5 z m 18,0 V 6 h 5 5 v 5 5 h -5 -5 z m 18,0 V 6 h 5 5 v 5 5 H 67 62 Z M 79.195209,11.25 79.5,6.5 84.25,6.1952088 89,5.8904176 V 10.945209 16 H 83.945209 78.890418 Z M 97,11 V 6 h 5 5 v 5 5 h -5 -5 z m 18,0 V 6 h 5 5 v 5 5 h -5 -5 z m 18,0 V 6 h 5 5 v 5 5 h -5 -5 z m 18,-0.05479 V 5.8904186 L 155.75,6.1952098 160.5,6.5 l 0.30479,4.75 0.30479,4.75 H 156.05479 151 Z M 168.19521,11.25 168.5,6.5 173.25,6.1952088 178,5.8904176 V 10.945209 16 h -5.05479 -5.05479 z M 186,11 V 6 h 5 5 v 5 5 h -5 -5 z m 18,0 V 6 h 5 5 v 5 5 h -5 -5 z m 18,0 V 6 h 5 5 v 5 5 h -5 -5 z m 18,-0.05479 V 5.8904186 L 244.75,6.1952098 249.5,6.5 l 0.30479,4.75 0.30479,4.75 H 245.05479 240 Z M 257,11 V 6 h 5 5 v 5 5 h -5 -5 z m 18,0 V 6 h 5 5 v 5 5 h -5 -5 z m 18,0 V 6 h 5 5 v 5 5 h -5 -5 z m 18,0 V 6 h 5 5 v 5 5 h -5 -5 z m 18,0 V 6 h 4.5 4.5 v 5 5 h -4.5 -4.5 z m 17,0 V 6 h 5 5 v 5 5 h -5 -5 z m 18,0 V 6 h 5 5 v 5 5 h -5 -5 z m 18,0 V 6 h 5 5 v 5 5 h -5 -5 z m 18,0 V 6 h 5 5 v 5 5 h -5 -5 z m 18,0 V 6 h 5 5 v 5 5 h -5 -5 z m 17,0 V 6 h 5 5 v 5 5 h -5 -5 z"
       id="path3915" />
  </g>
</svg>
