<?xml version="1.0" encoding="UTF-8" standalone="no"?>
<!-- Created with Inkscape (http://www.inkscape.org/) -->

<svg
   version="1.1"
   id="svg2"
   width="166"
   height="106"
   viewBox="0 0 166 106"
   sodipodi:docname="zgemmalogo_.png"
   xmlns:inkscape="http://www.inkscape.org/namespaces/inkscape"
   xmlns:sodipodi="http://sodipodi.sourceforge.net/DTD/sodipodi-0.dtd"
   xmlns="http://www.w3.org/2000/svg"
   xmlns:svg="http://www.w3.org/2000/svg">
  <defs
     id="defs6" />
  <sodipodi:namedview
     id="namedview4"
     pagecolor="#505050"
     bordercolor="#ffffff"
     borderopacity="1"
     inkscape:showpageshadow="0"
     inkscape:pageopacity="0"
     inkscape:pagecheckerboard="1"
     inkscape:deskcolor="#505050"
     showgrid="false" />
  <g
     inkscape:groupmode="layer"
     inkscape:label="Image"
     id="g8">
    <path
       style="fill:#f50b0a;fill-opacity:1"
       d="m 75.25,52.968838 c -3.454647,-2.420101 -2.22936,-8.983005 2.035184,-8.953525 2.666924,0.01844 4.159662,0.713624 4.977112,2.866938 0.133656,0.352075 0.203997,0.801166 0.238516,1.264961 0.07263,0.975856 0.117511,1.661468 -0.06546,2.277719 -0.213042,0.717534 -0.570889,1.309097 -1.480756,2.059272 -1.151792,0.94964 -1.736814,1.036972 -2.651157,1.128028 -0.613056,0.06105 -1.202331,0.134309 -2.205264,-0.204381 C 75.833892,53.318602 75.640207,53.242191 75.25,52.968838 Z"
       id="path303"
       sodipodi:nodetypes="sssssssss" />
    <path
       style="fill:#008be3;fill-opacity:1"
       d="M 36.924226,101.14408 C 35.160532,101.10168 35.835438,97 37.986213,97 41.832812,97 45.909585,89.240822 62.916718,49.550663 75.481173,20.22854 80.736644,9.0000554 81.896287,9.0002001 83.030415,9.0003416 86.253831,15.368982 92.904805,30.7502 98.077448,42.71259 102.50528,52.725 102.74444,53 c 0.23916,0.275 1.4239,-0.7375 2.63276,-2.25 2.09519,-2.621455 2.59349,-2.747037 10.66036,-2.686614 5.58181,0.04181 7.78163,0.351753 6.46244,0.910521 -1.1,0.465924 -5.00003,3.924901 -8.66674,7.686614 L 107.16652,63.5 113.07509,77 c 6.78568,15.504015 10.88456,20.296448 12.94336,20.69048 2.06194,0.394635 2.39768,1.189546 2.3126,1.934853 -0.0462,0.404537 -0.0221,0.516227 -0.82396,0.983837 -0.25337,0.14775 -0.34939,0.1259 -0.41254,0.14727 -0.081,0.0274 -0.16241,0.0429 -0.48639,0.10432 -0.718,0.13614 -0.51377,0.0666 -0.9229,0.14285 -2.42806,0.45277 -6.17455,0.27245 -12.13676,0.27245 -5.09089,0 -5.79194,0.0476 -8.32986,0.0645 -1.8965,0.0126 -2.3049,0.0359 -2.76278,0.0389 -0.42977,0.003 -0.60482,0.003 -0.92845,-0.0286 -0.32497,-0.0316 -0.79976,-0.0952 -1.832705,-0.32995 -0.9961,-0.22632 -0.826443,-1.416122 -0.906816,-1.657243 -0.208326,-0.624984 0.491672,-1.614074 2.166671,-2.19798 4.43244,-1.545157 4.10131,-4.815459 -1.879617,-18.563759 -2.13081,-4.898072 -2.13081,-4.898072 -4.602877,-2.575686 -3.080102,2.893606 -3.098818,3.784969 -0.103389,4.923829 C 97.746722,82.234402 101,86.772642 101,90.2006 c 0,7.346345 -4.67201,10.28107 -18.762332,10.92008 -2.439095,0.11062 -4.554171,0.0465 -6.388709,0.0482 -1.847612,0.002 -2.221992,0.0183 -3.348701,-0.023 -0.19574,-0.007 -1.506243,0.0238 -1.658699,0.0191 -0.431028,-0.0131 -0.857631,-0.004 -1.113739,-0.10527 C 68.573041,100.60303 68.950952,99.606116 71,99.067267 73.5,98.409828 73.5,98.40983 73.5,80.984448 73.5,63.559066 73.784249,62.505644 70.984375,62.40365 69.216943,62.339266 69.106954,60.961933 70,60.937907 c 7.265414,-0.195467 11.968773,-0.107086 14.090746,-0.0031 1.186438,0.05812 1.110206,0.378612 1.113684,0.721301 0.0038,0.375762 -0.126228,0.790675 -1.54818,0.824396 C 80.853602,62.54693 81,63.348362 81,71.108408 81,77.256235 81.313545,79 82.418983,79 84.127079,79 92.978628,68.125611 93.000739,66 93.018804,64.263333 78.749155,30.051485 78,30.035345 77.535426,30.025335 68.712333,50.759953 58.265575,76.412024 51.31525,93.478583 50.79295,96.766099 58.560711,96.574513 c 3.090183,-0.07622 4.391569,2.593802 3.940261,3.732147 -0.101733,0.2566 -0.161858,0.50715 -0.383954,0.65261 -0.212939,0.13946 -0.300298,0.32767 -2.416834,0.39994 -5.984353,0.20435 -18.161199,-0.10419 -22.775958,-0.21513 z M 91.365141,95.92742 C 93.397502,94.328765 94,92.973376 94,90 94,85.073247 90.49079,82 84.865141,82 H 81 v 8 8 h 3.865141 c 2.396064,0 4.866609,-0.787754 6.5,-2.07258 z"
       id="path299"
       sodipodi:nodetypes="sssssssssscssssssssssssssssssssssssssssssssssssssssssscccss" />
  </g>
</svg>
