<?xml version="1.0" encoding="UTF-8" standalone="no"?><!DOCTYPE svg PUBLIC "-//W3C//DTD SVG 1.1//EN" "http://www.w3.org/Graphics/SVG/1.1/DTD/svg11.dtd"><svg width="100%" height="100%" viewBox="0 0 170 20" version="1.1" xmlns="http://www.w3.org/2000/svg" xmlns:xlink="http://www.w3.org/1999/xlink" xml:space="preserve" style="fill-rule:evenodd;clip-rule:evenodd;stroke-linejoin:round;stroke-miterlimit:1.41421;"><path d="M22.944,11.533c0.621,0 0.993,-0.184 1.116,-0.552c0.032,-0.152 0.049,-0.353 0.049,-0.603l0,-3.548l1.593,0l0,3.808c0,0.694 -0.212,1.235 -0.637,1.623c-0.221,0.208 -0.507,0.352 -0.858,0.432c-0.352,0.08 -0.842,0.119 -1.472,0.119l-12.751,0c-0.801,0 -1.454,-0.187 -1.961,-0.561c-0.54,-0.403 -0.805,-0.94 -0.797,-1.613c0,-0.624 0.247,-1.146 0.742,-1.566c0.494,-0.42 1.113,-0.629 1.857,-0.629l10.189,-0.021c0.482,0.028 0.723,0.243 0.723,0.645c0,0.43 -0.253,0.645 -0.76,0.645c-0.017,0 -0.037,0 -0.061,0c-0.017,-0.007 -0.033,-0.01 -0.05,-0.01l-9.808,-0.011c-0.907,0 -1.349,0.305 -1.324,0.916c0.016,0.617 0.503,0.926 1.459,0.926l12.751,0Z" style="fill:url(#_Linear1);fill-rule:nonzero;"/><path d="M44.351,8.11l-14.97,0c-0.434,0 -0.74,0.079 -0.92,0.239c-0.114,0.097 -0.184,0.198 -0.208,0.302c-0.025,0.104 -0.037,0.305 -0.037,0.603l0,3.558l-1.594,0l0,-3.808c0,-0.693 0.213,-1.234 0.638,-1.623c0.4,-0.367 1.177,-0.551 2.329,-0.551l14.749,0c0.507,0 0.761,0.211 0.761,0.635c0,0.423 -0.25,0.638 -0.748,0.645l0,0Z" style="fill:url(#_Linear2);fill-rule:nonzero;"/><path d="M63.6,11.533c0.58,-0.007 0.87,0.204 0.87,0.634c0,0.43 -0.327,0.645 -0.981,0.645l-13.768,0c-1.202,0 -2.072,-0.197 -2.612,-0.593c-0.727,-0.527 -1.091,-1.321 -1.091,-2.382c0,-0.874 0.303,-1.603 0.907,-2.185c0.573,-0.548 1.504,-0.822 2.796,-0.822l12.126,0c0.719,0 1.324,0.149 1.814,0.447c0.556,0.333 0.822,0.794 0.797,1.384c-0.025,0.458 -0.253,0.872 -0.687,1.243c-0.433,0.371 -1.062,0.557 -1.888,0.557l-10.176,0.01c-0.482,-0.02 -0.723,-0.235 -0.723,-0.645c0,-0.423 0.253,-0.634 0.76,-0.634l0.11,0l10.385,0.01c0.441,-0.042 0.65,-0.232 0.625,-0.572c-0.024,-0.347 -0.237,-0.52 -0.637,-0.52l-12.285,0c-0.72,0 -1.247,0.1 -1.582,0.301c-0.474,0.285 -0.711,0.753 -0.711,1.405c0,1.144 0.682,1.717 2.047,1.717l13.904,0Z" style="fill:url(#_Linear3);fill-rule:nonzero;"/><path d="M69.08,8.11c-0.727,0 -1.25,0.131 -1.569,0.395c-0.319,0.264 -0.478,0.704 -0.478,1.321c0,0.645 0.237,1.11 0.711,1.395c0.343,0.208 0.87,0.312 1.581,0.312l8.853,0c0.506,0 0.76,0.211 0.76,0.634c0,0.41 -0.241,0.625 -0.724,0.645l-9.109,0c-1.284,0 -2.215,-0.277 -2.796,-0.832c-0.605,-0.583 -0.907,-1.307 -0.907,-2.174c0,-1.582 0.711,-2.529 2.133,-2.841c0.409,-0.09 0.932,-0.135 1.57,-0.135l11.831,0c1.144,0 1.917,0.184 2.317,0.551c0.425,0.389 0.638,0.93 0.638,1.623l0,3.808l-1.594,0l0,-3.558c0,-0.284 -0.016,-0.482 -0.049,-0.593c-0.114,-0.368 -0.482,-0.551 -1.103,-0.551l-12.065,0l0,0Z" style="fill:url(#_Linear4);fill-rule:nonzero;"/><path d="M94.864,8.11l0,4.026c0,0.451 -0.266,0.676 -0.797,0.676c-0.531,0 -0.797,-0.225 -0.797,-0.676l0,-4.026l-5.701,0c-0.433,0 -0.74,0.079 -0.919,0.239c-0.115,0.097 -0.184,0.198 -0.209,0.302c-0.024,0.104 -0.037,0.305 -0.037,0.603l0,2.872c0,0.458 -0.265,0.686 -0.797,0.686c-0.531,0 -0.797,-0.225 -0.797,-0.676l0,-0.01l0,-3.122c0,-0.693 0.213,-1.234 0.638,-1.623c0.401,-0.367 1.177,-0.551 2.33,-0.551l12.542,0c1.144,0 1.917,0.184 2.317,0.551c0.433,0.403 0.65,0.944 0.65,1.623l0,3.132c0,0.451 -0.27,0.676 -0.809,0.676c-0.531,0 -0.797,-0.225 -0.797,-0.676l0,-0.01l0,-2.872c0,-0.291 -0.012,-0.489 -0.037,-0.593c-0.131,-0.368 -0.503,-0.551 -1.116,-0.551l-5.664,0l0,0Z" style="fill:url(#_Linear5);fill-rule:nonzero;"/><path d="M119.716,11.533c0.948,0 1.435,-0.309 1.459,-0.926c0.017,-0.611 -0.425,-0.916 -1.324,-0.916l-9.808,0.011c-0.017,0 -0.037,0.003 -0.062,0.01c-0.016,0 -0.032,0 -0.049,0c-0.506,0 -0.76,-0.215 -0.76,-0.645c0,-0.402 0.241,-0.617 0.724,-0.645l0.036,0l10.14,0.021c0.744,0 1.363,0.209 1.857,0.629c0.495,0.42 0.746,0.942 0.754,1.566c0.008,0.673 -0.257,1.207 -0.797,1.602c-0.506,0.382 -1.16,0.572 -1.961,0.572l-12.751,0c-1.161,0 -1.937,-0.183 -2.33,-0.551c-0.425,-0.395 -0.637,-0.936 -0.637,-1.623l0,-3.808l1.593,0l0,3.548c0,0.305 0.017,0.506 0.05,0.603c0.057,0.368 0.429,0.552 1.115,0.552l12.751,0Z" style="fill:url(#_Linear6);fill-rule:nonzero;"/><path d="M127.293,8.11c-0.727,0 -1.25,0.131 -1.569,0.395c-0.319,0.264 -0.478,0.704 -0.478,1.321c0,0.645 0.237,1.11 0.711,1.395c0.343,0.208 0.87,0.312 1.581,0.312l10.63,0c0.711,0 1.239,-0.104 1.582,-0.312c0.466,-0.285 0.699,-0.75 0.699,-1.395c0,-0.617 -0.16,-1.057 -0.478,-1.321c-0.319,-0.264 -0.842,-0.395 -1.57,-0.395l-11.108,0Zm0.025,4.702c-1.284,0 -2.215,-0.277 -2.796,-0.832c-0.605,-0.583 -0.907,-1.307 -0.907,-2.174c0,-1.582 0.711,-2.529 2.133,-2.841c0.409,-0.09 0.932,-0.135 1.57,-0.135l11.059,0c1.209,0 2.084,0.194 2.623,0.583c0.728,0.527 1.092,1.324 1.092,2.393c0,0.88 -0.299,1.602 -0.895,2.164c-0.597,0.562 -1.537,0.842 -2.82,0.842l-11.059,0Z" style="fill:url(#_Linear7);fill-rule:nonzero;"/><path d="M160.752,6.84c0.482,0.014 0.724,0.226 0.724,0.635c0,0.409 -0.242,0.624 -0.724,0.645l-5.86,0c-0.049,0.007 -0.119,0.01 -0.209,0.01c-0.131,0.035 -0.247,0.098 -0.349,0.188c-0.102,0.09 -0.235,0.256 -0.399,0.499l-0.662,0.999l0.662,0.999c0.188,0.284 0.319,0.454 0.393,0.51c0.081,0.083 0.2,0.145 0.355,0.187c0.041,-0.007 0.111,-0.004 0.209,0.01l5.86,0c0.482,0.028 0.724,0.243 0.724,0.645c0,0.403 -0.242,0.614 -0.724,0.635l-6.057,0c-0.065,0 -0.147,0.002 -0.245,0.005c-0.098,0.004 -0.18,0.002 -0.245,-0.005c-0.629,-0.055 -1.193,-0.472 -1.692,-1.248l-0.221,-0.344l-0.22,0.344c-0.499,0.776 -1.067,1.193 -1.704,1.248c-0.074,0.007 -0.16,0.009 -0.258,0.005c-0.098,-0.003 -0.176,-0.005 -0.233,-0.005l-6.142,0.01c-0.483,-0.02 -0.724,-0.232 -0.724,-0.634c0,-0.403 0.241,-0.618 0.724,-0.645l0.882,0c1.333,-0.007 1.933,-0.011 1.803,-0.011l3.261,0c0.098,-0.014 0.172,-0.017 0.221,-0.01c0.13,-0.042 0.243,-0.102 0.337,-0.182c0.094,-0.08 0.227,-0.252 0.398,-0.515l0.662,-0.999l-0.662,-0.999c-0.155,-0.236 -0.284,-0.4 -0.386,-0.494c-0.102,-0.094 -0.219,-0.158 -0.349,-0.193c-0.098,0 -0.172,-0.003 -0.221,-0.01l-5.91,0.01l-0.012,0l-0.024,0c-0.483,-0.02 -0.724,-0.235 -0.724,-0.645c0,-0.409 0.241,-0.62 0.724,-0.634c0.139,0 0.433,0 0.882,0c1.382,-0.007 2.003,-0.011 1.864,-0.011l3.887,0c0.645,0.07 1.213,0.486 1.704,1.249l0.22,0.343l0.221,-0.343c0.491,-0.77 1.055,-1.186 1.692,-1.249l6.547,0Z" style="fill:url(#_Linear8);fill-rule:nonzero;"/><defs><linearGradient id="_Linear1" x1="0" y1="0" x2="1" y2="0" gradientUnits="userSpaceOnUse" gradientTransform="matrix(1.22465e-15,-20,20,1.22465e-15,143.011,20)"><stop offset="0%" style="stop-color:#fff;stop-opacity:1"/><stop offset="51%" style="stop-color:#cbcbcb;stop-opacity:1"/><stop offset="100%" style="stop-color:#282828;stop-opacity:1"/></linearGradient><linearGradient id="_Linear2" x1="0" y1="0" x2="1" y2="0" gradientUnits="userSpaceOnUse" gradientTransform="matrix(1.22465e-15,-20,20,1.22465e-15,143.011,20)"><stop offset="0%" style="stop-color:#fff;stop-opacity:1"/><stop offset="51%" style="stop-color:#cbcbcb;stop-opacity:1"/><stop offset="100%" style="stop-color:#282828;stop-opacity:1"/></linearGradient><linearGradient id="_Linear3" x1="0" y1="0" x2="1" y2="0" gradientUnits="userSpaceOnUse" gradientTransform="matrix(1.22465e-15,-20,20,1.22465e-15,143.011,20)"><stop offset="0%" style="stop-color:#fff;stop-opacity:1"/><stop offset="51%" style="stop-color:#cbcbcb;stop-opacity:1"/><stop offset="100%" style="stop-color:#282828;stop-opacity:1"/></linearGradient><linearGradient id="_Linear4" x1="0" y1="0" x2="1" y2="0" gradientUnits="userSpaceOnUse" gradientTransform="matrix(1.22465e-15,-20,20,1.22465e-15,143.011,20)"><stop offset="0%" style="stop-color:#fff;stop-opacity:1"/><stop offset="51%" style="stop-color:#cbcbcb;stop-opacity:1"/><stop offset="100%" style="stop-color:#282828;stop-opacity:1"/></linearGradient><linearGradient id="_Linear5" x1="0" y1="0" x2="1" y2="0" gradientUnits="userSpaceOnUse" gradientTransform="matrix(1.22465e-15,-20,20,1.22465e-15,143.011,20)"><stop offset="0%" style="stop-color:#fff;stop-opacity:1"/><stop offset="51%" style="stop-color:#cbcbcb;stop-opacity:1"/><stop offset="100%" style="stop-color:#282828;stop-opacity:1"/></linearGradient><linearGradient id="_Linear6" x1="0" y1="0" x2="1" y2="0" gradientUnits="userSpaceOnUse" gradientTransform="matrix(1.22465e-15,-20,20,1.22465e-15,143.011,20)"><stop offset="0%" style="stop-color:#fff;stop-opacity:1"/><stop offset="51%" style="stop-color:#cbcbcb;stop-opacity:1"/><stop offset="100%" style="stop-color:#282828;stop-opacity:1"/></linearGradient><linearGradient id="_Linear7" x1="0" y1="0" x2="1" y2="0" gradientUnits="userSpaceOnUse" gradientTransform="matrix(1.22465e-15,-20,20,1.22465e-15,143.011,20)"><stop offset="0%" style="stop-color:#fff;stop-opacity:1"/><stop offset="51%" style="stop-color:#cbcbcb;stop-opacity:1"/><stop offset="100%" style="stop-color:#282828;stop-opacity:1"/></linearGradient><linearGradient id="_Linear8" x1="0" y1="0" x2="1" y2="0" gradientUnits="userSpaceOnUse" gradientTransform="matrix(1.22465e-15,-20,20,1.22465e-15,143.011,20)"><stop offset="0%" style="stop-color:#fff;stop-opacity:1"/><stop offset="51%" style="stop-color:#cbcbcb;stop-opacity:1"/><stop offset="100%" style="stop-color:#282828;stop-opacity:1"/></linearGradient></defs></svg>