<?xml version="1.0" encoding="UTF-8" standalone="no"?>
<!-- Created with Inkscape (http://www.inkscape.org/) -->

<svg
   version="1.1"
   id="svg1705"
   width="800"
   height="510"
   viewBox="0 0 800 510"
   xmlns="http://www.w3.org/2000/svg"
   xmlns:svg="http://www.w3.org/2000/svg">
  <defs
     id="defs1709" />
  <g
     id="g1711">
    <path
       style="fill:#808080"
       d="M 225.68008,351.25 C 215.28668,334.62946 208,320.82721 208,317.76083 c 0,-3.04421 22.045,-42.31345 64.76726,-115.37135 6.2879,-10.75273 6.47492,-10.82881 27.58603,-11.22196 9.81931,-0.18287 18.93181,-0.0618 20.25,0.26905 3.63142,0.91143 3.05269,4.51934 -2.18017,13.59157 -2.51728,4.36423 -4.42363,8.73076 -4.23632,9.70341 0.32393,1.68214 9.99144,1.79285 198.08904,2.26845 l 197.74849,0.5 -2.54821,3.75 -2.54822,3.75 -195.21395,0.006 c -125.49047,0.004 -196.48433,0.35849 -198.7708,0.99367 -4.96398,1.379 -7.48441,4.48131 -16.65559,20.50075 -27.76403,48.49586 -60.77128,105.26332 -62.06944,106.75 -2.30506,2.63979 -3.95158,2.13611 -6.53804,-2 z M 22.5,304.52924 c -1.975194,-1.56936 -1.965199,-1.61661 0.80578,-3.80916 3.167693,-2.50645 42.962224,-27.76231 89.19422,-56.6077 17.05,-10.63796 32.4625,-20.85852 34.25,-22.71237 4.26629,-4.42466 4.23749,-7.48134 -0.26325,-27.93444 -4.99728,-22.70955 -5.98202,-25.35673 -10.06763,-27.06381 -1.84518,-0.77097 -4.49434,-1.40176 -5.887,-1.40176 -3.1552,0 -3.12376,-0.55783 0.3015,-5.3492 l 2.75172,-3.8492 15.44579,0.14642 c 18.64951,0.17678 20.35185,0.82725 23.06655,8.81375 0.98354,2.89353 3.21955,12.11836 4.96891,20.4996 1.74936,8.38125 3.27001,15.34612 3.37922,15.47749 0.26711,0.32129 36.41509,-22.58393 49.55419,-31.4001 18.71225,-12.55566 21.34125,-13.40788 41.81163,-13.5536 20.15975,-0.14352 22.36711,0.81214 15.93837,6.90036 -1.7875,1.69281 -24.27176,17.07301 -49.96503,34.1782 C 188.8436,229.44625 188,230.13143 188,237.29976 c 0,4.5395 8.50882,44.43218 10.58246,49.61471 1.89385,4.73322 6.44337,8.9407 10.55716,9.76345 1.57321,0.31465 2.86038,0.75048 2.86038,0.96852 0,0.21804 -1.1848,2.18679 -2.63289,4.375 L 206.73423,306 h -15.91678 c -18.05139,0 -20.94597,-0.79434 -22.7118,-6.23261 C 167.52214,297.97033 165.4552,288.175 163.51246,278 c -5.75495,-30.14126 -5.5221,-29.21028 -7.14987,-28.58564 -0.80571,0.30918 -19.07993,11.88262 -40.60937,25.71877 -21.529437,13.83614 -41.64391,26.32893 -44.698827,27.76175 -5.330537,2.50013 -6.380594,2.61758 -26.054393,2.91427 -17.542707,0.26456 -20.788516,0.0799 -22.5,-1.27991 z m 248.16667,0.80409 c -1.81603,-1.81603 0.74175,-7.05961 18.06873,-37.04185 14.22388,-24.61268 19.48975,-32.88554 21.86804,-34.35541 2.98915,-1.8474 5.43009,-1.93607 53.29598,-1.93607 46.24657,0 50.21417,0.13244 50.81426,1.69625 0.90041,2.34642 -7.36854,17.7468 -11.48202,21.38452 -1.79759,1.58968 -4.27259,3.13738 -5.5,3.43933 -1.22741,0.30195 -10.28313,0.42095 -20.12382,0.26445 -21.74907,-0.34589 -21.81877,-0.38801 -16.65025,-10.06158 2.04083,-3.81971 3.13892,-7.02909 2.75093,-8.04017 -1.39681,-3.64004 -10.67217,-1.14918 -13.71716,3.68369 -0.73933,1.17343 -8.27769,14.05851 -16.75189,28.63351 -8.47421,14.575 -16.15625,27.33357 -17.0712,28.35238 C 312.39852,305.55005 309.886,306 290.21633,306 c -10.38565,0 -19.183,-0.3 -19.54966,-0.66667 z m 116.63837,-0.98079 c -0.99692,-2.59795 0.33855,-5.21692 19.30413,-37.85716 13.06906,-22.49216 18.69936,-31.2902 20.89083,-32.64449 2.83124,-1.74965 5.8066,-1.83979 52.89119,-1.60242 45.2945,0.22836 49.98797,0.40497 50.94152,1.91692 1.47845,2.34423 -15.70366,32.342 -20.38214,35.58461 -3.16238,2.19181 -3.91592,2.25 -29.13829,2.25 -32.08782,0 -31.20387,-0.29546 -38.79316,12.96659 -5.95233,10.40151 -6.23606,13.36722 -1.32435,13.84265 4.5324,0.43871 7.90754,-2.16835 12.90921,-9.97145 C 460.80843,279.15821 461.2798,279 483.91516,279 c 24.69093,0 24.1634,-0.68852 13.40794,17.5 -1.62617,2.75 -4.45566,6.0125 -6.28777,7.25 l -3.3311,2.25 h -49.8835 c -45.40287,0 -49.94028,-0.14798 -50.51569,-1.64746 z m 80.34682,-41.044 c 2.16803,-1.42055 10.9102,-14.95751 12.6309,-19.55854 1.70238,-4.55204 -3.35981,-6.31288 -9.30712,-3.2374 C 467.98236,242.06048 457,259.22173 457,262.35119 c 0,3.72447 5.65326,4.23256 10.65186,0.95735 z m 35.01481,42.02479 C 502.3,304.96667 502,303.83649 502,302.82184 502,300.26289 537.45881,239.1927 541.08867,235.5 l 2.94895,-3 H 595.26881 646.5 l 0.31994,2.25293 c 0.37482,2.63949 -33.41293,61.69895 -38.47187,67.24707 l -3.1914,3.5 H 584.32833 563.5 l -0.32057,-2.25776 c -0.21064,-1.48354 4.99073,-11.42796 15.16827,-29 17.42374,-30.08293 18.15161,-31.49867 17.31514,-33.67847 -1.02075,-2.66003 -7.17237,-1.97707 -10.68475,1.18623 -1.6794,1.5125 -10.59857,15.75976 -19.82037,31.66057 -14.01994,24.17409 -17.32882,29.21194 -20.19671,30.75 -2.98705,1.60198 -5.8953,1.83943 -22.52874,1.83943 -10.50442,0 -19.39894,-0.3 -19.7656,-0.66667 z m 113.68922,-0.84827 c -0.31973,-0.83322 -0.36385,-2.34661 -0.098,-3.36309 1.1196,-4.28134 37.31207,-65.26946 39.69463,-66.88963 2.21448,-1.50587 6.14578,-1.79771 30.07186,-2.23234 25.808,-0.46882 27.70108,-0.62889 30.35875,-2.56694 1.70262,-1.2416 7.89791,-10.82491 15.5152,-24 9.47975,-16.39645 13.2101,-22.00997 14.77767,-22.23773 1.7577,-0.25538 3.73281,2.48723 12.21046,16.95531 5.56247,9.49299 10.11358,18.31493 10.11358,19.60433 0,1.28939 -0.73909,3.7845 -1.64243,5.54469 -3.84592,7.49392 -42.72297,74.36447 -44.21537,76.05272 -4.10266,4.64109 -4.18228,4.64762 -56.62392,4.64762 -43.36693,0 -49.65391,-0.18987 -50.16239,-1.51494 z m 61.4562,-7.9804 c 3.58059,-3.01286 32.44336,-52.92787 31.98979,-55.32283 -0.21625,-1.14188 -1.50436,-1.78055 -4.01214,-1.98933 -5.86652,-0.4884 -9.19583,3.65572 -24.75016,30.8075 -13.28115,23.18369 -14.96178,26.74446 -13.37291,28.33333 1.5826,1.5826 7.32047,0.54837 10.14542,-1.82867 z"
       id="path1832" />
  </g>
</svg>
