<?xml version="1.0" encoding="UTF-8" standalone="no"?>
<!-- Created with Inkscape (http://www.inkscape.org/) -->

<svg
   version="1.1"
   id="svg1585"
   width="302"
   height="65"
   viewBox="0 0 302 65"
   xmlns="http://www.w3.org/2000/svg"
   xmlns:svg="http://www.w3.org/2000/svg">
  <defs
     id="defs1589" />
  <g
     id="g1591">
    <path
       style="fill:#0087fe;fill-opacity:1"
       d="M 13.366677,43.930535 1.5,32.86107 1.2277842,32.113888 0.95556843,31.366705 12.400334,20.183353 23.8451,9 H 24.92255 26 v 1.732109 1.73211 l -9.637341,9.673639 -9.6373411,9.67364 6.7564931,6.344251 L 20.238303,44.5 21.119152,44.833333 22,45.166667 V 39.583333 34 h 2 2 V 44.5 55 H 25.616677 25.233355 Z M 30,44.5 V 34 h 2 2 v 5.440983 5.440983 l 0.768197,0.474772 0.768197,0.474771 4.820384,-4.554446 4.820383,-4.554447 -2.572927,-2.572928 -2.572928,-2.572927 2.573221,-2.685864 2.573221,-2.685864 L 40.838874,22.227808 36.5,18.250584 33.25,15.536398 30,12.822213 V 10.837782 8.8533517 L 31.408253,9.1766758 32.816505,9.5 l 9.665987,8.465169 9.665987,8.46517 -3.132024,2.556231 -3.132023,2.556231 2.557784,2.402914 L 51,36.348628 v 0.598751 0.598751 L 41.089117,46.273065 31.178235,55 H 30.589117 30 Z m 31,-10 V 28 h 3 3 v 4 4 h 9 9 V 34.5 33 H 79.5 74 V 30.5 28 h 8 8 V 34.5 41 H 75.5 61 Z m 34,0 V 28 h 3 3 v 6.5 6.5 h -3 -3 z m 10,0 V 28 h 3 3 v 4 4 h 9 9 V 34.5 33 h -5 -5 V 30.5 28 h 7.5 7.5 V 34.5 41 H 119.5 105 Z m 35.14102,5.743066 0.35898,-0.910811 3,-5.663752 3,-5.663751 2.80516,-0.0024 2.80516,-0.0024 -3.30516,6.25 -3.30516,6.25 -2.85898,0.326938 -2.85898,0.326939 0.35898,-0.910811 z M 159.73239,36.75 157.27474,32.5 156.10218,30.25 154.92963,28 h 2.9683 2.96829 l 3.45152,6.5 3.45151,6.5 h -2.7896 -2.78961 z M 173,38.5 V 36 h 12 12 V 35 34 H 185 173 V 31.5 29 l 10.75,-0.01101 13.47986,-0.135803 -0.025,-1.025416 L 202,27.738306 v 6.630843 6.630842 H 187.5 173 v -2.5 z m 34,-4 V 28 h 2.5 2.5 v 4 4 h 12 12 V 38.5 41 H 221.5 207 Z m 34,0 V 28 h 2.5 2.5 v 4 4 h 9 9 v -4 -4 h 3 3 V 34.5 41 H 255.5 241 Z m 34,4 V 36 H 288.5 302 V 38.5 41 H 288.5 275 Z m 0,-8 V 28 H 288.5 302 V 30.5 33 H 288.5 275 Z M 61,22.5 V 20 H 75.5 90 V 22.5 25 H 75.5 61 Z m 34,0 V 20 h 3 3 v 2.5 2.5 h -3 -3 z m 10,0 V 20 H 119.5 134 V 22.5 25 H 119.5 105 Z m 44,1.934259 V 23.868517 L 150.03518,21.934259 151.07037,20 h 2.8043 2.8043 l 1.13908,2.5 1.13907,2.5 H 153.97856 149 Z M 173,22.5 V 20 H 187.5 202 V 22.5 25 H 187.5 173 Z m 34,0 V 20 h 2.5 2.5 v 2.5 2.5 h -2.5 -2.5 z m 34,0 V 20 h 2.5 2.5 V 22.5 25 H 243.5 241 Z M 264.18045,22.75 264.5,20.5 267.25,20.183578 270,19.867155 V 22.433578 25 h -3.06955 -3.06955 z M 275,22.5 V 20 H 288.5 302 V 22.5 25 H 288.5 275 Z"
       id="path1716" />
  </g>
</svg>
