<?xml version="1.0" encoding="UTF-8" standalone="no"?>
<!-- Created with Inkscape (http://www.inkscape.org/) -->

<svg
   version="1.1"
   id="svg2756"
   width="250"
   height="152"
   viewBox="0 0 250 152"
   xmlns="http://www.w3.org/2000/svg"
   xmlns:svg="http://www.w3.org/2000/svg">
  <defs
     id="defs2760" />
  <g
     id="g2762">
    <path
       style="fill:#b3b3b3"
       d="m 145.47891,105.02146 c -14.69261,-2.18659 -23.82085,-12.335292 -23.80365,-26.464709 0.0204,-16.797091 12.11243,-29.049199 29.90412,-30.30012 10.35869,-0.728312 17.31263,1.540144 23.40865,7.636164 3.80822,3.808219 5.00535,5.849086 5.91273,10.080055 1.92009,8.953091 -0.92447,17.655239 -7.38089,22.579791 -3.49859,2.668505 -3.49859,2.668505 -1.44599,5.551107 1.12892,1.585432 1.76729,3.344231 1.41859,3.908443 -1.0684,1.728708 -9.87397,5.786419 -14.0477,6.473349 -7.43466,1.22363 -8.9533,1.28191 -13.96586,0.53592 z m 16.84295,-9.615462 c 5.26729,-1.794745 6.43673,-4.007716 1.60747,-3.041864 -1.93888,0.387776 -4.20056,0.02985 -6.13618,-0.9711 -2.27298,-1.175405 -3.61199,-1.321973 -5.17933,-0.56693 -7.00969,3.376817 -13.74016,1.509116 -16.25547,-4.510886 -2.98035,-7.132968 0.3784,-17.354255 7.03688,-21.414496 3.41247,-2.080877 12.0455,-2.614652 13.15862,-0.81359 0.48382,0.782843 0.97617,0.782843 1.75902,0 C 159.41603,62.983967 168,62.524644 168,63.56878 c 0,0.312828 -1.14643,5.091402 -2.54761,10.619053 -1.40119,5.527651 -2.30309,10.294798 -2.00423,10.593661 1.46148,1.461479 5.84551,-2.191142 7.72231,-6.433961 3.58076,-8.094911 1.06377,-15.922773 -6.29942,-19.591226 -5.48387,-2.732149 -11.8089,-3.207 -18.15268,-1.362813 -10.54228,3.064723 -16.15762,10.487383 -16.1048,21.288188 0.0379,7.756434 3.1554,13.017399 9.55036,16.116978 5.37761,2.606475 15.47826,2.88333 22.15793,0.607338 z m -10.91971,-11.951 c 1.76163,-1.761638 3.87357,-8.775806 3.39646,-11.280303 -0.46096,-2.41967 -4.11126,-2.591691 -6.19261,-0.291828 -5.28629,5.84129 -2.59815,16.966431 2.79615,11.572131 z M 76,95.293772 C 73.599303,94.416184 69.94038,90.747229 68.227538,87.5 67.161274,85.478563 66.498846,80.83039 66.196717,73.25 L 65.748329,62 h 7.125836 c 8.078754,0 7.188486,-0.912603 7.330665,10.99309 0.05943,4.976206 0.706364,7.475544 1.54517,7.755854 0.942102,0.31483 1.748111,-1.945997 1.534091,-9.165611 L 83,62 h 7 7 L 96.97804,72.25 C 96.9529,83.981578 95.357244,88.838724 90.065575,93.29137 87.522289,95.431404 85.865537,95.983427 82.173277,95.921053 79.602974,95.877632 76.825,95.595355 76,95.293772 Z m 32.38856,-1.198547 c -1.71129,-1.043514 -4.18629,-3.404332 -5.5,-5.246262 C 100.62242,85.671645 100.48304,84.590259 100.16902,67.75 L 99.838035,50 H 106.91902 114 v 6 c 0,5.733333 0.11111,6 2.5,6 2.44444,0 2.5,0.166667 2.5,7.5 0,7.390321 -0.0376,7.5 -2.57332,7.5 -2.36719,0 -2.95266,2.207817 -1.74252,3.652461 0.4403,0.52562 1.18168,0.443187 2.07168,0.834667 2.00701,0.882815 2.24416,1.701779 2.24416,7.75 C 119,96 119,96 115.25,95.996262 c -2.0625,-0.0021 -5.15015,-0.857523 -6.86144,-1.901037 z m 117.52455,-0.374796 c -1.86046,-1.253764 -4.3946,-4.066264 -5.63143,-6.25 -2.08193,-3.675842 -2.25,-5.2132 -2.26523,-20.720429 L 218,50 h 7 7 v 6 c 0,5.733333 0.11111,6 2.5,6 2.44444,0 2.5,0.166667 2.5,7.5 0,7.390321 -0.0376,7.5 -2.57332,7.5 -2.24104,0 -2.89278,2.075927 -1.92129,3.456781 0.42805,0.608419 1.2301,0.581529 2.25045,1.030347 2.00701,0.882815 2.24416,1.701779 2.24416,7.75 C 237,96 237,96 233.14788,96 c -2.35366,0 -5.16795,-0.886743 -7.23477,-2.279571 z M 13.005577,78.75 c 0.0031,-8.9375 0.49549,-18.014539 1.094274,-20.171197 2.855418,-10.284458 13.627836,-13.307701 22.993266,-6.452981 1.271577,0.930689 2.199291,0.717866 4.596495,-1.054463 6.530121,-4.827928 15.641954,-3.038363 19.697303,3.868553 1.603805,2.73154 1.962666,5.977904 2.391799,21.636904 L 64.283599,95 H 56.6418 49 V 79 c 0,-13.433101 -0.236573,-16 -1.474607,-16 -1.225402,0 -1.521148,2.661712 -1.75,15.75 L 45.5,94.5 38.25,94.79381 31,95.087619 V 79.04381 C 31,65.449312 30.771004,63 29.5,63 28.229167,63 28,65.444444 28,79 V 95 H 20.5 13 l 0.0056,-16.25 z m 171.159483,5.5 c 0.43041,-11.977318 2.18556,-17.049214 7.15827,-20.685466 3.93725,-2.879077 12.46524,-2.85822 16.35334,0.04 5.44028,4.055222 6.77918,7.813646 7.17661,20.14547 l 0.36257,11.25 h -7.0704 -7.0704 l 0.1257,-9.353306 c 0.0714,-5.310404 -1.12688,-8.47521 -1.70075,-8.47521 -0.57387,0 -1.85422,3.268608 -1.75241,8.578512 l 0.17736,9.25 h -7.0731 -7.0731 z"
       id="path2889" />
  </g>
</svg>
