<?xml version="1.0" encoding="UTF-8" standalone="no"?>
<!-- Created with Inkscape (http://www.inkscape.org/) -->

<svg
   version="1.1"
   id="svg5079"
   width="300"
   height="63"
   viewBox="0 0 300 63"
   xmlns="http://www.w3.org/2000/svg"
   xmlns:svg="http://www.w3.org/2000/svg">
  <defs
     id="defs5083" />
  <g
     id="g5085">
    <path
       style="fill:#cccccc"
       d="M 198.34375,58.943076 C 192.2387,57.758015 186.857,54.690995 182.58462,49.96198 c -5.17207,-5.724857 -6.90806,-10.246809 -6.95591,-18.11895 -0.0764,-12.568955 7.74542,-22.8609686 20.10474,-26.4539192 22.48372,-6.5361949 42.63166,15.9375422 33.36658,37.2182852 -5.1122,11.742096 -18.30968,18.751713 -30.75628,16.33568 z m 13.04137,-16.031372 c 8.0969,-6.369022 7.37565,-17.867717 -1.4312,-22.817448 -4.50076,-2.529568 -7.98821,-2.646348 -12.67085,-0.424291 -4.74542,2.25185 -7.2747,6.663784 -7.27933,12.697682 -0.003,4.32331 0.43041,5.301801 3.87861,8.75 C 197.44803,44.68332 198.21193,45 203.24749,45 c 4.04587,0 6.17857,-0.547298 8.13763,-2.088296 z"
       id="path5206" />
    <path
       style="fill:#cccccc"
       d="M 234,39.223177 V 19.446358 l 6.7751,-6.723181 C 244.5014,9.0254312 247.98044,6 248.50631,6 c 0.52586,0 5.12707,4.153612 10.2249,9.23025 L 268,24.460499 V 14.73025 5 h 8 8 v 26.5 c 0,14.575 -0.30931,26.5 -0.68735,26.5 -0.37804,0 -8.14054,-7.3125 -17.25,-16.25 L 249.5,25.5 249.22582,42.25 248.95164,59 H 241.47582 234 V 39.22318 Z"
       id="path5583" />
    <path
       style="fill:#cccccc"
       d="M 157,39.173027 V 19.346055 l 5.75,-5.419645 C 173.02246,4.2441344 172,2.1973468 172,32.443296 V 59 h -7.5 -7.5 z"
       id="path5581" />
    <path
       style="fill:#cccccc"
       d="M 116,52.533832 V 46.067663 L 126.75,45.783832 137.5,45.5 v -3 c 0,-2.880752 -0.21416,-3.026137 -5.38768,-3.657541 -8.02947,-0.97996 -13.40559,-5.750836 -15.13029,-13.426926 C 115.04528,16.795706 120.07708,8.4606825 128.65558,6.0786528 133.04593,4.859563 166,4.59504 166,5.7788883 c 0,0.4283886 -2.8125,3.5638694 -6.25,6.9677357 l -6.25,6.188846 -11.48803,0.282265 C 131.56955,19.474309 130.4902,19.676018 130.15323,21.433903 129.64529,24.083664 132.61573,26 137.23097,26 c 2.11679,0 5.64843,0.918152 7.8481,2.040337 5.49632,2.804015 7.91254,7.095483 7.91719,14.06178 0.005,6.949727 -2.63224,11.2658 -8.90354,14.5734 C 140.19886,58.729207 138.3058,59 127.84272,59 H 116 Z"
       id="path5579" />
    <path
       style="fill:#cccccc"
       d="M 97,39.22318 V 19.446361 l 6.7751,-6.723181 C 107.5014,9.0254312 110.8764,6 111.2751,6 111.67379,6 112,17.925 112,32.5 V 59 H 104.5 97 Z"
       id="path5577" />
    <path
       style="fill:#cccccc"
       d="M 43,39.43723 V 19.786841 l 7.25,-7.504203 7.25,-7.5042022 6.790443,0.5559905 C 76.524867,6.336161 85.9838,12.179692 90.581106,21.576248 c 2.331428,4.765267 2.620035,6.365586 2.200926,12.204096 C 92.230225,41.467434 89.7677,47.002782 84.837629,51.638047 79.42425,56.727719 75.282978,58.349776 67.5,58.428866 L 60.5,58.5 60.202283,52.25 59.904565,46 h 4.079836 C 70.815715,46 74.799847,43.706715 77.133374,38.431391 81.659954,28.198306 75.003104,19 63.0708,19 H 58.04228 L 57.77114,38.75 57.5,58.5 50.25,58.79381 43,59.087619 Z"
       id="path5575" />
    <path
       style="fill:#cccccc"
       d="M 4,39.72654 V 20.45308 L 11.772124,12.72654 19.544247,5 H 35.995304 52.446361 L 45.5,12 38.553639,19 H 28.77682 19 V 22.5 26 H 29.047717 39.095435 L 38.797717,32.25 38.5,38.5 28.75,38.786212 19,39.072424 V 42.536212 46 H 28.5 38 V 52.5 59 H 21 4 Z"
       id="path5573" />
  </g>
</svg>
