<?xml version="1.0" encoding="UTF-8" standalone="no"?>
<!-- Created with Inkscape (http://www.inkscape.org/) -->

<svg
   version="1.1"
   id="svg2"
   width="259"
   height="51"
   viewBox="0 0 259 51"
   xmlns="http://www.w3.org/2000/svg"
   xmlns:svg="http://www.w3.org/2000/svg">
  <defs
     id="defs6" />
  <g
     id="g8">
    <path
       style="fill:#999999"
       d="m 233,27 c 0,-10.018981 1.20734,-10.326905 6.86161,-1.75 l 4.12027,6.25 0.19683,-6.377527 c 0.004,-3.199885 0.0231,-5.889668 0.0236,-6.04047 0.71105,-0.01075 1.36856,0.0094 2.03652,0.01777 0.001,0.217682 -0.014,2.365546 -0.0482,3.460089 -0.0502,1.610972 -0.002,5.115089 -0.0693,7.773422 -0.15554,6.177681 -1.26498,5.809799 -6.79708,-2.253858 L 235,21.775878 v 6.612061 c 0,2.851717 -0.0509,6.510134 -0.0524,6.597308 -0.56813,0.01496 -1.41159,0.01871 -1.90821,-9.53e-4 C 233.02421,34.873663 233,30.386702 233,27 Z"
       id="path347" />
    <path
       style="fill:#999999"
       d="m 227.57452,26.867417 c 0,-4.547084 0.0662,-7.659699 0.0807,-7.869492 0.90195,-0.03108 1.1371,0.0052 2.00375,-0.0012 -0.006,0.251419 -0.0411,3.16189 -0.0563,7.981178 -0.0134,4.118603 0.009,7.683491 -0.0133,8.027632 -1.01697,-0.0019 -1.07482,0.0084 -2.07256,-0.02031 -0.0505,-0.09304 0.0577,-3.674717 0.0577,-8.117811 z"
       id="path345" />
    <path
       style="fill:#999999"
       d="m 208,27 c 0,-9.824961 1.70515,-10.662721 5.0884,-2.5 1.2538,3.025 2.59456,5.5 2.97947,5.5 0.38491,0 1.70437,-2.475 2.93213,-5.5 3.3099,-8.15507 5,-7.310021 5,2.5 0,4.007688 -0.0119,7.039243 -0.0258,7.92869 -0.002,0.140116 -0.30982,0.141622 -0.39219,0.141622 -0.0896,0 -0.42023,0.0027 -0.75781,-3.38e-4 -0.22315,-0.002 -0.50524,0.02468 -0.64185,-0.05503 -0.0566,-0.03302 -0.14129,-0.120202 -0.1423,-0.191027 -0.0155,-1.089674 -0.0702,-3.689345 -0.0888,-6.073913 l -0.0487,-6.25 -2.55712,6.25 c -3.13139,7.653626 -3.40199,7.674129 -6.59914,0.5 l -2.56249,-5.75 -0.0919,5.75 c -0.0353,2.208823 -0.14352,4.511647 -0.14784,5.534436 -0.001,0.238274 0.0341,0.272655 -0.46322,0.279093 -0.20173,0.0026 -0.42263,0.0074 -0.49978,0.0074 -0.087,0 -0.50136,-0.0035 -0.71723,-0.01733 -0.16079,-0.01029 -0.25277,0.01715 -0.26012,-0.190209 C 207.96137,33.66821 208,30.407907 208,27 Z"
       id="path343" />
    <path
       style="fill:#999999"
       d="M 65,26.5 C 65,15.52838 64.986354,10.131527 65.068395,10.045843 65.143038,9.9678878 66.410701,10 67,10 67.509906,10 68.879473,9.977365 68.939103,10.05336 68.999826,10.130746 69,14.490961 69,25 v 15 h 8 c 4.601004,0 7.837719,0.03788 7.915779,0.231514 C 84.986952,40.408062 85,41.154355 85,41.5 85,41.77941 84.98724,42.784057 84.859833,42.893588 84.76228,42.977451 81.359486,43 75,43 H 65 Z"
       id="path341" />
    <path
       style="fill:#999999"
       d="M 7.2252287,26.75 7.5,10.5 h 7.671276 C 24.28627,10.5 28,12.842669 28,18.592527 28,25.289109 24.556347,28 16.04966,28 H 11 v 7.5 c 0,4.811421 0.02465,7.279051 -0.09913,7.411876 C 10.781526,43.039943 9.5293404,43 8.9752287,43 8.4577627,43 7.2966558,43.033287 7.1731217,42.954582 7.0596993,42.882318 7.0293024,38.337097 7.2252287,26.75 Z M 22.428571,22.428571 C 26.465315,18.391827 23.078398,14 15.928571,14 H 11 v 5 5 h 4.928571 c 3.147187,0 5.49655,-0.567978 6.5,-1.571429 z"
       id="path339" />
    <path
       style="fill:#999999"
       d="M 191.97396,35.699055 185,27.898109 V 35.449055 43 H 181.5 178 V 26.5 10 h 3.5 3.5 v 6.72318 6.723181 l 6.7751,-6.723181 C 198.09957,10.447164 198.84626,10 203.00164,10 h 4.45144 l -7.70252,7.75 -7.70252,7.75 8.05884,8.75 c 4.43237,4.8125 8.79201,8.887579 7.67247,8.65736 -2.16303,0.03335 -4.97462,0.167671 -6.30903,0.12179 -3.60346,-0.123896 -4.33668,-1.558568 -9.49636,-7.330095 z"
       id="path337" />
    <path
       style="fill:#999999"
       d="m 165.75,43.183578 c -1.21483,-0.01301 -1.97979,0.255424 -2.37002,-0.267664 C 163.02555,42.440819 163,41.102958 163,39.933578 163,38.838509 163.22703,37.62247 162.86293,37.192362 162.25163,36.470254 160.38698,37 156,37 146.45436,37 146.39814,34.740939 155.58513,20.329765 161.83519,10.525616 162.34402,10 165.58513,10 H 169 v 10.5 c 0,10.5 0,10.5 2.5,10.5 2.11111,0 2.5,0.466667 2.5,3 0,2.513538 -0.43344,2.962161 -2.47747,2.962161 -0.83934,0 -2.13032,-0.20687 -2.53074,0.0979 -0.56425,0.429462 -0.031,1.614335 -0.18142,3.189938 -0.11024,1.154368 0.11106,1.785849 -0.1477,2.24656 -0.39041,0.69511 -1.21191,0.705234 -2.91267,0.687019 z M 163,25.304219 v -5.69578 l -2.80283,4.44578 c -1.54156,2.44518 -3.14312,5.008281 -3.55902,5.695781 -0.54899,0.9075 0.21899,1.25 2.80283,1.25 C 163,31 163,31 163,25.304219 Z"
       id="path335" />
    <path
       style="fill:#999999"
       d="M 117.42031,42.114532 C 111.0574,38.234436 110.32204,28.851533 115.98105,23.75 c 6.11865,-5.515899 15.79688,-2.590542 17.52961,5.298527 0.93104,4.239008 0.50545,4.451473 -8.91684,4.451473 -8.66094,0 -9.68144,0.50057 -7.31202,3.586657 3.12981,4.076465 8.05751,4.571959 11.90519,1.197101 C 130.86623,36.810868 133,37.25293 133,39.073715 c 0,3.949347 -10.67353,6.032588 -15.57969,3.040817 z M 129.9682,29.25 C 129.73155,23.669323 119.8192,22.732279 116.98773,28.022918 115.98033,29.905276 116.26669,30 122.96482,30 c 3.86935,0 7.02087,-0.3375 7.00338,-0.75 z"
       id="path333" />
    <path
       style="fill:#999999"
       d="m 91.465282,43.048476 c -2.710524,-1.098682 -4.793,-3.709199 -3.992355,-5.004671 0.931296,-1.506869 2.601978,-1.285992 4.711238,0.622862 C 96.146267,42.25232 104,39.461195 104,34.467457 104,31.604797 102.74046,30.62312 95.676461,27.980138 85.878265,24.314164 84.17616,16.515019 92.013202,11.194873 c 5.538522,-3.7598046 18.798968,-0.578476 14.694998,3.525494 -1.36381,1.363814 -1.76465,1.353501 -3.83803,-0.09875 -4.129684,-2.89254 -9.439929,-1.883432 -10.946917,2.080245 -1.427393,3.754328 0.447069,5.961111 7.134629,8.399517 C 105.96632,27.620319 108,29.901922 108,35.133613 c 0,6.850414 -8.785564,11.055901 -16.534718,7.914863 z"
       id="path331" />
    <path
       style="fill:#999999"
       d="M 38.755662,42.245209 C 34.093733,39.354673 33,35.526319 33,22.098871 c 0,-6.833964 0.03616,-10.555716 0.09253,-11.925779 0.0156,-0.37908 2.423932,-0.163824 3.110093,-0.135253 0.454373,0.01892 0.189073,0.89865 0.490487,12.181776 0.117055,4.381841 0.312166,7.329947 0.691722,9.792174 0.594205,3.854685 2.094533,5.962105 4.001061,7.055396 1.71766,0.984985 5.336858,1.658364 8.046509,0.643289 1.358522,-0.583293 2.637342,-1.451502 3.331301,-2.596112 1.03486,-1.70689 1.151546,-3.875468 1.372473,-5.398443 0.187869,-1.331926 0.371266,-3.067547 0.373939,-5.198208 0.0064,-5.11772 0.122725,-9.114309 0.180514,-11.844933 0.05063,-2.392294 0.06459,-4.062484 0.500106,-4.661546 0.143474,-0.1973533 0.520014,-0.1625879 0.771431,-0.1625879 0.800388,0 2.097651,-0.3905161 2.102897,0.8948589 0.0267,6.541845 0.179462,23.262771 -1.816612,27.242586 -2.953616,5.888981 -11.50577,7.971249 -17.492784,4.25912 z"
       id="path299" />
    <path
       style="fill:#999999"
       d="m 248.51365,26.83036 c 0,-4.547084 0.0662,-7.659699 0.0807,-7.869492 0.90195,-0.03108 1.1371,0.0052 2.00375,-0.0012 -0.006,0.251419 -0.0411,3.16189 -0.0563,7.981178 -0.0134,4.118603 0.009,7.683491 -0.0133,8.027632 -1.01697,-0.0019 -1.07482,0.0084 -2.07256,-0.02031 -0.0505,-0.09304 0.0577,-3.674717 0.0577,-8.117811 z m 0,0 c 0,-4.547084 0.0662,-7.659699 0.0807,-7.869492 0.90195,-0.03108 1.1371,0.0052 2.00375,-0.0012 -0.006,0.251419 -0.0411,3.16189 -0.0563,7.981178 -0.0134,4.118603 0.009,7.683491 -0.0133,8.027632 -1.01697,-0.0019 -1.07482,0.0084 -2.07256,-0.02031 -0.0505,-0.09304 0.0577,-3.674717 0.0577,-8.117811 z"
       id="path345-7" />
  </g>
</svg>
