<?xml version="1.0" encoding="UTF-8" standalone="no"?>
<!-- Created with Inkscape (http://www.inkscape.org/) -->

<svg
   version="1.1"
   id="svg2102"
   width="96.639999"
   height="17.280001"
   viewBox="0 0 96.639999 17.280001"
   xmlns="http://www.w3.org/2000/svg"
   xmlns:svg="http://www.w3.org/2000/svg">
  <defs
     id="defs2106" />
  <g
     id="g2108">
    <path
       style="fill:#e6e6e6;stroke-width:0.32"
       d="M 83.839999,9.1200005 V 3.8400002 h 4.810278 c 7.601216,0 7.989722,0.3146672 7.989722,6.4712028 v 4.088798 h -1.589843 -1.589847 l -0.09015,-3.76 -0.09016,-3.7600006 -3.12,-0.091588 -3.12,-0.091588 v 3.8515886 3.851588 h -1.6 -1.6 z"
       id="path2610" />
    <path
       style="fill:#e6e6e6;stroke-width:0.32"
       d="m 72.100422,13.775928 c -1.463847,-0.892571 -1.700423,-1.549766 -1.700423,-4.7236881 0,-4.4784944 0.877635,-5.2122397 6.234387,-5.2122397 5.666052,0 6.565613,0.7234196 6.565613,5.2800003 0,4.6028445 -0.830022,5.2806675 -6.464109,5.2788045 -3.015776,-9.92e-4 -3.785107,-0.104374 -4.635468,-0.622877 z m 7.70534,-2.762099 c 0.282292,-0.735642 0.228813,-3.4238798 -0.07772,-3.9070593 -0.189901,-0.2993258 -1.04856,-0.3875322 -3.115101,-0.32 l -2.852938,0.093231 -0.09729,1.8841691 c -0.143991,2.7886782 -0.180858,2.7558312 3.093008,2.7558312 2.308925,0 2.893001,-0.09693 3.050041,-0.506172 z"
       id="path2608" />
    <path
       style="fill:#e6e6e6;stroke-width:0.32"
       d="m 58.660422,13.775928 c -1.465783,-0.893752 -1.700423,-1.549438 -1.700423,-4.7517355 0,-2.3569176 0.110285,-2.9980885 0.629156,-3.6577224 1.052899,-1.3385457 2.067753,-1.5526878 6.900032,-1.4559611 L 68.959999,4 v 1.2800001 1.2800001 l -4.32,0.16 -4.32,0.16 -0.09468,2.1623412 c -0.0917,2.0944846 -0.06739,2.1727156 0.774797,2.4929136 0.478208,0.181814 1.888813,0.288761 3.134675,0.237659 2.072416,-0.08501 2.273907,-0.154191 2.367459,-0.812913 0.09451,-0.665431 -0.0207,-0.72 -1.52,-0.72 -1.622256,0 -1.622256,0 -1.622256,-1.1200007 v -1.12 h 3.2 3.2 v 3.2000007 3.2 l -5.04,-0.0012 c -4.425984,-0.0011 -5.164214,-0.07693 -6.059577,-0.622877 z"
       id="path2606" />
    <path
       style="fill:#e6e6e6;stroke-width:0.32"
       d="M 45.564198,14.086379 C 44.581456,13.689307 43.52,12.205108 43.52,11.228048 c 0,-0.465104 0.224742,-1.166507 0.499424,-1.558673 0.928867,-1.3261438 2.110713,-1.6693745 5.748147,-1.6693745 3.064963,0 3.388816,-0.055087 3.292214,-0.5600001 -0.09387,-0.4906362 -0.641776,-0.5798182 -4.423462,-0.72 L 44.32,6.5600004 V 5.2800003 4.0000002 l 4.159999,-0.098066 c 4.666746,-0.1100118 6.214506,0.1978931 7.182832,1.4289226 0.585543,0.7443972 0.657168,1.2841473 0.657168,4.9522982 v 4.116846 l -5.04,-0.02028 c -2.772,-0.01115 -5.344111,-0.143158 -5.715801,-0.293338 z m 7.498057,-3.176198 c 0.09769,-0.640228 -0.03307,-0.67018 -2.925763,-0.67018 -2.372224,0 -3.067209,0.102123 -3.208966,0.471537 -0.288381,0.751512 0.520064,0.97194 3.369219,0.918643 2.438314,-0.04561 2.671891,-0.106424 2.76551,-0.72 z"
       id="path2604" />
    <path
       style="fill:#e6e6e6;stroke-width:0.32"
       d="M 36.48,10.57527 V 6.7505396 l -2,-0.09527 -2,-0.095269 L 32.3816,5.2000003 32.2832,3.8400002 H 37.9016 43.52 V 5.2800003 6.7200004 H 41.6 39.68 v 3.8400006 3.84 h -1.6 -1.6 z"
       id="path2602" />
    <path
       style="fill:#e6e6e6;stroke-width:0.32"
       d="M 23.140423,13.775928 C 21.676575,12.883357 21.44,12.226162 21.44,9.0522399 c 0,-4.5420995 0.841379,-5.2122397 6.544109,-5.2122397 H 31.68 v 1.4291739 1.4291741 l -3.44,0.090826 -3.44,0.090826 -0.09419,2.1411467 c -0.120382,2.7365241 0.105605,2.8765521 4.506846,2.7925741 l 3.267345,-0.06234 0.0984,1.324311 -0.101269,1.26441 -4.058732,0.0587 c -3.652019,-10e-4 -4.403583,-0.08972 -5.277976,-0.622877 z"
       id="path2600" />
    <path
       style="fill:#f8180c;fill-opacity:1;stroke-width:0.32"
       d="M 5.1041795,16.863176 C 3.839664,16.505623 1.28,15.181319 1.28,14.884645 c 0,-0.05674 0.7215446,0.171008 1.6034325,0.5061 2.2648682,0.860582 4.8672596,0.793564 6.9565674,-0.179149 C 10.764,14.781412 11.51962,14.386819 11.519156,14.334722 11.518708,14.282625 10.546693,14.223491 9.3591564,14.203313 6.9748582,14.1628 4.3993625,13.296707 2.6055646,11.932201 1.4484721,11.052024 0.00709148,8.3405816 0.00491067,7.0400004 7.9525439e-4,4.5856607 1.5791784,2.130572 3.9697024,0.87298357 5.9323091,-0.1594896 8.9695301,-0.10370035 10.928834,1.0008125 c 1.488835,0.8392964 1.488835,0.8392964 2.155059,0.1730723 0.666224,-0.66622403 0.666224,-0.66622403 1.551165,-0.00694 C 15.121776,1.529554 16.024,2.5272105 16.64,3.3839612 c 1.058075,1.471602 1.119926,1.6997764 1.118668,4.126884 -0.0012,2.243012 -0.120853,2.7852218 -0.942849,4.2711878 -0.517834,0.936118 -1.446664,2.145558 -2.064066,2.687644 -2.560925,2.248522 -6.6087371,3.252757 -9.6475735,2.393499 z M 11.416596,12.601473 C 14.031539,11.112599 14.889284,9.0535 13.935211,6.5552967 13.23651,4.7257728 11.81831,3.5200002 10.36517,3.5200002 c -2.7135634,0 -4.9251701,1.9580212 -4.9251701,4.3604435 0,0.7872365 0.2256461,1.8676909 0.5014362,2.4010093 0.2757898,0.533319 0.4557898,1.424533 0.4,1.980476 -0.090165,0.898486 0.00524,1.03226 0.8585638,1.203882 1.3750013,0.276543 2.6841664,0.0082 4.2165961,-0.864338 z M 7.3989263,2.5495184 C 8.1658415,2.3430095 9.4068213,2.2431984 10.156659,2.327716 11.810118,2.5140849 11.878308,2.3570539 10.410278,1.7436716 7.4001769,0.48597097 4.0283267,2.1473564 3.0519813,5.3692675 2.8872874,5.9127527 3.235223,5.6943011 4.4177622,4.5117619 5.4984489,3.4310751 6.449263,2.8052362 7.3989263,2.5495184 Z"
       id="path2233" />
  </g>
</svg>
