<?xml version="1.0" encoding="UTF-8" standalone="no"?>
<!-- Created with Inkscape (http://www.inkscape.org/) -->

<svg
   version="1.1"
   id="svg1889"
   width="618.1192"
   height="128"
   viewBox="0 0 618.1192 128"
   xmlns="http://www.w3.org/2000/svg"
   xmlns:svg="http://www.w3.org/2000/svg">
  <defs
     id="defs1893" />
  <g
     id="g1895"
     transform="translate(-9,-18)">
    <path
       style="fill:#785899;fill-opacity:1"
       d="M 185,49.554791 V 42 h -7.5 -7.5 v -5 -5 h 7.5 7.5 v -7 -7 h 5 5 v 7 7 h 7 7 v 5 5 h -6.95619 -6.95619 l -0.1765,7.425959 -0.0592,7.601919 -5.21923,0.07018 L 185,57.109582 Z"
       id="path2488" />
    <path
       style="fill:#f2f2f2"
       d="M 556,140.5 V 136 h 10.8 c 11.45032,0 13.2,-0.61833 13.2,-4.66482 C 580,128.19197 577.19552,127 569.80014,127 c -7.66617,0 -12.37728,-2.2219 -14.97287,-7.06166 -3.52173,-6.56664 -1.60495,-14.27393 4.47128,-17.97882 2.67314,-1.62991 5.05795,-1.95266 14.45145,-1.95578 L 585,100 v 4.5 4.5 h -10.3 c -10.57207,0 -12.7,0.69176 -12.7,4.12857 0,3.56667 2.79183,4.87143 10.42355,4.87143 8.52591,0 12.69337,2.15653 15.79878,8.17538 2.66474,5.16476 1.57211,10.22644 -3.25406,15.07462 l -2.06082,1.27953 -2.62607,0.93593 -3.63372,0.73337 -3.89527,0.42916 -4.30064,0.28906 L 556,145 Z"
       id="path2486" />
    <path
       style="fill:#f2f2f2"
       d="m 311.17589,143.86202 c -4.69624,-1.35289 -11.51947,-8.55642 -13.66772,-14.42952 -1.51848,-4.15134 -1.87691,-9.17826 -2.26327,-31.741664 l -0.45906,-26.809165 4.85708,0.309165 L 304.5,71.5 l 0.27631,26 c 0.27184,25.58007 0.31763,26.08516 2.83476,31.27292 1.89338,3.90222 3.56587,5.78686 6.43385,7.25 6.83653,3.48773 15.80734,2.11094 20.67128,-3.17251 C 339.39212,127.77117 340,123.57477 340,96.374273 V 71 h 4.84692 4.84693 l 0.16224,15.25 c 0.25076,23.57024 -1.11875,39.71417 -3.81151,44.93051 -5.0391,9.76162 -12.19828,13.84656 -24.04458,13.71953 -4.125,-0.0442 -8.99585,-0.51134 -10.82411,-1.03802 z"
       id="path2484" />
    <path
       style="fill:#785899;fill-opacity:1"
       d="m 133.29984,143.19274 c -7.68362,-2.73597 -13.20015,-6.99057 -17.32458,-13.36152 C 110.06473,120.7013 109.5,117.36096 109.5,91.530215 V 68.560431 l 9,-0.02242 9,-0.02242 0.5,23.492204 c 0.47512,22.323025 0.61449,23.676325 2.80041,27.191795 3.6205,5.82263 8.48831,8.30669 16.19959,8.26671 7.96992,-0.0413 12.0032,-2.00427 15.75427,-7.66745 L 165.5,115.65347 166,92.076735 166.5,68.5 h 9 9 l -0.01,23 c -0.009,21.45747 -0.16554,23.45361 -2.33604,29.76356 -2.94803,8.57034 -9.90924,16.49086 -17.95182,20.42573 -4.85763,2.37662 -7.12351,2.81946 -15.69009,3.06644 -7.76259,0.2238 -11.18108,-0.12742 -15.2127,-1.56299 z"
       id="path2482" />
    <path
       style="fill:#f2f2f2"
       d="m 601.26993,145.18306 c -1.22655,-0.17432 -3.13905,-1.4725 -4.25,-2.88486 C 595.17522,139.95304 595,138.27139 595,122.91219 c 0,-17.08298 0.25473,-23.114654 4.50044,-23.808066 0.95678,-0.156261 7.34841,-0.345111 14.30915,-0.343103 l 13.3096,0.0038 -0.3096,4.867569 L 626.5,108.5 l -11,0.0687 -11,0.0687 v 4.43133 4.43133 l 11.25,0.28275 11.25,0.28275 v 4.4345 4.4345 l -11.25,0.28275 -11.25,0.28275 -0.30587,4.21673 -0.30587,4.21672 11.30587,0.28328 L 626.5,136.5 v 4.40308 4.40308 l -11.5,0.0969 c -6.325,0.0533 -12.50353,-0.0457 -13.73007,-0.22002 z"
       id="path2480" />
    <path
       style="fill:#f2f2f2"
       d="m 465.89107,124.25 c 0.5288,-0.9625 3.46963,-4.20963 6.53519,-7.21584 L 478,111.56832 V 118.78416 126 h -6.53518 c -5.92358,0 -6.44521,-0.16378 -5.57375,-1.75 z"
       id="path2478" />
    <path
       style="fill:#f2f2f2"
       d="M 447.96208,143.4549 C 446.25036,140.82665 446,139.4485 446,120.81969 c 0,-19.80631 0.65674,-20.853054 2.36657,-22.907687 l 0.57123,-0.592467 0.38368,-0.353229 0.56643,-0.45572 0.41963,-0.264803 L 450.90909,96 h 40.85689 c 39.73484,0 40.917,0.056 43.04546,2.038955 C 536.9284,100.0112 537,100.76369 537,121.03896 c 0,19.62771 -0.12722,21.08826 -2,22.96104 -1.93563,1.93563 -3.33333,2 -43.42742,2 l -41.38726,-0.0374 -0.10274,-0.0301 -0.15215,-0.0628 -0.11205,-0.0622 -0.3725,-0.36387 -0.66704,-0.73465 z M 486,136.5 c 0,-3.06667 0.30952,-3.5 2.5,-3.5 2.19048,0 2.5,-0.43333 2.5,-3.5 0,-3.06667 -0.30952,-3.5 -2.5,-3.5 H 486 v -12 -12 h -4.89132 c -4.73217,0 -5.10208,0.21961 -11.36949,6.75 C 456.42139,122.62662 454,125.82403 454,129.53338 V 133 h 12 12 v 3.5 c 0,3.41667 0.0952,3.5 4,3.5 3.90476,0 4,-0.0833 4,-3.5 z m 18.21247,-5.72806 0.28753,-9.22807 6.5,9.18635 6.5,9.18636 5.28518,0.0417 c 6.26899,0.0495 6.32962,0.29273 -2.73116,-10.95829 -3.32198,-4.125 -6.04313,-7.74417 -6.04699,-8.0426 -0.004,-0.29843 3.14297,-4.26591 6.99297,-8.81663 3.85,-4.55071 7,-8.69404 7,-9.20739 C 528,102.42002 525.85661,102 523.23692,102 h -4.76309 l -6.98691,9.16759 -6.98692,9.16759 -0.28753,-9.16759 L 503.92495,102 H 499.96247 496 v 19 19 h 3.96247 3.96248 z"
       id="path2476" />
    <path
       style="fill:#f2f2f2"
       d="m 380,144.17636 c -6.64965,-2.47716 -15.15429,-11.30006 -17.85795,-18.52623 -6.03437,-16.12832 -2.65646,-35.900421 7.94438,-46.50127 6.02373,-6.023722 11.85223,-8.451685 21.50515,-8.958334 10.57389,-0.554987 16.60096,1.378893 23.42845,7.517391 8.00028,7.192943 11.94547,16.861991 11.9681,29.331983 0.0322,17.77166 -8.31264,31.85582 -21.94336,37.03509 -6.42255,2.44037 -18.63332,2.4898 -25.04477,0.10137 z m 21.5,-7.07621 c 5.21908,-2.42156 9.84259,-7.38221 12.67584,-13.60015 3.26389,-7.16302 3.34365,-23.793329 0.14731,-30.711756 C 409.19865,81.696363 401.37057,76.389898 391.35732,77.220275 383.01879,77.91177 377.28525,82.038946 373,90.434419 c -3.07454,6.023506 -3.54268,7.938587 -3.8511,15.754141 -0.40712,10.31685 1.27226,16.78598 6.10433,23.51453 5.93073,8.25839 17.41482,11.49492 26.24677,7.39706 z"
       id="path2474" />
    <path
       style="fill:#f2f2f2"
       d="m 227.5,145.18884 -3,-0.68884 v -36 c 0,-23.211057 0.36,-36.237045 1.01337,-36.667267 2.16636,-1.426463 22.09667,-2.051198 29.37067,-0.920651 10.55976,1.641229 16.32288,4.439742 22.05187,10.708173 6.27003,6.860411 8.42824,13.080446 8.4592,24.379745 0.0528,19.26667 -7.99191,31.47416 -24.37941,36.99471 -6.70851,2.25993 -27.34528,3.61093 -33.5157,2.19413 z m 30.75326,-9.18241 c 6.38278,-2.3881 11.80474,-7.65698 14.9279,-14.50643 1.88157,-4.1265 2.28326,-6.74699 2.29935,-15 0.0179,-9.192549 -0.21558,-10.424261 -2.8918,-15.254329 -1.6012,-2.889882 -4.3012,-6.304456 -6,-7.587944 C 260.24079,78.861682 249.075,76.34695 239.46114,77.548123 L 234,78.230447 V 108.11522 138 h 9.46249 c 7.00381,0 10.84695,-0.518 14.79077,-1.99357 z"
       id="path2472" />
    <path
       style="fill:#785899;fill-opacity:1"
       d="m 52.984398,144.15055 c -1.976791,-1.04924 -4.515081,-3.69015 -5.866523,-6.1037 C 45.008157,134.2791 9,34.873097 9,32.816649 9,32.367492 13.4096,32 18.799112,32 h 9.799111 l 1.144347,3.25 c 11.399755,32.375852 28.648246,80.56456 29.198298,81.574 0.423303,0.77683 5.355123,-11.62123 11.933684,-30 C 77.041275,69.5958 83.979751,50.213432 86.293388,43.752072 L 90.5,32.004144 l 9.75,-0.0021 c 5.3625,-0.0011 9.75,0.412945 9.75,0.920188 0,0.507243 -1.77123,5.794743 -3.93607,11.75 -2.16484,5.955257 -10.251251,28.540019 -17.969806,50.188361 -7.718555,21.648337 -15.156977,41.277287 -16.529826,43.619877 -4.129143,7.04585 -11.658745,9.34366 -18.5799,5.67005 z"
       id="path2316" />
  </g>
</svg>
