<?xml version="1.0" encoding="UTF-8" standalone="no"?>
<!-- Created with Inkscape (http://www.inkscape.org/) -->

<svg
   version="1.1"
   id="svg6814"
   width="523"
   height="124"
   viewBox="0 0 523 124"
   xmlns="http://www.w3.org/2000/svg"
   xmlns:svg="http://www.w3.org/2000/svg">
  <defs
     id="defs6818" />
  <g
     id="g6820">
    <path
       style="fill:#715192;fill-opacity:1"
       d="M 48.520043,107.58993 C 46.220092,105.15127 43.947586,100.37977 40.542577,90.839929 37.923832,83.502968 33.853554,72.1 31.497515,65.5 29.141476,58.9 24.465701,45.845845 21.106904,36.490767 17.748107,27.135688 15,19.148188 15,18.740767 15,18.333345 18.772923,18 23.384272,18 h 8.384273 l 5.995669,16.75 c 3.297618,9.2125 8.838873,24.732265 12.3139,34.488366 3.475028,9.756102 6.61936,17.251131 6.987406,16.65562 0.368046,-0.59551 6.016368,-16.113597 12.551827,-34.484638 L 81.5,18.007457 l 8.25,-0.0037 c 4.670151,-0.0021 8.25,0.417498 8.25,0.967018 0,0.53391 -3.64194,11.22141 -8.093199,23.75 C 85.455542,55.249336 78.894906,73.825 75.32761,84 c -8.614137,24.57011 -10.36965,27 -19.506586,27 -3.35249,0 -4.66149,-0.6114 -7.300981,-3.41007 z"
       id="path6941" />
    <path
       style="fill:#715192;fill-opacity:1"
       d="m 159,33 v -6 h -6 -6 V 22.5 18 h 6 6 V 12 6 h 3.9501 3.95009 l 0.29991,5.75 0.2999,5.75 5.75,0.299904 5.75,0.299904 V 22.549904 27 h -6 -6 v 6 6 h -4 -4 z"
       id="path7322" />
    <path
       style="fill:#999999"
       d="M 457,79 V 48 h 5.97012 5.97013 L 469.22012,60.75 469.5,73.5 480.45369,60.75 491.40737,48 h 6.91876 c 5.3878,0 6.70324,0.276596 5.94478,1.25 -6.02766,7.735832 -17.70513,21.900328 -18.41853,22.341233 -0.50338,0.311104 3.37391,8.827463 8.6162,18.925242 C 499.71086,100.61425 504,109.12896 504,109.43804 504,109.74712 501.15043,110 497.66763,110 h -6.33238 l -6.81203,-13.25 c -3.74662,-7.2875 -7.00908,-13.474526 -7.24991,-13.748947 -0.24083,-0.27442 -2.18742,1.52558 -4.32575,4 L 469.05968,91.5 469.02984,100.75 469,110 h -6 -6 z"
       id="path7320" />
    <path
       style="fill:#999999"
       d="m 438,106.08848 v -3.91153 l -10.92218,-0.33847 c -9.80735,-0.30393 -11.17495,-0.5762 -13.39852,-2.667459 -4.82693,-4.539693 -4.49236,-5.935444 7.05235,-29.421021 L 431.42321,48 h 6.79294 6.79295 L 434.5,69 423.9909,90 H 430.99545 438 v -8 -8 h 5.5 5.5 v 8 c 0,7.333333 0.16667,8 2,8 1.76163,0 2,0.666667 2,5.59362 0,4.75262 -0.3007,5.67225 -2,6.11663 -1.56687,0.40975 -2,1.36402 -2,4.40638 V 110 h -5.5 -5.5 z"
       id="path7318" />
    <path
       style="fill:#999999"
       d="M 353.65519,109.54135 C 330.34814,101.23125 330.22801,60.184957 353.47905,49.357645 373.64512,39.966911 392.5,54.048465 392.5,78.5 c 0,24.52681 -17.62162,38.60846 -38.84481,31.04135 z M 374.5,101.11778 c 16.95338,-11.471462 11.09106,-45.326158 -8.12467,-46.919676 -13.36984,-1.108731 -22.36994,10.691762 -21.14701,27.726934 1.31724,18.348782 16.14792,28.072902 29.27168,19.192742 z"
       id="path7316" />
    <path
       style="fill:#999999"
       d="M 302.41411,110.08333 C 302.18635,109.85417 302,95.791667 302,78.833333 V 48 h 4 4 V 75.5 103 h 13.5 13.5 v 3.45441 3.4544 l -17.08589,0.2956 c -9.39724,0.16257 -17.27224,0.10809 -17.5,-0.12108 z"
       id="path7314" />
    <path
       style="fill:#999999"
       d="m 252.19477,108.40977 c -22.35484,-11.139887 -19.9066,-51.846004 3.59996,-59.855494 21.78741,-7.423718 40.30934,9.450234 37.7733,34.412452 -2.26589,22.303222 -22.59119,34.802542 -41.37326,25.443042 z m 22.2055,-6.76233 c 19.7884,-10.895241 10.44082,-49.520115 -11.47469,-47.414311 -20.68312,1.987386 -23.42737,44.873379 -3.15724,49.339891 1.50241,0.33106 3.18166,0.75684 3.73166,0.94617 1.85472,0.6385 6.97477,-0.71041 10.90027,-2.87175 z"
       id="path7312" />
    <path
       style="fill:#999999"
       d="m 197.69854,109.32099 c -3.53279,-1.46457 -3.75422,-1.79663 -3.13318,-4.69847 0.88923,-4.15495 0.66576,-4.07251 6.05858,-2.23499 C 213.10864,106.6415 223,102.84017 223,93.788248 c 0,-5.03054 -2.52402,-7.701748 -10.90122,-11.536935 -9.67384,-4.428809 -13.95283,-7.657765 -15.70489,-11.851016 -6.32648,-15.141399 10.11115,-27.823376 28.80397,-22.222871 3.53978,1.060544 3.86689,1.4328 3.29525,3.75 -0.94952,3.848973 -1.98686,4.444705 -5.56657,3.19681 -11.75298,-4.097111 -22.20228,2.558089 -18.36087,11.69411 0.99059,2.355927 3.28665,3.988377 10.86453,7.724467 16.61639,8.192299 21.06171,18.934339 12.39501,29.952267 -4.85759,6.17542 -20.73602,8.71894 -30.12667,4.82591 z"
       id="path7310" />
    <path
       style="fill:#715192;fill-opacity:1"
       d="M 119.73447,109.91195 C 102.47615,105.84594 97.661587,96.839412 97.17287,67.706352 L 96.824049,46.912704 104.66202,47.206352 112.5,47.5 113,67 c 0.6094,23.766753 1.99563,26.856321 12.82702,28.58833 13.72361,2.194494 18.15866,-5.577918 18.1674,-31.83833 L 144,47 h 7.58594 7.58593 l -0.35964,21.25 c -0.38135,22.533232 -1.03062,25.710449 -6.59548,32.27523 -7.11071,8.38839 -20.40866,12.23123 -32.48228,9.38672 z"
       id="path7308" />
  </g>
</svg>
