<?xml version="1.0" encoding="UTF-8" standalone="no"?>
<!-- Created with Inkscape (http://www.inkscape.org/) -->

<svg
   version="1.1"
   id="svg628"
   width="776"
   height="174"
   viewBox="0 0 776 174"
   xmlns="http://www.w3.org/2000/svg"
   xmlns:svg="http://www.w3.org/2000/svg">
  <defs
     id="defs632" />
  <g
     id="g634">
    <path
       style="fill:#662f97"
       d="M 231,42.5 V 34 h -8.5 -8.5 v -6 -6 h 8.5 8.5 V 13.5 5 h 5.5 5.5 v 8.5 8.5 h 8.5 8.5 v 6 6 h -8.5 -8.5 v 8.5 8.5 h -5.5 -5.5 z"
       id="path1365" />
    <path
       style="fill:#cccccc"
       d="m 430,77.306019 c -2.5702,-0.918566 -4,-3.54302 -4,-7.342161 C 426,65.407251 428.46731,63 433.13761,63 c 5.20878,0 7.31694,2.019584 7.31694,7.009527 0,6.139359 -4.637,9.375633 -10.45455,7.296492 z"
       id="path1363" />
    <path
       style="fill:#cccccc"
       d="m 664,118 c 3.96654,-4.4 7.38922,-8 7.60595,-8 0.21673,0 0.39405,3.6 0.39405,8 v 8 h -7.60595 -7.60594 z"
       id="path1361" />
    <path
       style="fill:#cccccc"
       d="m 645,145.30736 c -4.90756,-1.85943 -5,-2.32092 -5,-24.96235 0,-20.01168 0.12493,-21.469942 2,-23.34501 1.93545,-1.93545 3.33333,-2 43.31144,-2 40.19228,0 41.37073,0.05524 43.5,2.038955 2.11624,1.971582 2.18856,2.727913 2.18856,22.889215 0,19.03592 -0.16628,21.05569 -1.9109,23.21105 l -1.9109,2.36078 -40.3391,0.18785 C 664.65259,145.79116 645.825,145.61994 645,145.30736 Z M 679,135 c 0,-2.53333 0.38889,-3 2.5,-3 2.09793,0 2.5,-0.4713 2.5,-2.93045 0,-2.27763 -0.50123,-3.00163 -2.25,-3.25 -2.16873,-0.30801 -2.26018,-0.74397 -2.53174,-12.06955 L 678.93653,102 h -4.79738 c -4.57957,0 -5.03002,0.26107 -9.92114,5.75 -2.81807,3.1625 -7.38899,8.225 -10.15761,11.25 -4.16022,4.54547 -5.03615,6.15082 -5.04712,9.25 L 649,132 h 11.5 11.5 v 3 c 0,2.7619 0.27778,3 3.5,3 3.22222,0 3.5,-0.2381 3.5,-3 z m 18,-15 v -18 h -3.5 -3.5 v 18 18 h 3.5 3.5 z m 23,17.4557 c 0,-0.29937 -2.925,-4.13786 -6.5,-8.52999 -3.575,-4.39212 -6.5,-8.35562 -6.5,-8.80777 0,-0.45215 3.15,-4.46136 7,-8.90936 3.85,-4.448 7,-8.33956 7,-8.64792 C 721,102.2523 718.9869,102 716.52645,102 c -4.45053,0 -4.50714,0.0445 -11,8.6525 -3.58955,4.75887 -6.52645,9.07633 -6.52645,9.59436 0,0.51802 2.73065,4.7244 6.06812,9.3475 6.0378,8.36363 6.09027,8.40564 10.5,8.40564 2.43753,0 4.43188,-0.24494 4.43188,-0.5443 z"
       id="path1359" />
    <path
       style="fill:#cccccc"
       d="M 455,121 V 89 h 4.93873 4.93872 l 0.66846,4.457559 0.66845,4.457559 3.25452,-3.450802 C 473.70942,89.968042 478.61037,88 485.56675,88 c 8.51593,0 11.71432,1.926435 18.17044,10.944309 0.17495,0.24437 1.65511,-1.177724 3.28924,-3.160208 C 511.13989,90.793764 517.32176,88 524.25062,88 c 9.26995,0 14.62671,3.226799 19.09096,11.5 2.01669,3.73735 2.179,5.62514 2.4718,28.75 l 0.31338,24.75 h -5.46545 -5.46545 l -0.39213,-21.75 c -0.42787,-23.7326 -1.08514,-26.96639 -6.31741,-31.0821 -4.08258,-3.211358 -11.34493,-2.9992 -15.44551,0.45122 C 507.25838,105.4847 507,106.78207 507,130.95034 V 153 h -6 -6 l -0.006,-20.75 c -0.006,-22.72714 -0.70606,-27.11548 -5.01177,-31.4212 C 487.62562,98.471777 486.31294,98 482.11172,98 c -4.17867,0 -5.62844,0.514786 -8.46587,3.00609 C 467.41268,106.47889 467,108.39732 467,131.90113 V 153 h -6 -6 z"
       id="path1357" />
    <path
       style="fill:#cccccc"
       d="M 427,121 V 89 h 6 6 v 32 32 h -6 -6 z"
       id="path1355" />
    <path
       style="fill:#cccccc"
       d="M 358,106 V 59 h 6.5 6.5 v 47 47 h -6.5 -6.5 z"
       id="path1353" />
    <path
       style="fill:#662f97"
       d="m 174.5,151.614 c -11.15926,-2.71374 -21.71435,-11.15635 -26.39375,-21.11135 -4.3169,-9.1838 -5.0758,-15.48662 -5.09147,-42.285401 L 143,62.934498 154.25,63.217249 165.5,63.5 166,91 c 0.33966,18.68151 0.88402,28.169 1.69755,29.58625 2.14541,3.73752 9.07296,9.25624 12.98167,10.34163 8.70332,2.41677 16.16487,0.58231 21.91574,-5.3881 C 208.44785,119.46346 209,116.18916 209,87.55718 V 63 h 11 11 v 26.289901 c 0,27.856219 -0.64851,33.180479 -5.10567,41.917229 -2.98717,5.85533 -10.98476,13.9841 -16.43793,16.70755 -9.95687,4.97269 -23.72748,6.42999 -34.9564,3.69932 z"
       id="path1351" />
    <path
       style="fill:#cccccc"
       d="m 576.05357,152.27224 c -5.13541,-1.81311 -12.78897,-9.02781 -15.35814,-14.47748 -2.52857,-5.36354 -3.99356,-14.49771 -3.29178,-20.52411 C 559.50587,99.218302 571.56162,88 588.85937,88 c 16.33726,0 27.21521,9.21712 30.24949,25.63104 3.03354,16.40996 -5.19081,33.26274 -18.69907,38.31683 -6.65126,2.48855 -17.8057,2.63711 -24.35622,0.32437 z m 21.83425,-10.3371 c 5.40008,-3.97562 8.35757,-10.06741 8.87997,-18.29085 1.00538,-15.82626 -6.37456,-26.649191 -18.16567,-26.640552 -11.57401,0.0085 -18.85037,9.231802 -18.88779,23.941662 -0.0115,4.53731 0.58024,8.95249 1.48169,11.0546 2.07542,4.83974 6.61624,9.99802 10.2544,11.64882 4.52296,2.05226 12.44377,1.22648 16.4374,-1.71368 z"
       id="path1349" />
    <path
       style="fill:#cccccc"
       d="m 397.05407,151.83064 c -7.03472,-4.77177 -7.51458,-6.69312 -7.88724,-31.58064 L 388.83366,98 h -4.97433 -4.97433 l 0.3075,-4.25 0.3075,-4.25 4.75,-0.304791 4.75,-0.304791 v -5.762587 -5.762587 l 5.33789,-1.682622 C 397.27373,74.75718 399.97373,74 400.33789,74 400.70205,74 401,77.375 401,81.5 V 89 h 8 8 v 4.5 4.5 h -8.05613 -8.05613 l 0.30613,21.09015 c 0.30171,20.78593 0.34018,21.11769 2.66691,23 1.58451,1.28185 3.92644,1.90985 7.1222,1.90985 h 4.7614 l 0.66098,4.1335 c 0.36353,2.27343 0.38526,4.40922 0.0483,4.7462 -0.33698,0.33698 -4.0644,0.76472 -8.28316,0.95054 -6.71454,0.29574 -8.09992,0.0465 -11.1164,-1.9996 z"
       id="path1347" />
    <path
       style="fill:#cccccc"
       d="m 296.88228,152.61942 c -8.73053,-3.11986 -14.2065,-8.62281 -17.72743,-17.8148 -1.38707,-3.62116 -1.69698,-9.58385 -1.95189,-37.55462 L 276.89993,64 H 282.94997 289 v 30.318499 c 0,33.080961 0.5927,37.667141 5.64377,43.670001 3.7327,4.43606 8.03051,6.33381 14.35623,6.33917 10.33868,0.009 17.70541,-6.06396 19.928,-16.42753 C 329.55325,124.98468 330,110.62816 330,93.450779 V 64 h 6 6 v 30.289901 c 0,24.131039 -0.31513,31.499759 -1.54983,36.240109 -2.96471,11.38227 -9.86928,18.98612 -20.01183,22.03858 -5.85982,1.76355 -18.68578,1.79123 -23.55606,0.0508 z"
       id="path1345" />
    <path
       style="fill:#662f97;fill-opacity:1"
       d="M 80.604322,152.96157 C 76.729402,151.80201 72.505354,147.61109 70.16244,142.60158 68.248728,138.50976 62.520318,122.89746 52.513181,94.5 49.605919,86.25 42.676118,66.766189 37.113625,51.202643 31.551131,35.639096 27,22.476596 27,21.952643 27,21.402916 31.993075,21 38.805489,21 h 11.805489 l 5.664759,15.75 c 3.115618,8.6625 10.859667,30.375 17.208998,48.25 6.349332,17.875 11.800134,33.175 12.112896,34 0.312761,0.825 4.085062,-8.4 8.38289,-20.5 C 98.27835,86.4 106.22844,64.125 111.64738,49 L 121.5,21.5 133.25,21.218265 c 9.58474,-0.229818 11.75,-0.02156 11.75,1.130109 0,1.346068 -3.30535,10.94977 -13.30289,38.651626 -2.48118,6.875 -8.20075,22.85 -12.71016,35.5 -14.8668,41.70505 -15.78983,44.21837 -17.30556,47.12153 -4.260856,8.16106 -12.627393,11.86858 -21.077068,9.34004 z"
       id="path755" />
  </g>
</svg>
