<?xml version="1.0" encoding="UTF-8" standalone="no"?>
<!-- Created with Inkscape (http://www.inkscape.org/) -->

<svg
   version="1.1"
   id="svg6162"
   width="471"
   height="136"
   viewBox="0 0 471 136"
   xmlns="http://www.w3.org/2000/svg"
   xmlns:svg="http://www.w3.org/2000/svg">
  <defs
     id="defs6166" />
  <g
     id="g6168">
    <path
       style="fill:#715192;fill-opacity:1"
       d="M 139.07454,48.990024 C 139.00893,48.511539 139,45.491667 139,42.833333 V 38 h -5 -5 v -4 -4 h 4.94774 l 5.337,-0.04866 0.059,-5.298657 0.059,-5.687913 3.70134,0.03023 L 147,18.879269 V 24.439635 30 h 5.5 5.5 v 4 4 h -5.5 -5.5 v 5.5 5.5 c -2.5002,0.01017 -5.55606,0.04818 -7.92546,-0.01 z"
       id="path6674" />
    <path
       style="fill:#999999"
       d="m 433.3997,108.23469 c -2.67006,-1.78285 -3.33616,-5.41305 -3.12176,-17.013317 0,0 0.24763,-8.04032 1.21983,-11.911304 0.19372,-0.771332 0.90722,-2.206643 0.90722,-2.206643 0,0 1.12948,-0.90953 1.80177,-1.140066 C 437.35821,74.8827 444.15499,75 444.15499,75 H 454 v 4 4 h -8 -8 v 2.383423 c 0,0.934836 0.0688,2.15529 0.0332,2.989827 1.00972,0.146671 5.0226,0.398961 10.5854,0.260617 L 454.00135,88.5 454.00067,92.25 454,96 h -8 -8 v 3 3 h 8 8 v 3.5 3.5 l -9.75,-0.0153 c -5.3625,-0.008 -10.24513,-0.34592 -10.8503,-0.75 z"
       id="path6672" />
    <path
       style="fill:#999999"
       d="m 402,105.54044 v -3.45956 l 8.1446,-0.29044 c 6.52034,-0.23252 8.36505,-0.64511 9.25,-2.068907 1.5678,-2.522413 -0.6729,-3.687333 -7.12882,-3.70622 0,0 -3.48559,-0.519392 -5.13101,-1.116296 C 406.0196,94.494474 403.98105,93.25 403.98105,93.25 399.9467,89.613078 399.17605,84.664502 401.95265,80.225074 404.58602,76.014654 407.4236,75 416.5651,75 H 424 v 4 4 h -7.53138 c -5.91564,0 -7.66041,0.336223 -8.13279,1.567217 -0.93762,2.443398 0.77087,3.380949 7.15031,3.923798 C 423.4083,89.165141 427,92.37658 427,98.785881 c 0,0 -0.31819,2.769929 -0.86014,4.033239 -0.52236,1.21762 -2.24562,3.27967 -2.24562,3.27967 0,0 -1.73183,1.54634 -2.7961,1.93785 -3.05067,1.12223 -9.7039,0.96336 -9.7039,0.96336 H 402 Z"
       id="path6670" />
    <path
       style="fill:#999999"
       d="M 345,95.440457 C 345,94.483307 352.37919,86 353.21176,86 353.64529,86 354,88.25 354,91 v 5 h -4.5 c -2.475,0 -4.5,-0.251794 -4.5,-0.559543 z"
       id="path6668" />
    <path
       style="fill:#999999"
       d="m 332.90731,106.94191 c -0.45448,-0.80241 -0.31006,-1.82036 -0.38714,-2.73931 -0.36234,-4.319694 -0.35069,-12.999871 -0.35069,-12.999871 0.23199,-9.056321 0.25796,-13.532074 1.22128,-14.690269 0,0 1.13912,-1.350781 1.85413,-1.374837 10.07328,-0.338916 27.77486,0.0083 27.77486,0.0083 15.2116,0 23.44396,-0.302449 26.93037,0.162639 1.14186,0.152324 1.63388,0.675386 1.84988,0.89139 0.20314,0.203143 0.67359,0.505256 0.7788,1.444059 0.63142,5.634288 0.39698,22.739859 0.17419,28.395299 -0.034,0.86255 -0.75615,1.5638 -0.95299,1.76064 -0.23717,0.23717 -0.73171,1.13173 -2.10744,1.1299 -3.77602,-0.005 -12.0884,0.0701 -26.86951,0.0701 0,0 -18.56289,0.0569 -27.70395,-0.26761 -0.91607,-0.0325 -1.74431,-0.96512 -2.21179,-1.79048 z M 359,102 c 0,-1.11111 0.66667,-2 1.5,-2 0.83333,0 1.5,-0.888889 1.5,-2 0,-1.111111 -0.66667,-2 -1.5,-2 H 359 v -8 -8 h -3.43578 -3.43578 l -6.81422,7.528309 c -4.14067,4.574588 -6.81059,8.399987 -6.80498,9.75 l 0.009,2.221691 7.74076,0.292064 7.74076,0.292066 v 1.95793 c 0,1.4218 0.68457,1.95794 2.5,1.95794 1.83333,0 2.5,-0.53333 2.5,-2 z M 371,92 V 80 h -2.5 -2.5 v 12 12 h 2.5 2.5 z m 14.38912,10.75 c -0.4009,-0.6875 -2.50068,-3.395043 -4.66617,-6.016763 l -3.93726,-4.766762 4.60716,-5.39273 C 383.92678,83.607744 386,80.915287 386,80.590508 c 0,-0.32478 -1.2375,-0.588793 -2.75,-0.586698 -2.15746,0.003 -3.68709,1.21712 -7.09908,5.63483 l -4.34909,5.631018 0.99156,2.115171 c 0.54535,1.163344 2.39276,4.027671 4.10535,6.365171 2.48509,3.39187 3.73019,4.25 6.16655,4.25 2.16428,0 2.8406,-0.3638 2.32383,-1.25 z"
       id="path6666" />
    <path
       style="fill:#999999"
       d="m 217.26992,112.73015 c -0.005,-0.79964 -0.18342,-13.403261 -0.0367,-28.24506 l 0.55872,-27.666288 c 2.68043,-0.197527 5.06891,0.286144 7.74933,0.08862 l 11.10386,17.831873 c 6.10713,9.80753 12.29293,20.178361 13.74622,23.046291 1.45329,2.867924 2.74726,5.214854 2.8755,5.215404 0.12823,5.4e-4 0.0971,-10.349459 -0.0691,-23.000001 L 252.89548,57 H 256.44774 260 V 85.5 114 h -3.84949 -3.84949 L 241.91372,97.25 C 236.2007,88.0375 229.83613,77.35 227.77023,73.5 l -3.75618,-7 0.0703,23.5 0.0703,23.5 c -2.35645,0.0619 -4.68364,0.0758 -6.85028,-0.0645 z"
       id="path6664" />
    <path
       style="fill:#999999"
       d="m 283,112.91909 c -8.65583,-3.91819 -13.01075,-9.94906 -14.96453,-20.723463 -3.28721,-18.127917 6.81075,-33.968856 22.86591,-35.870353 10.58339,-1.253446 20.60285,5.876441 24.88658,14.623527 0.72012,1.470443 1.17909,3.143795 1.45821,4.757633 0.53268,3.079875 1.14993,6.169461 1.24661,9.293566 0.0982,3.173252 -0.0743,6.383561 -0.68011,9.5 -0.33421,1.71932 -1.6155,5 -1.6155,5 -3.01785,6.55024 -6.57083,10.22085 -12.69639,13.11671 -6.37799,3.0152 -14.25046,3.13132 -20.5,0.30238 z m 16.94531,-5.89119 c 5.06642,-2.58469 7.73393,-6.11672 9.68295,-12.821096 3.16571,-10.889678 -0.28241,-24.155641 -7.52614,-28.955359 -4.08728,-2.708241 -12.62261,-3.067892 -17.15722,-0.72295 -3.97498,2.055541 -7.78865,8.35994 -9.14619,15.119589 -2.2762,11.33403 2.56946,23.796746 10.6861,27.483976 5.19389,2.35948 8.68432,2.33247 13.4605,-0.10416 z"
       id="path6662" />
    <path
       style="fill:#999999"
       d="M 179.31614,113.11028 C 174.12105,110.68491 170.36748,105.2107 169.0171,98.09015 168.45769,95.140429 168,84.688441 168,74.86351 V 57 h 3.92886 3.92886 l 0.33947,21.25 c 0.36013,22.5427 0.76393,24.64209 5.39852,28.06731 5.81418,4.29699 14.82122,2.46465 18.19834,-3.70215 0,0 0.87299,-2.12976 1.08665,-3.252783 C 202.18229,92.520965 202,78.5 202,78.5 l 0.63762,-21.550491 c 2.54788,-0.209765 4.95814,0.130962 7.50602,-0.0788 l -0.32182,21.314647 c 0,0 0.56852,14.383808 -0.8035,21.383458 -0.31451,1.604516 -1.67994,4.608516 -1.67994,4.608516 -3.13431,6.78202 -8.6722,10.18284 -17.22786,10.57964 -4.95151,0.22964 -7.66052,-0.18362 -10.79438,-1.64669 z"
       id="path6660" />
    <path
       style="fill:#715192;fill-opacity:1"
       d="m 105.14677,113.95379 c -6.0638,-1.2324 -12.307752,-5.1346 -15.425956,-9.64056 C 84.751771,97.132707 84,93.198434 84,74.374273 V 57 h 7 7 v 16.598871 c 0,18.0808 0.710555,21.181968 5.68517,24.812535 1.44045,1.051274 4.68807,2.088824 7.21692,2.305664 5.25557,0.45066 10.28543,-1.332896 13.27526,-5.890194 0,0 1.23873,-2.138739 1.32265,-3.231965 0.4652,-6.05994 0.3326,-17.297456 0.3326,-17.297456 L 126.16521,57 h 7.02704 7.02704 l -0.42983,18.25 c 0,0 0.19094,12.135147 -0.98032,18.043566 C 138.4172,95.270692 136.80904,99 136.80904,99 c -1.40283,3.025 -3.84625,6.71337 -5.42982,8.19639 -6.02732,5.64457 -17.35304,8.56204 -26.23245,6.7574 z"
       id="path6658" />
    <path
       style="fill:#715192;fill-opacity:1"
       d="m 41.614879,112.9117 c -1.460161,-1.14856 -3.273658,-3.28606 -4.029994,-4.75 C 36.160911,105.40551 10,31.943607 10,30.701169 10,30.315526 13.326855,30 17.393011,30 h 7.393011 l 0.693634,1.75 c 0.381499,0.9625 5.198023,14.575 10.703386,30.25 5.505364,15.675 10.334288,29.084884 10.730944,29.799741 0.417846,0.753048 5.369156,-11.865464 11.771539,-30 L 69.735872,30.5 77.367936,30.207936 C 81.565571,30.0473 85,30.15196 85,30.440512 85,31.093093 64.025149,90.483 59.803683,101.78342 56.269168,111.24495 52.790003,115 47.558133,115 c -1.820566,0 -4.473455,-0.93215 -5.943254,-2.0883 z"
       id="path6654" />
  </g>
</svg>
