<?xml version="1.0" encoding="UTF-8" standalone="no"?>
<!-- Created with Inkscape (http://www.inkscape.org/) -->

<svg
   version="1.1"
   id="svg7369"
   width="380"
   height="93"
   viewBox="0 0 380 93"
   xmlns="http://www.w3.org/2000/svg"
   xmlns:svg="http://www.w3.org/2000/svg">
  <defs
     id="defs7373" />
  <g
     id="g7375">
    <path
       style="fill:#715192;fill-opacity:1"
       d="M 110.77291,23 H 106.88646 103 v -3 -3 h 4 4 V 12.436642 7.873283 c 2.26382,7.182e-4 4.90238,0.029195 7.05517,0.016034 0.0126,2.957488 0.1001,5.819313 0.0545,9.001045 l 4.15592,0.06928 c 2.12558,0.03543 4.24977,-0.314303 4.28373,0.581314 0.0242,0.636825 0.006,1.824158 -0.016,2.640373 -0.0447,1.659631 0.13165,2.676473 -0.46859,2.751388 -0.96546,0.120501 -2.79138,0.157873 -4.71653,0.09172 L 118,22.909374 V 27.454687 32 h -2.93873 l -4.17529,-0.03926 c -0.0966,-3.098141 0.0228,-5.90186 -0.11307,-8.960744 z"
       id="path7881" />
    <path
       style="fill:#808080"
       d="m 343,69.146691 c 0,-7.61932 -0.28911,-16.61932 -0.64246,-20 L 341.71509,43 h 4.60624 4.60625 l 0.28621,9.685493 0.28621,9.685493 6.38213,-9.685493 L 364.26426,43 h 4.36787 c 2.84978,0 4.35344,0.434449 4.32635,1.25 -0.0228,0.6875 -2.68814,4.82927 -5.92288,9.203933 l -5.88136,7.953933 2.13525,3.046067 c 1.17438,1.675337 4.51468,6.284615 7.42288,10.242841 2.9082,3.958225 5.28763,7.445725 5.28763,7.75 C 376,82.751048 373.77039,83 371.04531,83 h -4.95469 L 358.79531,72.776263 351.5,62.552526 351.21502,72.776263 350.93003,83 H 346.96502 343 Z"
       id="path7879" />
    <path
       style="fill:#808080"
       d="m 327,79 v -4 h -9.37219 -9.37219 l -0.59961,-3.75 c -0.85962,-5.37612 -0.0417,-7.54239 6.59354,-17.462116 7.10892,-10.627949 8.94418,-12.008651 15.41394,-11.596208 L 334.5,42.5 334.78078,54.75 335.06156,67 h 1.96922 C 338.66154,67 339,67.687507 339,71 c 0,3.333333 -0.33333,4 -2,4 -1.66667,0 -2,0.666667 -2,4 v 4 h -4 -4 z m 0,-20.7 c 0,-4.951022 -0.37216,-8.290629 -0.86366,-7.75 -0.47501,0.5225 -3.18872,4.4375 -6.03047,8.7 L 314.93905,67 H 320.96953 327 Z"
       id="path7877" />
    <path
       style="fill:#808080"
       d="m 224.71277,84.379435 c -0.39202,-0.392023 -0.70289,-7.500268 -0.69081,-15.796102 0.0247,-16.950579 1.09787,-20.982039 6.88081,-25.848064 3.6156,-3.042332 9.50328,-5.095135 13.14118,-4.581822 L 246.5,38.5 l 0.30226,5.25 0.30226,5.25 h -3.87795 c -2.88172,0 -4.50073,0.665355 -6.30226,2.590006 0,0 -1.03349,1.441945 -1.28588,2.275956 C 234.1404,58.816216 234.5,69.340006 234.5,69.340006 V 84.5 l -4.53723,0.296102 c -2.49548,0.162855 -4.85798,-0.02465 -5.25,-0.416667 z"
       id="path7875" />
    <path
       style="fill:#808080"
       d="m 134,84.606253 c 0,-0.242535 3.59817,-8.015662 7.99594,-17.273613 4.39777,-9.257952 7.99777,-17.424523 8,-18.147935 0.003,-0.994063 -1.88871,-1.25889 -7.74594,-1.084342 L 134.5,48.331315 134.19521,43.665658 133.89042,39 h 16.05479 C 158.77534,39 166,39.257509 166,39.572242 c 0,0.314733 -3.59104,8.302233 -7.98008,17.75 L 150.03984,74.5 l 8.97041,0.287398 8.97042,0.287398 0.59254,2.360889 c 0.3259,1.298489 0.44275,3.41916 0.25967,4.712602 L 168.5,84.5 151.25,84.773614 C 141.7625,84.924102 134,84.848789 134,84.606253 Z"
       id="path7873" />
    <path
       style="fill:#715192;fill-opacity:1"
       d="M 80.491423,83.135018 C 75.102238,80.686764 70.406968,75.109504 68.593141,69.001686 67.666826,65.882443 67.036633,59.142024 66.932294,51.237592 L 66.764157,38.5 72.382078,38.200096 c 3.089857,-0.164947 5.65159,0.06005 5.69274,0.5 0.04115,0.439947 0.390616,7.260009 0.776592,15.155694 0,0 0.02718,9.845761 1.800949,14.316533 0.446362,1.125054 2.14001,2.933467 2.14001,2.933467 4.295097,3.837668 10.75367,4.047414 14.901867,0.483947 0,0 1.391912,-1.539241 1.745847,-2.488776 C 101.2261,64.309424 101,53.839737 101,53.839737 l 0.22521,-15.280853 c 3.44642,0.0549 8.30416,-0.03904 11.57877,0.185074 0.16626,0.166261 0.1805,6.068387 0.19666,12.950086 0.0352,14.995496 -0.82077,20.992238 -5.8855,26.60522 -1.98833,2.203562 -5.06319,4.612685 -6.83302,5.353607 -4.638754,1.941961 -14.971202,1.671597 -19.790697,-0.517853 z"
       id="path7871" />
    <path
       style="fill:#808080"
       d="M 263.64846,84.973374 C 247.16723,80.033293 241.4263,57.545468 253.54733,45.406187 257.51836,41.429183 264.90314,38 269.49664,38 c 8.00867,0 17.57563,6.220159 21.43581,13.936936 9.18552,18.362534 -7.76514,38.887014 -27.28399,33.03644 z m 14.32809,-11.793668 c 3.91919,-2.908205 5.15129,-6.076548 4.71688,-12.129508 0,0 -0.40638,-3.670935 -1.22386,-5.28325 -0.6896,-1.360095 -2.98502,-3.46675 -2.98502,-3.46675 -11.5071,-9.947104 -27.65258,4.171054 -19.21462,16.801917 4.48264,6.710103 12.73486,8.508887 18.70662,4.077591 z"
       id="path7869" />
    <path
       style="fill:#808080"
       d="m 188.05234,84.83 c -14.45138,-4.148151 -22.15379,-22.449325 -14.75893,-35.067697 4.70661,-8.031229 11.27405,-11.777566 20.57871,-11.738946 10.84697,0.04502 20.71007,8.28214 23.19093,19.367766 1.99398,8.910032 2.40299,8.699547 -16.29121,8.383751 L 184.5,65.5 184.18963,61.75 183.87927,58 h 11.56036 C 201.79784,58 207,57.610686 207,57.134859 c 0,-1.632141 -4.17737,-6.175219 -7.03864,-7.654839 -6.55874,-3.391657 -15.26443,-0.575811 -18.3549,5.936872 -2.16651,4.565578 -2.02394,7.34516 0.64354,12.547226 3.9948,7.790573 12.29678,10.1899 19.15486,5.535882 2.70366,-1.83475 5.00264,-2.5 8.63955,-2.5 6.49317,0 6.53917,1.841307 0.19869,7.952715 -6.68001,6.438678 -13.72998,8.305883 -22.19076,5.877287 z"
       id="path7867" />
    <path
       style="fill:#715192;fill-opacity:1"
       d="M 35.096399,84.75942 C 33.774418,84.066739 31.870672,82.375 30.865851,81 29.135906,78.632736 6,19.07087 6,16.984503 6,16.443026 8.6666702,16 11.925934,16 h 5.925934 l 3.923235,10.25 c 2.157779,5.6375 6.531424,17.137185 9.719211,25.554855 3.187787,8.41767 6.136442,14.94267 6.552566,14.5 C 38.463004,65.862185 42.308478,54.7 46.592378,41.5 c 4.2839,-13.2 8.161638,-24.256822 8.617196,-24.570717 0.755287,-0.520417 10.947379,-0.07687 11.546921,0.502505 0.263026,0.25418 -16.659458,52.708222 -19.443791,60.269253 -2.495887,6.777736 -7.373441,9.595906 -12.216305,7.058379 z"
       id="path7863" />
  </g>
</svg>
