<?xml version="1.0" encoding="UTF-8" standalone="no"?>
<!-- Created with Inkscape (http://www.inkscape.org/) -->

<svg
   version="1.1"
   id="svg1076"
   width="429"
   height="103"
   viewBox="0 0 429 103"
   xmlns="http://www.w3.org/2000/svg"
   xmlns:svg="http://www.w3.org/2000/svg">
  <defs
     id="defs1080" />
  <g
     id="g1082">
    <path
       style="fill:#999999"
       d="M 6.9991279,46.269132 6.9982558,41.5 29.554828,41.786792 52.1114,42.073584 51.8057,46.286792 51.5,50.5 29.25,50.769132 7,51.038263 Z"
       id="path1611" />
    <path
       style="fill:#999999"
       d="M 353.75,76.968838 C 355.93381,76.091052 356,75.65072 356,62 c 0,-13.65072 -0.0662,-14.091052 -2.25,-14.968838 -1.59927,-0.642828 0.35292,-0.918458 6.75,-0.953034 7.87565,-0.04257 8.68768,0.108763 6.5,1.211342 -2.16302,1.090154 -2.54042,2.031697 -2.7999,6.985259 L 363.90019,60 H 369.4501 375 v -6.032224 c 0,-5.321006 -0.26528,-6.138855 -2.25,-6.936614 -1.59927,-0.642828 0.35292,-0.918458 6.75,-0.953034 7.88356,-0.04261 8.68988,0.10801 6.5,1.214199 -2.42997,1.227471 -2.50811,1.598195 -2.7896,13.235258 -0.34128,14.108921 0.0358,16.18789 3.04125,16.766898 1.23659,0.238234 -1.80165,0.465911 -6.75165,0.505949 -6.29649,0.05093 -8.32412,-0.198874 -6.75,-0.831594 2.0114,-0.808485 2.25,-1.597089 2.25,-7.436614 V 63 h -5.54772 -5.54771 l 0.29771,6.224876 c 0.26257,5.489956 0.59287,6.373679 2.79772,7.485258 2.18799,1.103079 1.37675,1.254311 -6.5,1.211738 -6.39708,-0.03458 -8.34927,-0.310206 -6.75,-0.953034 z"
       id="path1609" />
    <path
       style="fill:#999999"
       d="m 390,78.668662 c 0,-0.269637 1.92233,-1.420833 4.27184,-2.558214 C 398.12937,74.243054 402,69.777609 402,67.194685 c 0,-0.548202 -1.63261,-0.950453 -3.62803,-0.89389 -8.17026,0.231594 -11.60424,-12.263596 -4.94463,-17.991953 12.37357,-10.643294 23.91491,12.571877 11.85933,23.854777 C 401.23259,75.957854 390,80.737737 390,78.668662 Z m 12.79345,-21.264264 c 0.30912,-6.399941 -2.08746,-11.576791 -4.6315,-10.00449 -1.46947,0.908181 -1.54078,12.023723 -0.0945,14.726164 2.17006,4.054789 4.41017,1.816715 4.72598,-4.721674 z"
       id="path1607" />
    <path
       style="fill:#999999"
       d="m 280,78 c -1.65713,-1.65713 -2,-3.333333 -2,-9.777494 C 278,55.794311 277.66137,56 298.12245,56 c 9.81241,0 17.82743,0.437992 18.94329,1.035184 1.65567,0.886087 1.93426,0.69885 1.93426,-1.3 C 319,51.284983 317.7241,51 297.8,51 H 279 V 46.5 42 h 21.77749 C 330.28608,42 330,41.770425 330,65.45034 V 80 h -5.5 c -3.12462,0 -5.5,-0.447082 -5.5,-1.035184 0,-0.713578 -0.60093,-0.713578 -1.93426,0 C 313.11451,81.079452 282.27675,80.276749 280,78 Z m 36.52707,-9.043805 C 318.35067,66.005557 314.79661,65 302.54422,65 c -13.12098,0 -13.58927,0.11171 -12.81883,3.057905 0.58156,2.223866 25.46695,3.05793 26.80168,0.89829 z"
       id="path1605" />
    <path
       style="fill:#999999"
       d="m 207.37614,78.537821 c -0.3086,-0.804199 -0.40698,-8.266747 -0.21862,-16.58344 0,0 -0.21953,-10.240465 1.49475,-14.943988 0.42768,-1.173435 2.11351,-3.093833 2.11351,-3.093833 7.72314,-6.897292 14.04615,-3.119076 23.23422,13.883243 3.025,5.597697 5.75584,10.182708 6.06854,10.188914 0.3127,0.0062 3.59473,-5.376879 7.2934,-11.962409 C 254.7592,42.855394 256.60224,41 262.28825,41 271.51879,41 273,44.249915 273,64.5026 V 80.104519 L 267.75,79.80226 262.5,79.5 262.21922,67.25 C 261.85776,51.4798 261.1271,51.498405 252.40094,67.5 L 245.58431,80 h -5.21836 -5.21836 l -6.57894,-11.75 c -3.61842,-6.4625 -7.02663,-12.425 -7.5738,-13.25 -1.99186,-3.003244 -2.96399,1.319829 -2.97954,13.25 L 218,80 h -5.03138 c -3.49202,0 -5.20306,-0.44736 -5.59248,-1.462179 z"
       id="path1603" />
    <path
       style="fill:#999999"
       d="M 116.4572,78.136964 C 110.93857,74.771603 110,72.205912 110,60.485523 110,42.211133 110.99552,41.5 136.57806,41.5 c 23.41506,0 23.77737,0.183226 24.2106,12.243833 C 161.20594,65.360143 161.88936,65 139.42857,65 122.34921,65 121,65.131783 121,66.8 c 0,3.853302 1.75,4.2 21.2,4.2 H 161 V 75.5 80 L 140.25,79.9963 C 121.80238,79.993 119.16238,79.786673 116.4572,78.137007 Z M 150.81955,53.75 C 150.35818,50.501429 122.78808,49.658937 121.0849,52.841364 119.49597,55.810308 120.40588,56 136.23622,56 c 14.88286,0 14.90245,-0.003 14.58333,-2.25 z"
       id="path1601" />
    <path
       style="fill:#999999"
       d="m 64.411303,78.109054 c -6.384441,-3.893194 -7.411992,-6.320823 -7.404714,-17.493913 0.0053,-8.103672 0.369235,-10.665105 1.830238,-12.880765 3.676889,-5.576125 4.088324,-5.668241 25.470671,-5.702573 L 104.115,42 103.8075,46.25 103.5,50.5 87.57077,50.776303 c -9.671146,0.167752 -16.448118,0.706942 -17.25,1.372445 -1.426397,1.183804 -1.868602,13.484931 -0.555457,15.451548 2.278606,3.412528 18.721939,4.957556 22.597983,2.123323 C 95.996719,67.066795 93.359294,65 86.335513,65 H 79.885004 L 80.192502,60.75 80.5,56.5 87.928433,56.202589 c 8.292802,-0.332018 12.174727,0.84181 15.105457,4.567629 3.95351,5.026065 1.76075,14.733259 -4.001157,17.712855 -4.703063,2.432048 -30.476367,2.153617 -34.62143,-0.374019 z"
       id="path1599" />
    <path
       style="fill:#999999"
       d="M 5.9234887,77.768099 C 5.8814075,76.520644 5.7050768,74.772809 5.5316426,73.88402 5.0689295,71.512779 5.5570732,71.041733 16.617949,63.186022 L 26.735899,56 h 8.13205 c 10.184432,0 10.139724,0.422301 -0.806847,7.621324 L 25.122205,69.5 39.311102,70 53.5,70.5 V 75 79.5 L 29.75,79.768099 6,80.036197 Z"
       id="path1597" />
    <path
       style="fill:#999999"
       d="m 195,39 c 0,-0.55 0.45,-1 1,-1 0.55,0 1,0.45 1,1 0,0.55 -0.45,1 -1,1 -0.55,0 -1,-0.45 -1,-1 z"
       id="path1595" />
    <path
       style="fill:#999999"
       d="m 179,39 c 0,-0.55 0.45,-1 1,-1 0.55,0 1,0.45 1,1 0,0.55 -0.45,1 -1,1 -0.55,0 -1,-0.45 -1,-1 z"
       id="path1593" />
    <path
       style="fill:#999999"
       d="m 164.03518,80.065741 c -1.47599,-2.757914 -1.28031,-8.821193 0.31518,-9.766051 0.7427,-0.439829 4.16963,-4.96219 7.6154,-10.04969 3.52031,-5.197549 6.96552,-9.25 7.86393,-9.25 2.41336,0 -0.33082,-2.457576 -5.85968,-5.247672 C 171.51525,44.513548 168.95486,42.375 168.28027,41 167.47228,39.353093 166.3755,38.604488 165.06615,38.806204 161.95882,39.284912 159,37.202202 159,34.536245 c 0,-3.441928 2.68735,-5.76223 5.87371,-5.071466 2.37134,0.514075 2.86898,0.06161 5.12629,-4.660902 3.80026,-7.95051 6.22414,-9.244908 17.05165,-9.105887 14.11414,0.181221 19.10316,4.720152 19.1345,17.408291 0.0173,6.99978 -2.11043,11.323072 -6.28972,12.779979 l -3.16434,1.103094 0.63567,9.755323 c 0.34961,5.365428 0.91398,12.567823 1.25414,16.005323 0.68523,6.924554 -0.38241,8.071341 -3.32841,3.575164 -1.39548,-2.129764 -1.69486,-4.42226 -1.46918,-11.25 L 194.10775,56.5 l -3.02203,6 c -7.32804,14.549249 -10.42539,14.58657 -12.62634,0.152139 l -0.58672,-3.84786 -3.93633,7.697083 C 171.77135,70.734758 170,75.241991 170,76.517435 c 0,5.378835 -3.78131,7.628231 -5.96482,3.548306 z M 188.28553,60.027316 C 194.88739,52.684459 195.08303,50 189.01632,50 c -7.12894,0 -9.35107,3.284034 -7.61228,11.25 1.05276,4.823034 1.52061,4.739908 6.88149,-1.222684 z M 184.82157,46.25 c -0.28664,-2.451284 0.0315,-2.784038 2.92843,-3.063358 3.02096,-0.291276 3.25,-0.09969 3.25,2.718615 0,2.458446 0.33103,2.914035 1.75,2.408487 5.33775,-1.901721 8.59629,-11.887415 4.25,-13.023995 -1.1,-0.287656 -2,-1.093044 -2,-1.789749 0,-1.312689 -3.02376,-2.466728 -6.5,-2.480768 -3.47802,-0.01405 -9.57544,2.049692 -8.96658,3.03484 0.57151,0.924722 -0.78193,1.345406 -3.28342,1.020574 -3.35491,-0.435654 -0.18022,9.459965 3.96679,12.36465 3.40793,2.387002 4.97562,1.982107 4.60478,-1.189296 z m 4.99027,0.01148 C 189.30983,43.654747 186,43.364033 186,45.926676 186,47.357775 186.64223,48 188.07332,48 c 1.4311,0 1.96962,-0.538516 1.73852,-1.738516 z M 174,40.059017 c 0,-1.067541 -0.45,-2.219098 -1,-2.559017 -0.56716,-0.350523 -1,0.489616 -1,1.940983 C 172,40.848442 172.45,42 173,42 c 0.55,0 1,-0.873442 1,-1.940983 z m 28.52545,-1.7418 C 201.82874,36.60658 201.74031,36.6173 201.0178,38.5 c -0.9321,2.428805 -0.17762,4.059819 1.22785,2.65435 0.56095,-0.560953 0.68686,-1.837663 0.2798,-2.837133 z"
       id="path1589" />
  </g>
</svg>
