<?xml version="1.0" encoding="UTF-8" standalone="no"?>
<!-- Created with Inkscape (http://www.inkscape.org/) -->

<svg
   version="1.1"
   id="svg2"
   width="429"
   height="103"
   viewBox="0 0 429 103"
   xmlns="http://www.w3.org/2000/svg"
   xmlns:svg="http://www.w3.org/2000/svg">
  <defs
     id="defs6" />
  <g
     id="g8">
    <path
       style="fill:#808080"
       d="M 7,46.519132 V 42 H 29.557498 52.114996 L 51.807498,46.25 51.5,50.5 29.25,50.769132 7,51.038263 Z"
       id="path1011" />
    <path
       style="fill:#808080"
       d="m 401.1843,68.25 c 2.83144,-4.8125 6.19828,-10.428558 7.48188,-12.480128 1.2836,-2.051571 2.33382,-3.964071 2.33382,-4.25 0,-1.32949 -10.74163,-0.389139 -12.91087,1.130251 -1.29573,0.907568 -2.17162,1.245068 -1.94642,0.75 0.22521,-0.495068 1.26857,-2.587623 2.31859,-4.650123 L 400.37042,45 h 8.31479 C 413.25835,45 417,45.253624 417,45.56361 417,47.389095 398.5542,77 397.41703,77 c -0.88736,0 0.4589,-3.126855 3.76727,-8.75 z"
       id="path1009" />
    <path
       style="fill:#808080"
       d="m 341.75365,75.777877 c 4.07137,-1.963309 10.77648,-27.182822 7.80522,-29.357291 C 347.82087,45.148658 348.43418,45 355.41965,45 c 7.74003,0 7.78385,0.01463 5.52347,1.844978 -2.02744,1.641715 -4.8872,8.550398 -4.92794,11.905022 -0.0103,0.848369 1.7292,1.25 5.41386,1.25 h 5.42904 l 1.57096,-5.403907 c 2.03499,-7.000127 1.99619,-7.489622 -0.67904,-8.564931 -1.60307,-0.644355 0.19396,-0.903155 6.25,-0.900095 6.69794,0.0034 8.03535,0.228831 6.30834,1.063397 -2.60375,1.258241 -2.56591,1.171667 -6.90196,15.788209 -4.04054,13.620395 -3.97705,12.852396 -1.15638,13.986165 1.61423,0.648839 -0.15181,0.918135 -6.25,0.953034 -7.36019,0.04212 -8.17724,-0.116998 -6.09308,-1.186614 2.24345,-1.151369 3.82625,-4.337815 5.45668,-10.985258 1.03837,-4.233537 -9.82395,-4.29959 -11.43222,-0.06952 -2.19014,5.760512 -2.32964,11.086342 -0.30402,11.606575 1.02995,0.264517 -1.72736,0.502685 -6.12736,0.529261 -6.45179,0.03897 -7.56386,-0.161995 -5.74635,-1.038441 z"
       id="path1007" />
    <path
       style="fill:#808080"
       d="m 279.90143,77.901432 c -2.51044,-2.510446 -2.53152,-17.235148 -0.029,-20.248723 C 281.47871,55.718426 315.33507,55.115101 316.5,57 c 1.11704,1.807414 2.5,1.045375 2.5,-1.377555 0,-4.430597 -1.66225,-4.792292 -21.45008,-4.667395 L 279,51.072133 V 46.536067 42 h 21.04966 C 330.02487,42 330,41.980527 330,65.45034 V 80 h -4.8 c -2.64,0 -5.34,-0.54 -6,-1.2 -0.93333,-0.933333 -1.46667,-0.933333 -2.4,0 -2.38845,2.388449 -34.39089,1.609114 -36.89857,-0.898568 z m 36.77567,-9.502357 c 1.04235,-2.716317 -1.72431,-3.367881 -14.36808,-3.383762 -12.17359,-0.01529 -14.08957,0.508211 -12.92902,3.532574 0.86752,2.260726 26.42594,2.121393 27.2971,-0.148812 z"
       id="path1005" />
    <path
       style="fill:#808080"
       d="m 208,63.088894 c 0,0 -0.90278,-12.142945 1.56688,-16.660406 0.35045,-0.641034 1.50985,-2.839594 1.50985,-2.839594 7.58508,-6.382428 12.88237,-3.135542 22.42327,13.743972 3.3,5.838275 6.24569,10.626765 6.54597,10.64109 0.30029,0.01432 3.3473,-4.885844 6.77113,-10.889262 7.91206,-13.873162 8.88789,-15.018238 13.41638,-15.74327 C 270.62715,39.67735 273,43.982204 273,64.5026 V 80.104519 L 267.75,79.80226 262.5,79.5 262,67.24381 c -0.275,-6.740904 -0.91825,-12.365904 -1.42946,-12.5 -1.01413,-0.266022 -5.32523,6.662234 -11.20434,18.00619 L 245.60883,80 h -5.15751 -5.15751 l -6.3969,-11.538056 C 218.37653,49.486411 218,49.455211 218,67.559017 V 80 h -5 -5 z"
       id="path1003" />
    <path
       style="fill:#808080"
       d="M 116.29855,78.040484 C 111.21889,74.943235 110,71.470771 110,60.096713 110,43.045327 111.60861,41.714038 132.8655,41.173113 157.93294,40.535221 161,42.006396 161,54.668353 161,65.243484 161.50585,65 139.53556,65 120.24241,65 117.72295,65.629323 121.89618,69.406044 123.37554,70.744851 126.64624,71 142.32874,71 H 161 V 75.5 80 L 140.25,79.9963 C 121.43387,79.9929 119.20163,79.810635 116.29855,78.040522 Z M 150.81955,53.75 C 150.40704,50.845455 123.36871,49.645875 121.05841,52.42962 118.56562,55.433249 120.95781,56 136.12857,56 c 14.99449,0 15.01019,-0.0024 14.69098,-2.25 z"
       id="path1001" />
    <path
       style="fill:#808080"
       d="M 65.5,78.588356 C 58.867084,75.640334 57.534566,72.900123 57.159396,61.436608 56.561578,43.169987 58.240276,42 85.047053,42 H 104 v 3.912142 3.912143 L 88.151322,50.162142 C 68.987338,50.570675 69,50.564216 69,59.931315 c 0,9.889672 0.707312,10.495995 12.722858,10.906295 8.065196,0.275406 10.127651,0.04744 11.193863,-1.237265 2.483336,-2.992236 0.583817,-4.483313 -6.116525,-4.801325 L 80.5,64.5 l 0.02281,-4 0.02281,-4 7.40562,-0.297411 c 8.269144,-0.33209 12.15394,0.844381 15.08264,4.567629 3.95351,5.026065 1.76075,14.733259 -4.001153,17.712855 C 95.137626,80.497311 69.972831,80.576321 65.5,78.588356 Z"
       id="path999" />
    <path
       style="fill:#808080"
       d="M 6.0372474,75.25 6.0744949,70.5 16.502744,63.25 26.930993,56 h 8.034503 c 9.975293,0 9.955675,0.156749 -0.938681,7.5 l -8.901525,6 13.937355,0.277457 L 53,70.054913 V 75.027457 80 H 29.5 6 Z"
       id="path997" />
    <path
       style="fill:#808080"
       d="m 195,39 c 0,-0.55 0.45,-1 1,-1 0.55,0 1,0.45 1,1 0,0.55 -0.45,1 -1,1 -0.55,0 -1,-0.45 -1,-1 z"
       id="path995" />
    <path
       style="fill:#808080"
       d="m 179,39 c 0,-0.55 0.45,-1 1,-1 0.55,0 1,0.45 1,1 0,0.55 -0.45,1 -1,1 -0.55,0 -1,-0.45 -1,-1 z"
       id="path993" />
    <path
       style="fill:#808080"
       d="m 164.65499,80.171259 c -2.0561,-2.271957 -2.21788,-9.018027 -0.23453,-9.779111 0.78126,-0.299796 4.01065,-4.555546 7.17643,-9.457224 3.16578,-4.901678 6.62675,-9.188518 7.69105,-9.526312 2.56008,-0.812539 0.55628,-2.93934 -5.5231,-5.86211 C 171.42364,44.420926 168.95198,42.375 168.27228,41 167.53268,39.503854 166.36111,38.633075 165.3546,38.831411 162.57955,39.378241 159,36.875109 159,34.387724 c 0,-2.823383 3.64773,-5.514242 6.50349,-4.797493 1.75799,0.441229 2.47703,-0.22693 4.06472,-3.777087 3.9477,-8.827264 6.20041,-10.036542 17.97771,-9.650606 9.36203,0.30679 10.54098,0.56469 12.97107,2.837462 7.86556,7.356381 7.5632,24.033384 -0.48661,26.839563 -3.52249,1.22795 -4.00945,6.90467 -1.9804,23.086688 1.17951,9.406753 0.27026,12.018331 -2.63863,7.578798 -1.3979,-2.133474 -1.73739,-4.545437 -1.59847,-11.356903 L 193.98926,56.5 l -2.48685,5 c -6.68608,13.442885 -11.17629,15.11486 -12.41346,4.622278 -0.77564,-6.578259 -1.69864,-8.514215 -2.62955,-5.515406 -0.32323,1.04122 -1.90882,4.425218 -3.52354,7.519995 C 171.32114,71.221644 170,74.89734 170,76.29508 c 0,5.630443 -2.26858,7.275604 -5.34501,3.876179 z M 185.5944,63.227764 c 2.93162,-2.418414 7.02396,-8.288805 7.68726,-11.027225 0.53216,-2.197026 0.3312,-2.286121 -4.5111,-2 -7.16667,0.423463 -9.40584,3.395508 -7.61183,10.103133 1.40782,5.263674 1.51443,5.333953 4.43567,2.924092 z M 185,46 c 0,-2.666667 0.33333,-3 3,-3 2.66667,0 3,0.333333 3,3 0,3.854651 1.38801,3.793474 5.05637,-0.222861 3.62306,-3.966741 4.13469,-9.65291 0.94363,-10.48739 -1.1,-0.287656 -2,-1.125137 -2,-1.861067 0,-0.735931 -1.51376,-1.622039 -3.36392,-1.96913 -4.23572,-0.794627 -12.22059,0.794922 -11.88608,2.366163 0.24371,1.144719 -0.96928,1.577558 -3.5,1.248931 -1.56683,-0.203462 -1.64444,4.290983 -0.12504,7.241095 C 179.58942,49.042425 185,51.288497 185,46 Z m 5,0 c 0,-1.333333 -0.66667,-2 -2,-2 -1.33333,0 -2,0.666667 -2,2 0,1.333333 0.66667,2 2,2 1.33333,0 2,-0.666667 2,-2 z m -16,-5.940983 c 0,-1.067541 -0.41157,-2.195344 -0.91459,-2.506231 -1.09602,-0.67738 -1.97744,1.439688 -1.33111,3.197214 0.71438,1.942609 2.2457,1.471436 2.2457,-0.690983 z m 29,-1.118034 C 203,37.873442 202.59814,37 202.10699,37 c -1.17436,0 -2.27181,2.924296 -1.54114,4.106554 0.8721,1.411085 2.43415,0.02139 2.43415,-2.165571 z"
       id="path857" />
  </g>
</svg>
