<?xml version="1.0" encoding="UTF-8" standalone="no"?>
<!-- Created with Inkscape (http://www.inkscape.org/) -->

<svg
   version="1.1"
   id="svg1076"
   width="419.16357"
   height="66.472672"
   viewBox="0 0 419.16357 66.472672"
   sodipodi:docname="zgemmah9combo.svg"
   xmlns:inkscape="http://www.inkscape.org/namespaces/inkscape"
   xmlns:sodipodi="http://sodipodi.sourceforge.net/DTD/sodipodi-0.dtd"
   xmlns="http://www.w3.org/2000/svg"
   xmlns:svg="http://www.w3.org/2000/svg">
  <sodipodi:namedview
     id="namedview16"
     pagecolor="#505050"
     bordercolor="#ffffff"
     borderopacity="1"
     inkscape:showpageshadow="0"
     inkscape:pageopacity="0"
     inkscape:pagecheckerboard="1"
     inkscape:deskcolor="#505050"
     showgrid="false" />
  <defs
     id="defs1080" />
  <path
     style="fill:#999999"
     d="m 1.5795322,30.580726 -8.721e-4,-4.769132 22.5565719,0.286792 22.556572,0.286792 -0.3057,4.213208 -0.3057,4.213208 -22.25,0.269132 -22.2499997,0.269131 z"
     id="path1611" />
  <path
     style="fill:#999999;fill-opacity:1"
     d="m 348.3304,61.280432 c 2.18381,-0.877786 2.25,-1.318118 2.25,-14.968838 0,-13.65072 -0.0662,-14.091052 -2.25,-14.968838 -1.59927,-0.642828 0.35292,-0.918458 6.75,-0.953034 7.87565,-0.04257 8.68768,0.108763 6.5,1.211342 -2.16302,1.090154 -2.54042,2.031697 -2.7999,6.985259 l -0.29991,5.725271 h 5.54991 5.5499 V 38.27937 c 0,-5.321006 -0.26528,-6.138855 -2.25,-6.936614 -1.59927,-0.642828 0.35292,-0.918458 6.75,-0.953034 7.88356,-0.04261 8.68988,0.10801 6.5,1.214199 -2.42997,1.227471 -2.50811,1.598195 -2.7896,13.235258 -0.34128,14.108921 0.0358,16.18789 3.04125,16.766898 1.23659,0.238234 -1.80165,0.465911 -6.75165,0.505949 -6.29649,0.05093 -8.32412,-0.198874 -6.75,-0.831594 2.0114,-0.808485 2.25,-1.597089 2.25,-7.436614 v -6.532224 h -5.54772 -5.54771 l 0.29771,6.224876 c 0.26257,5.489956 0.59287,6.373679 2.79772,7.485258 2.18799,1.103079 1.37675,1.254311 -6.5,1.211738 -6.39708,-0.03458 -8.34927,-0.310206 -6.75,-0.953034 z"
     id="path1609" />
  <path
     style="fill:#999999"
     d="m 274.5804,62.311594 c -1.65713,-1.65713 -2,-3.333333 -2,-9.777494 0,-12.428195 -0.33863,-12.222506 20.12245,-12.222506 9.81241,0 17.82743,0.437992 18.94329,1.035184 1.65567,0.886087 1.93426,0.69885 1.93426,-1.3 0,-4.450201 -1.2759,-4.735184 -21.2,-4.735184 h -18.8 v -4.5 -4.5 h 21.77749 c 29.50859,0 29.22251,-0.229575 29.22251,23.45034 v 14.54966 h -5.5 c -3.12462,0 -5.5,-0.447082 -5.5,-1.035184 0,-0.713578 -0.60093,-0.713578 -1.93426,0 -3.95123,2.114636 -34.78899,1.311933 -37.06574,-0.964816 z m 36.52707,-9.043805 c 1.8236,-2.950638 -1.73046,-3.956195 -13.98285,-3.956195 -13.12098,0 -13.58927,0.11171 -12.81883,3.057905 0.58156,2.223866 25.46695,3.05793 26.80168,0.89829 z"
     id="path1605" />
  <path
     style="fill:#999999"
     d="m 201.95654,62.849415 c -0.3086,-0.804199 -0.40698,-8.266747 -0.21862,-16.58344 0,0 -0.21953,-10.240465 1.49475,-14.943988 0.42768,-1.173435 2.11351,-3.093833 2.11351,-3.093833 7.72314,-6.897292 14.04615,-3.119076 23.23422,13.883243 3.025,5.597697 5.75584,10.182708 6.06854,10.188914 0.3127,0.0062 3.59473,-5.376879 7.2934,-11.962409 7.39726,-13.170914 9.2403,-15.026308 14.92631,-15.026308 9.23054,0 10.71175,3.249915 10.71175,23.5026 v 15.601919 l -5.25,-0.302259 -5.25,-0.30226 -0.28078,-12.25 c -0.36146,-15.7702 -1.09212,-15.751595 -9.81828,0.25 l -6.81663,12.5 h -5.21836 -5.21836 l -6.57894,-11.75 c -3.61842,-6.4625 -7.02663,-12.425 -7.5738,-13.25 -1.99186,-3.003244 -2.96399,1.319829 -2.97954,13.25 l -0.0153,11.75 h -5.03138 c -3.49202,0 -5.20306,-0.44736 -5.59248,-1.462179 z"
     id="path1603" />
  <path
     style="fill:#999999"
     d="m 111.0376,62.448558 c -5.51863,-3.365361 -6.4572,-5.931052 -6.4572,-17.651441 0,-18.27439 0.99552,-18.985523 26.57806,-18.985523 23.41506,0 23.77737,0.183226 24.2106,12.243833 0.41728,11.61631 1.1007,11.256167 -21.36009,11.256167 -17.07936,0 -18.42857,0.131783 -18.42857,1.8 0,3.853302 1.75,4.2 21.2,4.2 h 18.8 v 4.5 4.5 l -20.75,-0.0037 c -18.44762,-0.0033 -21.08762,-0.209627 -23.7928,-1.859293 z m 34.36235,-24.386964 c -0.46137,-3.248571 -28.03147,-4.091063 -29.73465,-0.908636 -1.58893,2.968944 -0.67902,3.158636 15.15132,3.158636 14.88286,0 14.90245,-0.003 14.58333,-2.25 z"
     id="path1601" />
  <path
     style="fill:#999999"
     d="m 58.991707,62.420648 c -6.384441,-3.893194 -7.411992,-6.320823 -7.404714,-17.493913 0.0053,-8.103672 0.369235,-10.665105 1.830238,-12.880765 3.676889,-5.576125 4.088324,-5.668241 25.470671,-5.702573 l 19.807502,-0.0318 -0.3075,4.25 -0.3075,4.25 -15.92923,0.276303 c -9.671146,0.167752 -16.448118,0.706942 -17.25,1.372445 -1.426397,1.183804 -1.868602,13.484931 -0.555457,15.451548 2.278606,3.412528 18.721939,4.957556 22.597983,2.123323 3.633423,-2.656824 0.995998,-4.723619 -6.027783,-4.723619 h -6.450509 l 0.307498,-4.25 0.307498,-4.25 7.428433,-0.297411 c 8.292802,-0.332018 12.174727,0.84181 15.105457,4.567629 3.953506,5.026065 1.76075,14.733259 -4.001157,17.712855 -4.703063,2.432048 -30.476367,2.153617 -34.62143,-0.374019 z"
     id="path1599" />
  <path
     style="fill:#999999"
     d="m 0.50389304,62.079693 c -0.0420812,-1.247455 -0.2184119,-2.99529 -0.3918461,-3.884079 -0.4627131,-2.371241 0.0254306,-2.842287 11.08630606,-10.697998 l 10.11795,-7.186022 h 8.13205 c 10.184432,0 10.139724,0.422301 -0.806847,7.621324 l -8.938897,5.878676 14.188897,0.5 14.188898,0.5 v 4.5 4.5 l -23.75,0.268099 -23.74999966,0.268098 z"
     id="path1597" />
  <path
     style="fill:#999999"
     d="m 189.5804,23.311594 c 0,-0.55 0.45,-1 1,-1 0.55,0 1,0.45 1,1 0,0.55 -0.45,1 -1,1 -0.55,0 -1,-0.45 -1,-1 z"
     id="path1595" />
  <path
     style="fill:#999999"
     d="m 173.5804,23.311594 c 0,-0.55 0.45,-1 1,-1 0.55,0 1,0.45 1,1 0,0.55 -0.45,1 -1,1 -0.55,0 -1,-0.45 -1,-1 z"
     id="path1593" />
  <path
     style="fill:#999999"
     d="m 158.61558,64.377335 c -1.47599,-2.757914 -1.28031,-8.821193 0.31518,-9.766051 0.7427,-0.439829 4.16963,-4.96219 7.6154,-10.04969 3.52031,-5.197549 6.96552,-9.25 7.86393,-9.25 2.41336,0 -0.33082,-2.457576 -5.85968,-5.247672 -2.45476,-1.23878 -5.01515,-3.377328 -5.68974,-4.752328 -0.80799,-1.646907 -1.90477,-2.395512 -3.21412,-2.193796 -3.10733,0.478708 -6.06615,-1.604002 -6.06615,-4.269959 0,-3.441928 2.68735,-5.76223 5.87371,-5.071466 2.37134,0.514075 2.86898,0.06161 5.12629,-4.660902 3.80026,-7.95051 6.22414,-9.24490796 17.05165,-9.10588696 14.11414,0.181221 19.10316,4.72015196 19.1345,17.40829096 0.0173,6.99978 -2.11043,11.323072 -6.28972,12.779979 l -3.16434,1.103094 0.63567,9.755323 c 0.34961,5.365428 0.91398,12.567823 1.25414,16.005323 0.68523,6.924554 -0.38241,8.071341 -3.32841,3.575164 -1.39548,-2.129764 -1.69486,-4.42226 -1.46918,-11.25 l 0.28344,-8.575164 -3.02203,6 c -7.32804,14.549249 -10.42539,14.58657 -12.62634,0.152139 l -0.58672,-3.84786 -3.93633,7.697083 c -2.16498,4.233396 -3.93633,8.740629 -3.93633,10.016073 0,5.378835 -3.78131,7.628231 -5.96482,3.548306 z M 182.86593,44.33891 c 6.60186,-7.342857 6.7975,-10.027316 0.73079,-10.027316 -7.12894,0 -9.35107,3.284034 -7.61228,11.25 1.05276,4.823034 1.52061,4.739908 6.88149,-1.222684 z m -3.46396,-13.777316 c -0.28664,-2.451284 0.0315,-2.784038 2.92843,-3.063358 3.02096,-0.291276 3.25,-0.09969 3.25,2.718615 0,2.458446 0.33103,2.914035 1.75,2.408487 5.33775,-1.901721 8.59629,-11.887415 4.25,-13.023995 -1.1,-0.287656 -2,-1.093044 -2,-1.789749 0,-1.312689 -3.02376,-2.466728 -6.5,-2.480768 -3.47802,-0.01405 -9.57544,2.049692 -8.96658,3.03484 0.57151,0.924722 -0.78193,1.345406 -3.28342,1.020574 -3.35491,-0.435654 -0.18022,9.459965 3.96679,12.36465 3.40793,2.387002 4.97562,1.982107 4.60478,-1.189296 z m 4.99027,0.01148 c -0.50201,-2.606733 -3.81184,-2.897447 -3.81184,-0.334804 0,1.431099 0.64223,2.073324 2.07332,2.073324 1.4311,0 1.96962,-0.538516 1.73852,-1.738516 z M 168.5804,24.370611 c 0,-1.067541 -0.45,-2.219098 -1,-2.559017 -0.56716,-0.350523 -1,0.489616 -1,1.940983 0,1.407459 0.45,2.559017 1,2.559017 0.55,0 1,-0.873442 1,-1.940983 z m 28.52545,-1.7418 c -0.69671,-1.710637 -0.78514,-1.699917 -1.50765,0.182783 -0.9321,2.428805 -0.17762,4.059819 1.22785,2.65435 0.56095,-0.560953 0.68686,-1.837663 0.2798,-2.837133 z"
     id="path1589" />
  <path
     style="fill:#999999;fill-opacity:1;stroke-width:1.01213"
     d="m 383.31813,61.251037 c 1.37715,-0.551444 2.52751,-8.88502 3.63069,-14.772299 l 2.00578,-10.704142 -1.43381,-1.131829 c -0.78859,-0.622505 -1.4338,-1.389739 -1.4338,-1.704964 0,-0.876221 7.08807,-3.055223 7.7509,-2.38277 0.32017,0.324815 -0.64396,6.824691 -2.14254,14.444168 l -2.72468,13.853594 -0.44635,2.42917 c 0,0 0.65903,-3.21e-4 0.63314,0.225016 -0.0419,0.364825 -0.5199,0.238968 -1.04422,0.231503 -0.67371,-0.0096 -1.42394,0.03189 -1.42394,0.03189 0,0 -1.5903,-0.08902 -2.96149,-0.04756 -0.39534,0.01196 -0.67218,0.0063 -0.84146,0.01111 -0.15349,0.0044 -0.2149,0.03467 -0.26396,-0.226945 -0.0388,-0.206678 0.0887,-0.175907 0.24944,-0.193593 0.19944,-0.02195 0.4463,-0.06235 0.4463,-0.06235 z"
     id="path1108" />
  <path
     style="fill:#999999;fill-opacity:1;stroke-width:1.01213"
     d="m 406.76019,61.189363 c -2.21346,-2.245545 -2.94164,-5.94072 -2.26283,-11.482662 1.91908,-15.667495 9.08753,-24.633301 13.21735,-16.531336 2.0529,4.027429 1.93128,9.342187 -0.4098,17.907235 -1.30823,4.786282 -2.80369,7.859489 -4.57797,9.407776 -3.12468,2.726705 -3.88071,2.815271 -5.96675,0.698987 z m 4.4288,-4.261343 c 1.66003,-5.878775 4.03898,-18.78783 4.03917,-21.918006 2.8e-4,-4.575041 -1.84516,-3.199085 -3.41821,2.548606 -3.26525,11.930784 -4.3273,23.192308 -2.1872,23.192308 0.26771,0 0.97252,-1.720308 1.56624,-3.822908 z"
     id="path437" />
</svg>
