<?xml version="1.0" encoding="UTF-8" standalone="no"?>
<svg
   version="1.1"
   width="533.34613"
   height="96"
   style="clip-rule:evenodd;fill-rule:evenodd;image-rendering:optimizeQuality;shape-rendering:geometricPrecision;text-rendering:geometricPrecision"
   id="svg690"
   viewBox="0 0 1066.6923 192"
   xmlns="http://www.w3.org/2000/svg"
   xmlns:svg="http://www.w3.org/2000/svg">
  <defs
     id="defs694" />
  <g
     id="g308"
     transform="translate(-18.807687,-3.5)"
     style="fill:#d8d8d8;fill-opacity:1">
    <path
       id="path306"
       style="opacity:0.961;fill:#d8d8d8;fill-opacity:1"
       d="m 1051.5,65.5 c 11.33,0 22.67,0 34,0 0,31 0,62 0,93 -11.33,0 -22.67,0 -34,0 0,-31 0,-62 0,-93 z m -282,-1 c 13.683,-2.7125 25.183,0.9542 34.5,11 2.455,4.031 4.121,8.3644 5,13 0.5,23.331 0.667,46.664 0.5,70 -8.667,0 -17.333,0 -26,0 0.395,-19.7 -0.105,-39.367 -1.5,-59 -4.577,-9.9424 -12.077,-12.7758 -22.5,-8.5 -2.933,2.2643 -5.1,5.0976 -6.5,8.5 -1.395,19.633 -1.895,39.3 -1.5,59 -8.667,0 -17.333,0 -26,0 0,-30.667 0,-61.3333 0,-92 8.667,0 17.333,0 26,0 -0.165,3.6817 10e-4,7.3484 0.5,11 4.778,-5.9504 10.611,-10.2838 17.5,-13 z m -119,0 c 28.597,-4.1916 46.764,7.4751 54.5,35 1.3,7.271 1.8,14.604 1.5,22 -21.344,-0.333 -42.677,0 -64,1 5.498,12.749 15.164,17.583 29,14.5 5.618,-1.807 10.618,-4.64 15,-8.5 6.145,4.316 11.312,9.316 15.5,15 -14.53,16.095 -32.364,21.262 -53.5,15.5 -17.896,-5.895 -28.73,-18.062 -32.5,-36.5 -3.541,-28.6225 7.959,-47.9559 34.5,-58 z m 5,23 c 13.675,-1.8284 22.008,4.005 25,17.5 -12.662,0.5 -25.329,0.667 -38,0.5 0.94,-8.579 5.273,-14.579 13,-18 z m -106,-23 c 26.305,-3.0253 42.972,8.1413 50,33.5 5.248,22.171 -0.419,40.837 -17,56 -14.024,7.844 -28.357,8.51 -43,2 -3.13,-2.128 -5.963,-4.628 -8.5,-7.5 -0.5,12.662 -0.667,25.329 -0.5,38 -8.667,0 -17.333,0 -26,0 0,-40 0,-80 0,-120 8.667,0 17.333,0 26,0 -0.165,3.6817 10e-4,7.3484 0.5,11 4.99,-6.2253 11.157,-10.5586 18.5,-13 z m -3,23 c 13.652,-1.7615 22.485,3.9052 26.5,17 3.386,14.713 -1.447,25.546 -14.5,32.5 -13.664,2.251 -22.498,-3.249 -26.5,-16.5 -3.251,-14.811 1.582,-25.8115 14.5,-33 z m 400,-49 c 11.667,0 23.333,0 35,0 0,30 0,60 0,90 19.33,0 38.67,0 58,0 0,10 0,20 0,30 -31,0 -62,0 -93,0 0,-40 0,-80 0,-120 z m -116,0 c 23.378,-0.4482 46.711,0.0518 70,1.5 28.012,8.9529 38.178,27.7862 30.5,56.5 -5.9,14.229 -16.4,23.062 -31.5,26.5 -11.279,1.383 -22.612,1.883 -34,1.5 0,11.333 0,22.667 0,34 -11.667,0 -23.333,0 -35,0 0,-40 0,-80 0,-120 z m 35,29 c 8.417,-0.4057 16.751,0.0943 25,1.5 8.374,5.7602 10.207,13.2602 5.5,22.5 -1.731,2.1166 -3.898,3.6166 -6.5,4.5 -7.915,1.4011 -15.915,1.9011 -24,1.5 0,-10 0,-20 0,-30 z m -458,-31 c 27.53,-3.7772 49.697,5.2228 66.5,27 8.892,14.4636 11.892,30.1303 9,47 -6.721,27.388 -23.888,43.888 -51.5,49.5 -31.151,4.504 -54.651,-6.662 -70.5,-33.5 -6.517,-16.748 -7.184,-33.7484 -2,-51 9.492,-21.4736 25.659,-34.4736 48.5,-39 z m 4,25 c 21.746,-2.076 35.913,7.2574 42.5,28 2.884,16.354 -1.95,29.854 -14.5,40.5 -17.801,9.404 -33.634,6.904 -47.5,-7.5 -8.406,-13.277 -9.739,-27.2767 -4,-42 5.373,-9.5554 13.206,-15.8888 23.5,-19 z m 639,-29 c 11.67,0 23.33,0 35,0 0,8.3333 0,16.6667 0,25 -11.67,0 -23.33,0 -35,0 0,-8.3333 0,-16.6667 0,-25 z" />
  </g>
  <g
     id="g688"
     transform="translate(-18.807687,-3.5)"
     style="fill:#fefffe;fill-opacity:1">
    <path
       id="path686"
       style="opacity:0.405;fill:#fefffe;fill-opacity:1"
       d="m 99.5,187.5 c 0.667,0 1,0.333 1,1 1.468,1.279 2.135,2.946 2,5 -2,0.667 -4,1.333 -6,2 0,-1 0,-2 0,-3 4,-0.667 4,-1.333 0,-2 -0.3543,-2.994 0.6457,-3.994 3,-3 z m 217,-6 c 1.603,-0.188 2.937,0.312 4,1.5 -1.713,1.378 -3.047,3.045 -4,5 -1.555,1.289 -3.221,1.956 -5,2 -0.951,-0.718 -1.117,-1.551 -0.5,-2.5 1.667,-1 3,-2.333 4,-4 0.333,0.333 0.667,0.667 1,1 0.483,-0.948 0.649,-1.948 0.5,-3 z m -215,-4 c 0.667,0 1,0.333 1,1 0,1 0,2 0,3 -0.667,0 -1,0.333 -1,1 -1.6042,-0.787 -2.2709,-2.12 -2,-4 0.667,-0.333 1.333,-0.667 2,-1 z m -2,1 c -0.6667,-1.333 -0.6667,-1.333 0,0 z m 3,-3 c 1,0 2,0 3,0 0.667,0 1,0.333 1,1 0,0.333 0,0.667 0,1 -0.667,0 -1,0.333 -1,1 -1,1.333 -2,1.333 -3,0 0,-0.667 -0.333,-1 -1,-1 0,-0.333 0,-0.667 0,-1 0.667,0 1,-0.333 1,-1 z m 186,-12 c 0.996,-0.086 1.829,0.248 2.5,1 1.438,1.4 2.271,3.067 2.5,5 1.846,-0.278 3.18,0.389 4,2 -2.984,2.484 -5.818,5.15 -8.5,8 -2.993,-2.693 -5.493,-5.693 -7.5,-9 0.667,0 1,-0.333 1,-1 1.333,0 2,-0.667 2,-2 0.667,0 1,-0.333 1,-1 1.333,0 2,-0.667 2,-2 0.667,0 1,-0.333 1,-1 z m 2,4 c 0,0.667 0,1.333 0,2 -2.667,-0.667 -2.667,-1.333 0,-2 z m -5,3 c 1.837,0.139 2.17,0.806 1,2 -0.798,-0.457 -1.131,-1.124 -1,-2 z m 6,0 c 1.837,0.139 2.17,0.806 1,2 -0.798,-0.457 -1.131,-1.124 -1,-2 z m -1,5 c -1.837,-0.139 -2.17,-0.806 -1,-2 0.798,0.457 1.131,1.124 1,2 z m -87,-12 c 0.667,0 1,0.333 1,1 0,1 0,2 0,3 -1.333,0 -2.667,0 -4,0 0,-1.333 0,-2.667 0,-4 1,0 2,0 3,0 z m 82,-3 c 2,0 3,1 3,3 -0.667,0 -1,0.333 -1,1 -0.667,0 -1.333,0 -2,0 -0.667,0 -1,-0.333 -1,-1 0,-0.667 0,-1.333 0,-2 0.667,0 1,-0.333 1,-1 z m -81,4 c 0,-0.667 -0.333,-1 -1,-1 0.707,-3.575 1.707,-3.742 3,-0.5 -0.336,1.03 -1.003,1.53 -2,1.5 z m -99,-6 c 0.333,0.667 0.667,1.333 1,2 -0.667,0 -1,0.333 -1,1 -2.994,0.354 -3.994,-0.646 -3,-3 1,-1.333 2,-1.333 3,0 z m 180,2 c -0.667,0 -1,0.333 -1,1 -2.667,0.667 -2.667,1.333 0,2 0,0.667 0.333,1 1,1 0,0.667 0,1.333 0,2 -0.667,0 -1,0.333 -1,1 -1.333,0 -2,0.667 -2,2 -0.667,0 -1,0.333 -1,1 -1.524,0.674 -2.858,1.674 -4,3 -1.219,-0.763 -2.219,-1.763 -3,-3 -1.32,2.486 -3.153,4.486 -5.5,6 -3.525,-2.715 -6.025,-6.048 -7.5,-10 1,0 2,0 3,0 0.501,-2.678 2.001,-4.678 4.5,-6 0.333,0.333 0.667,0.667 1,1 0.789,-5.31 3.289,-6.644 7.5,-4 2.405,-2.496 4.738,-2.329 7,0.5 0.752,0.671 1.086,1.504 1,2.5 z m -10,0 c -2.04,0.975 -2.373,0.308 -1,-2 0.798,0.457 1.131,1.124 1,2 z m 4,-2 c 2.473,0.447 2.64,1.447 0.5,3 -0.483,-0.948 -0.649,-1.948 -0.5,-3 z m -3,3 c 1.837,0.139 2.17,0.806 1,2 -0.798,-0.457 -1.131,-1.124 -1,-2 z m -9,3 c 1.175,-0.219 2.175,0.114 3,1 -1.552,1.298 -2.552,0.965 -3,-1 z m 6,0 c 1.837,0.139 2.17,0.806 1,2 -0.798,-0.457 -1.131,-1.124 -1,-2 z m 6,0 c 1.837,0.139 2.17,0.806 1,2 -0.798,-0.457 -1.131,-1.124 -1,-2 z m -3,3 c 1.837,0.139 2.17,0.806 1,2 -0.798,-0.457 -1.131,-1.124 -1,-2 z m -8,3 c 0.876,-0.131 1.543,0.202 2,1 -2.308,1.373 -2.975,1.04 -2,-1 z m -82,-15 c 1,0 2,0 3,0 0,1.333 0.667,2 2,2 0.667,0 1,0.333 1,1 0,1 0,2 0,3 -1,0 -2,0 -3,0 -0.667,0 -1,-0.333 -1,-1 0,-1.333 -0.667,-2 -2,-2 -0.667,0 -1,-0.333 -1,-1 0.333,-0.667 0.667,-1.333 1,-2 z m -87,0 c 1,0 2,0 3,0 0,1 0,2 0,3 -1,0 -2,0 -3,0 0,-1 0,-2 0,-3 z m 90,-3 c 1,0 2,0 3,0 0,1 0,2 0,3 -1,0 -2,0 -3,0 -0.333,-0.667 -0.667,-1.333 -1,-2 0.667,0 1,-0.333 1,-1 z m -6,0 c 1,0 2,0 3,0 0,1 0,2 0,3 -1,0 -2,0 -3,0 0,-1 0,-2 0,-3 z m -58,0 c 1,0 2,0 3,0 0.02,1.643 -0.647,2.976 -2,4 1.684,1.354 2.184,3.021 1.5,5 -3.098,3.607 -6.598,6.607 -10.5,9 -0.667,0 -1,-0.333 -1,-1 -1.333,0 -2,-0.667 -2,-2 -0.667,0 -1,-0.333 -1,-1 0,-0.667 0,-1.333 0,-2 0.667,0 1,-0.333 1,-1 1.333,0 2,-0.667 2,-2 0.667,0 1,-0.333 1,-1 1.703,1.16 2.369,0.493 2,-2 0.667,0 1,-0.333 1,-1 1.333,0 2,-0.667 2,-2 1,0 2,0 3,0 0,-1 0,-2 0,-3 z m 0,6 c 0.369,2.493 -0.297,3.16 -2,2 0,-1.333 0.667,-2 2,-2 z m -3,3 c -0.139,1.837 -0.806,2.17 -2,1 0.457,-0.798 1.124,-1.131 2,-1 z m -5,5 c 0.139,-1.837 0.806,-2.17 2,-1 -0.457,0.798 -1.124,1.131 -2,1 z m -15,-14 c 1,0 2,0 3,0 0.667,0 1,0.333 1,1 -0.333,0.667 -0.667,1.333 -1,2 -1,0 -2,0 -3,0 -0.333,-0.667 -0.667,-1.333 -1,-2 0.667,0 1,-0.333 1,-1 z m -6,0 c 1,0 2,0 3,0 0,1 0,2 0,3 -1,0 -2,0 -3,0 0,-1 0,-2 0,-3 z m 90,-3 c 1,0 2,0 3,0 0,1 0,2 0,3 -0.667,0 -1,0.333 -1,1 -0.667,-0.333 -1.333,-0.667 -2,-1 -1.333,-1 -1.333,-2 0,-3 z m 88,-1 c 3.595,1.405 3.762,3.072 0.5,5 -3.086,-1.502 -3.252,-3.169 -0.5,-5 z m -12,0 c 3.468,1.544 3.635,3.21 0.5,5 -1.788,-1.523 -1.955,-3.19 -0.5,-5 z m -70,10 c 0,-0.667 -0.333,-1 -1,-1 0.333,-0.667 0.667,-1.333 1,-2 2.485,-0.76 2.485,-1.76 0,-3 -1.333,-1 -1.333,-2 0,-3 2.354,-0.994 3.354,0.006 3,3 1,0 2,0 3,0 -0.17,1.322 0.163,2.489 1,3.5 -1.176,1.914 -2.176,1.748 -3,-0.5 -0.886,0.825 -1.219,1.825 -1,3 -1,0 -2,0 -3,0 z m -9,-9 c 1.333,1 1.333,2 0,3 -1,0 -2,0 -3,0 -1.333,-1 -1.333,-2 0,-3 1,-1.333 2,-1.333 3,0 z m -55,3 c -1.333,-1 -1.333,-2 0,-3 1.798,-0.963 3.132,-0.296 4,2 -1.228,1.676 -2.561,2.009 -4,1 z m -27,-4 c 0.667,0 1,0.333 1,1 0,1 0,2 0,3 -0.667,0 -1,0.333 -1,1 -0.667,-0.333 -1.333,-0.667 -2,-1 0,-1 0,-2 0,-3 0.667,-0.333 1.333,-0.667 2,-1 z m -7,0 c 0.6667,0.333 1.3333,0.667 2,1 1.3333,1 1.3333,2 0,3 -1,0 -2,0 -3,0 0,-1 0,-2 0,-3 0.6667,0 1,-0.333 1,-1 z m 193,1 c 0,-1 0,-2 0,-3 1.333,0 2.667,0 4,0 0,1 0,2 0,3 -1.333,0 -2.667,0 -4,0 z m -159,0 c -1,0 -2,0 -3,0 0,-1 0,-2 0,-3 1,0 2,0 3,0 0,1 0,2 0,3 z m -35,-3 c 0.6667,0 1,0.333 1,1 0,0.333 0,0.667 0,1 -0.6667,0 -1,0.333 -1,1 -1,0 -2,0 -3,0 0,-1 0,-2 0,-3 1,0 2,0 3,0 z m 194,3 c 1.067,2.379 0.067,3.379 -3,3 0,-1 0,-2 0,-3 -1.933,-0.229 -3.6,-1.062 -5,-2.5 -0.837,-1.011 -1.17,-2.178 -1,-3.5 1.333,0 2.667,0 4,0 0,1 0,2 0,3 2.164,0.221 3.83,1.221 5,3 z m -37,-6 c 1,0 2,0 3,0 0,1 0,2 0,3 1,0 2,0 3,0 0,1 0,2 0,3 -3.486,-0.164 -5.819,-1.831 -7,-5 0.667,0 1,-0.333 1,-1 z m 14,0 c 0.667,0 1,0.333 1,1 -0.194,2.412 -1.527,3.412 -4,3 -1.301,-2.172 -2.301,-4.505 -3,-7 2.488,0.183 4.488,1.183 6,3 z m -92,-3 c 0.667,0 1.333,0 2,0 0.667,0 1,0.333 1,1 1.333,0 2,0.667 2,2 0.667,0 1,0.333 1,1 0,1.333 0.667,2 2,2 0,1 0,2 0,3 -2.667,1 -2.667,2 0,3 0,1 0,2 0,3 1,0 2,0 3,0 0.333,1 1,1.667 2,2 0,0.667 0.333,1 1,1 -0.369,2.493 0.297,3.16 2,2 0,0.667 0.333,1 1,1 0.321,1.548 1.321,2.215 3,2 0,1.333 0,2.667 0,4 -1,0 -2,0 -3,0 0,1 0,2 0,3 -1,0 -2,0 -3,0 -2.135,7.561 -5.135,7.895 -9,1 0.419,-1.172 1.085,-2.172 2,-3 -2.579,-1.938 -2.579,-3.771 0,-5.5 -1.537,-1.11 -2.203,-2.61 -2,-4.5 -1,0 -2,0 -3,0 0,-1 0,-2 0,-3 1,0 2,0 3,0 0.149,-1.052 -0.017,-2.052 -0.5,-3 -1.367,1.024 -2.2,0.524 -2.5,-1.5 0.538,-2.102 1.538,-2.935 3,-2.5 -0.825,-0.886 -1.825,-1.219 -3,-1 -0.706,-2.172 -1.706,-4.172 -3,-6 0.667,0 1,-0.333 1,-1 z m 8,15 c -0.283,0.789 -0.783,1.456 -1.5,2 -0.528,-1.316 -0.028,-1.983 1.5,-2 z m 0,3 c 1,0 2,0 3,0 0.149,1.052 -0.017,2.052 -0.5,3 -0.667,-1.333 -1.333,-1.333 -2,0 -0.483,-0.948 -0.649,-1.948 -0.5,-3 z m 0,6 c 1.175,-0.219 2.175,0.114 3,1 -1.552,1.298 -2.552,0.965 -3,-1 z m 6,0 c 1.837,0.139 2.17,0.806 1,2 -0.798,-0.457 -1.131,-1.124 -1,-2 z m -6,6 c 1.175,-0.219 2.175,0.114 3,1 -1.552,1.298 -2.552,0.965 -3,-1 z m 85,-26 c 0,-0.667 -0.333,-1 -1,-1 0.732,-2.52 1.898,-4.854 3.5,-7 3.18,2.207 3.014,4.374 -0.5,6.5 1.293,0.49 2.627,0.657 4,0.5 -1.14,4.932 -3.14,5.265 -6,1 z m -146,5 c 0,-1 0,-2 0,-3 2.488,0.183 4.488,1.183 6,3 1.333,1 1.333,2 0,3 -1.644,0.31 -2.644,1.31 -3,3 -1.333,0 -2,0.667 -2,2 -0.667,0 -1,0.333 -1,1 -1.333,0 -2,0.667 -2,2 -0.667,0 -1,0.333 -1,1 -1.333,0 -2,0.667 -2,2 -0.667,0 -1,0.333 -1,1 -2.667,0.667 -2.667,1.333 0,2 0,0.667 0.333,1 1,1 0,1.333 0.667,2 2,2 0,0.667 0.333,1 1,1 0,1 0,2 0,3 -4.505,2.269 -8.172,5.602 -11,10 -1.189,0.929 -2.522,1.262 -4,1 0.271,1.88 -0.396,3.213 -2,4 0,-0.667 -0.333,-1 -1,-1 -0.1085,-2.014 0.558,-3.68 2,-5 0.667,0 1,-0.333 1,-1 1,0 2,0 3,0 0,-1 0,-2 0,-3 0.667,0 1,-0.333 1,-1 1.333,-0.333 1.333,-0.667 0,-1 0,-0.667 -0.333,-1 -1,-1 -1,-2.667 -2,-2.667 -3,0 -0.667,0 -1,0.333 -1,1 -1.6042,-0.787 -2.2709,-2.12 -2,-4 1.052,0.149 2.052,-0.017 3,-0.5 -0.333,-0.333 -0.667,-0.667 -1,-1 1.259,-0.923 2.592,-1.757 4,-2.5 -1.649,-0.648 -2.982,-1.648 -4,-3 1.579,-1.167 2.912,-2.5 4,-4 0.667,0 1,-0.333 1,-1 1.257,-1.123 0.924,-1.789 -1,-2 0,-1 0,-2 0,-3 1.924,-0.211 2.257,-0.877 1,-2 0,-0.667 -0.333,-1 -1,-1 0,-1 0,-2 0,-3 -1,0 -2,0 -3,0 0,-0.667 -0.333,-1 -1,-1 -1.123,-1.257 -1.7893,-0.924 -2,1 -1,0 -2,0 -3,0 0,-1.333 -0.6667,-2 -2,-2 0,-0.667 -0.3333,-1 -1,-1 0,-1 0,-2 0,-3 1,0 2,0 3,0 0,-1 0,-2 0,-3 4,-0.667 4,-1.333 0,-2 0,-1.333 0,-2.667 0,-4 1,0 2,0 3,0 0.3194,3.8 1.319,3.966 3,0.5 1,-0.667 2,-0.667 3,0 1.476,1.713 2.81,3.547 4,5.5 2.645,-4.173 4.312,-3.84 5,1 -4,0.667 -4,1.333 0,2 0,1 0,2 0,3 1,0 2,0 3,0 -0.215,1.679 0.452,2.679 2,3 z m -17,-11 c 1.175,-0.219 2.175,0.114 3,1 -1.552,1.298 -2.552,0.965 -3,-1 z m -3,5 c 0.1395,-1.837 0.806,-2.17 2,-1 -0.457,0.798 -1.124,1.131 -2,1 z m 0,0 c 0.219,1.175 -0.1143,2.175 -1,3 -1.1653,-1.36 -0.832,-2.36 1,-3 z m 5,0 c 0.904,0.709 1.237,1.709 1,3 -3.505,-0.194 -3.838,-1.194 -1,-3 z m 4,1 c 1.837,0.139 2.17,0.806 1,2 -0.798,-0.457 -1.131,-1.124 -1,-2 z m -7,4 c -0.667,0.333 -1.333,0.667 -2,1 0.2107,-1.924 0.877,-2.257 2,-1 z m 10,-1 c 2.501,0.011 2.668,0.678 0.5,2 -0.464,-0.594 -0.631,-1.261 -0.5,-2 z m -3,2 c 1.965,0.448 2.298,1.448 1,3 -0.886,-0.825 -1.219,-1.825 -1,-3 z m 6,0 c 1.965,0.448 2.298,1.448 1,3 -0.886,-0.825 -1.219,-1.825 -1,-3 z m 5,0 c 1,0 2,0 3,0 -0.589,3.797 -1.589,3.797 -3,0 z m -8,3 c 1.965,0.448 2.298,1.448 1,3 -0.886,-0.825 -1.219,-1.825 -1,-3 z m 6,0 c 1.965,0.448 2.298,1.448 1,3 -0.886,-0.825 -1.219,-1.825 -1,-3 z m -7,5 c -1.837,-0.139 -2.17,-0.806 -1,-2 0.798,0.457 1.131,1.124 1,2 z m 4,-2 c 1.837,0.139 2.17,0.806 1,2 -0.798,-0.457 -1.131,-1.124 -1,-2 z m -3,3 c 1.837,0.139 2.17,0.806 1,2 -0.798,-0.457 -1.131,-1.124 -1,-2 z m -3,3 c 1.837,0.139 2.17,0.806 1,2 -0.798,-0.457 -1.131,-1.124 -1,-2 z m -1,5 c -1.837,-0.139 -2.17,-0.806 -1,-2 0.798,0.457 1.131,1.124 1,2 z m 1,1 c 2.667,0.667 2.667,1.333 0,2 0,-0.667 0,-1.333 0,-2 z m -1,3 c -0.017,1.528 -0.684,2.028 -2,1.5 0.544,-0.717 1.211,-1.217 2,-1.5 z m 6,0 c -0.139,1.837 -0.806,2.17 -2,1 0.457,-0.798 1.124,-1.131 2,-1 z m -8,5 c -1,0 -2,0 -3,0 1,-2.667 2,-2.667 3,0 z m 3,0 c 0.139,-1.837 0.806,-2.17 2,-1 -0.457,0.798 -1.124,1.131 -2,1 z m 101,-49 c 1,0 2,0 3,0 0,1 0,2 0,3 -1,0 -2,0 -3,0 0,-1 0,-2 0,-3 z m -128,0 c 5.2741,0.945 8.6074,3.945 10,9 -1.3333,0 -2.6667,0 -4,0 0,-1 0,-2 0,-3 -1,0 -2,0 -3,0 0,-1 0,-2 0,-3 -1,0 -2,0 -3,0 0,-1 0,-2 0,-3 z m -5,0 c 4.0789,0.169 4.5789,1.169 1.5,3 -1.301,-0.139 -2.1344,-0.805 -2.5,-2 0.6667,0 1,-0.333 1,-1 z m 173,-4 c 0.667,0 1,0.333 1,1 0,1 0,2 0,3 -3.067,0.379 -4.067,-0.621 -3,-3 0.667,-0.333 1.333,-0.667 2,-1 z m -37,4 c 0,-1.333 0,-2.667 0,-4 1,0 2,0 3,0 0.157,1.373 -0.01,2.707 -0.5,4 -0.77,1.098 -1.603,1.098 -2.5,0 z m -5,-4 c 2.836,0.337 3.502,1.671 2,4 -0.667,0.333 -1.333,0.667 -2,1 -0.667,0 -1,-0.333 -1,-1 -1.333,-1 -1.333,-2 0,-3 0.667,0 1,-0.333 1,-1 z m -17,0 c 1.604,0.787 2.271,2.12 2,4 -0.667,0 -1,0.333 -1,1 -0.667,-0.333 -1.333,-0.667 -2,-1 -1.333,-1 -1.333,-2 0,-3 0.667,0 1,-0.333 1,-1 z m -28,0 c 0.667,0 1,0.333 1,1 0,1 0,2 0,3 -0.667,0 -1,0.333 -1,1 -0.667,-0.333 -1.333,-0.667 -2,-1 -1.333,-1 -1.333,-2 0,-3 0.667,-0.333 1.333,-0.667 2,-1 z m -5,1 c 1.333,1 1.333,2 0,3 -1,0 -2,0 -3,0 -1.333,-1 -1.333,-2 0,-3 1,-1.333 2,-1.333 3,0 z m -81,3 c -0.6667,0 -1,0.333 -1,1 -1.6042,-0.787 -2.2709,-2.12 -2,-4 2.3795,-1.067 3.3795,-0.067 3,3 z m 75,-6 c 1,0 2,0 3,0 0,1 0,2 0,3 -2.667,1 -2.667,2 0,3 0,1 0,2 0,3 1,-1.333 2,-1.333 3,0 0,-1 0,-2 0,-3 1,0 2,0 3,0 -0.369,2.493 0.297,3.16 2,2 0.667,0 1,0.333 1,1 0.31,1.644 1.31,2.644 3,3 1.333,0 2,0.667 2,2 0.667,0 1,0.333 1,1 1.333,0 2,0.667 2,2 0.667,0 1,0.333 1,1 0,0.667 0,1.333 0,2 -0.667,0 -1,0.333 -1,1 -1,0 -2,0 -3,0 -0.667,-2 -1.333,-4 -2,-6 -1,0 -2,0 -3,0 0,1 0,2 0,3 -1,0 -2,0 -3,0 0,1 0,2 0,3 -1,0 -2,0 -3,0 0,-1 0,-2 0,-3 -1.052,0.149 -2.052,-0.017 -3,-0.5 -1.674,-1.506 -2.674,-3.339 -3,-5.5 -1,0 -2,0 -3,0 -0.149,-1.052 0.017,-2.052 0.5,-3 0.667,-1.333 1.333,-1.333 2,0 0.167,-0.5 0.333,-1 0.5,-1.5 -1.511,-0.025 -2.511,-1.192 -3,-3.5 0.324,-2.069 1.158,-2.402 2.5,-1 0.483,-0.948 0.649,-1.948 0.5,-3 z m 3,6 c 1,0 2,0 3,0 0,1 0,2 0,3 -1,-1.333 -2,-1.333 -3,0 0,-1 0,-2 0,-3 z m 0,3 c -0.283,0.789 -0.783,1.456 -1.5,2 -0.528,-1.316 -0.028,-1.983 1.5,-2 z m 3,0 c 1.528,0.017 2.028,0.684 1.5,2 -0.717,-0.544 -1.217,-1.211 -1.5,-2 z m -3,3 c 1.175,-0.219 2.175,0.114 3,1 -1.552,1.298 -2.552,0.965 -3,-1 z m 8,2 c -1.837,-0.139 -2.17,-0.806 -1,-2 0.798,0.457 1.131,1.124 1,2 z m -11,-14 c -0.667,-1.333 -0.667,-1.333 0,0 z m 96,-3 c 1,0 2,0 3,0 0,1 0,2 0,3 -0.667,0 -1,0.333 -1,1 -1.333,0 -2,0.667 -2,2 -1,0 -2,0 -3,0 0,-1 0,-2 0,-3 1.333,0 2,-0.667 2,-2 0.667,0 1,-0.333 1,-1 z m -6,0 c 1,0 2,0 3,0 0.667,0 1,0.333 1,1 -0.333,0.667 -0.667,1.333 -1,2 -1,1.333 -2,1.333 -3,0 -0.333,-0.667 -0.667,-1.333 -1,-2 0.667,0 1,-0.333 1,-1 z m -84,0 c 0.667,0 1,0.333 1,1 -0.333,0.667 -0.667,1.333 -1,2 -1,1.333 -2,1.333 -3,0 -0.994,-2.354 0.006,-3.354 3,-3 z m 41,-3 c 0.667,0 1.333,0 2,0 0.667,0 1,0.333 1,1 0.321,1.548 1.321,2.215 3,2 0.221,2.164 1.221,3.83 3,5 -0.667,0 -1,0.333 -1,1 -2.667,1 -2.667,2 0,3 0,0.667 0.333,1 1,1 -0.787,1.604 -2.12,2.271 -4,2 0.149,-1.052 -0.017,-2.052 -0.5,-3 -0.333,0.333 -0.667,0.667 -1,1 -1.419,-3.217 -3.752,-5.55 -7,-7 -0.483,-0.948 -0.649,-1.948 -0.5,-3 1.679,0.215 2.679,-0.452 3,-2 0.667,0 1,-0.333 1,-1 z m 0,6 c 0.139,-1.837 0.806,-2.17 2,-1 -0.457,0.798 -1.124,1.131 -2,1 z m 3,2 c 0.577,-1.273 1.243,-1.273 2,0 -0.47,0.963 -1.137,0.963 -2,0 z m -11,0 c -0.667,0 -1,0.333 -1,1 -1,0 -2,0 -3,0 0,1 0,2 0,3 1,0 2,0 3,0 0,1 0,2 0,3 0.667,-0.333 1.333,-0.667 2,-1 0,-0.333 0,-0.667 0,-1 0.667,0 1,-0.333 1,-1 1,0 2,0 3,0 1.271,1.185 2.271,3.185 3,6 -1.175,-0.219 -2.175,0.114 -3,1 1.667,1 3,2.333 4,4 0.775,-1.975 2.109,-2.809 4,-2.5 1.957,1.746 2.957,3.912 3,6.5 -1,0 -2,0 -3,0 0.219,-1.175 -0.114,-2.175 -1,-3 -3.083,2.541 -5.416,5.541 -7,9 -1.679,-0.215 -2.679,0.452 -3,2 -1,0 -2,0 -3,0 -1.24,-2.485 -2.24,-2.485 -3,0 -1,0 -2,0 -3,0 -0.31,-1.644 -1.31,-2.644 -3,-3 -0.333,-1 -1,-1.667 -2,-2 0,-0.667 -0.333,-1 -1,-1 0,-1.333 -0.667,-2 -2,-2 0,-0.667 -0.333,-1 -1,-1 0,-1.333 -0.667,-2 -2,-2 0,-0.667 -0.333,-1 -1,-1 0,-1.333 -0.667,-2 -2,-2 0,-0.667 -0.333,-1 -1,-1 0,-1.333 -0.667,-2 -2,-2 0,-1 0,-2 0,-3 -1,0 -2,0 -3,0 0,-0.667 -0.333,-1 -1,-1 0,-0.333 0,-0.667 0,-1 0.667,0 1,-0.333 1,-1 1,0 2,0 3,0 0,-1 0,-2 0,-3 -1,0 -2,0 -3,0 0,-0.667 -0.333,-1 -1,-1 0,-0.333 0,-0.667 0,-1 0.667,0 1,-0.333 1,-1 1,0 2,0 3,0 0,-1 0,-2 0,-3 1.333,0 2,-0.667 2,-2 0.667,0 1,-0.333 1,-1 1.524,-0.674 2.858,-1.674 4,-3 2.559,1.957 2.226,3.623 -1,5 0.825,0.886 1.825,1.219 3,1 0.667,4 1.333,4 2,0 1,0 2,0 3,0 0,1 0,2 0,3 1,0 2,0 3,0 0,-1 0,-2 0,-3 1,0 2,0 3,0 0,1 0,2 0,3 1.185,-1.271 3.185,-2.271 6,-3 0.135,2.054 -0.532,3.721 -2,5 z m -20,-5 c 1.276,0.886 1.276,1.886 0,3 -1.062,-0.925 -1.062,-1.925 0,-3 z m -1,6 c 1.965,0.448 2.298,1.448 1,3 -0.886,-0.825 -1.219,-1.825 -1,-3 z m 6,0 c 1.965,0.448 2.298,1.448 1,3 -0.886,-0.825 -1.219,-1.825 -1,-3 z m 5,3 c 0,-1 0,-2 0,-3 1,0 2,0 3,0 0,1 0,2 0,3 -1,0 -2,0 -3,0 z m -14,0 c 0.789,0.283 1.456,0.783 2,1.5 -1.316,0.528 -1.983,0.028 -2,-1.5 z m 6,0 c 0.789,0.283 1.456,0.783 2,1.5 -1.316,0.528 -1.983,0.028 -2,-1.5 z m 17,0 c 0.667,0.333 1.333,0.667 2,1 0,0.333 0,0.667 0,1 -0.667,0.333 -1.333,0.667 -2,1 0,-1 0,-2 0,-3 z m -20,3 c 1.837,0.139 2.17,0.806 1,2 -0.798,-0.457 -1.131,-1.124 -1,-2 z m 6,0 c 1.837,0.139 2.17,0.806 1,2 -0.798,-0.457 -1.131,-1.124 -1,-2 z m 8,0 c -0.31,1.644 -1.31,2.644 -3,3 0,-1 0,-2 0,-3 1,0 2,0 3,0 z m 6,0 c -0.64,1.832 -1.64,2.165 -3,1 0.825,-0.886 1.825,-1.219 3,-1 z m 3,0 c 1.837,0.139 2.17,0.806 1,2 -0.798,-0.457 -1.131,-1.124 -1,-2 z m -20,3 c 1.837,0.139 2.17,0.806 1,2 -0.798,-0.457 -1.131,-1.124 -1,-2 z m 8,0 c -0.283,0.789 -0.783,1.456 -1.5,2 -0.528,-1.316 -0.028,-1.983 1.5,-2 z m 5,2 c -1.273,-0.577 -1.273,-1.243 0,-2 0.963,0.47 0.963,1.137 0,2 z m 6,0 c -1.837,-0.139 -2.17,-0.806 -1,-2 0.798,0.457 1.131,1.124 1,2 z m -16,1 c 1.837,0.139 2.17,0.806 1,2 -0.798,-0.457 -1.131,-1.124 -1,-2 z m 5,0 c 1.175,-0.219 2.175,0.114 3,1 -1.552,1.298 -2.552,0.965 -3,-1 z m 6,0 c 1.837,0.139 2.17,0.806 1,2 -0.798,-0.457 -1.131,-1.124 -1,-2 z m 6,0 c 1.837,0.139 2.17,0.806 1,2 -0.798,-0.457 -1.131,-1.124 -1,-2 z m -14,3 c 1.837,0.139 2.17,0.806 1,2 -0.798,-0.457 -1.131,-1.124 -1,-2 z m 6,0 c 1.837,0.139 2.17,0.806 1,2 -0.798,-0.457 -1.131,-1.124 -1,-2 z m 5,0 c 1.837,0.139 2.17,0.806 1,2 -0.798,-0.457 -1.131,-1.124 -1,-2 z m 6,0 c 1.837,0.139 2.17,0.806 1,2 -0.798,-0.457 -1.131,-1.124 -1,-2 z m -15,3 c 1.175,-0.219 2.175,0.114 3,1 -1.552,1.298 -2.552,0.965 -3,-1 z m 6,2 c 0.139,-1.837 0.806,-2.17 2,-1 -0.457,0.798 -1.124,1.131 -2,1 z m 6,0 c 0.139,-1.837 0.806,-2.17 2,-1 -0.457,0.798 -1.124,1.131 -2,1 z m -7,1 c 0.963,0.863 0.963,1.53 0,2 -1.273,-0.757 -1.273,-1.423 0,-2 z m 6,0 c 0.975,2.04 0.308,2.373 -2,1 0.457,-0.798 1.124,-1.131 2,-1 z m -2,5 c -1,0 -2,0 -3,0 0.76,-2.485 1.76,-2.485 3,0 z m -20,-35 c -0.667,0 -1,0.333 -1,1 -1.333,0 -2,0.667 -2,2 -0.897,1.098 -1.73,1.098 -2.5,0 -0.483,0.948 -0.649,1.948 -0.5,3 -0.667,0 -1,0.333 -1,1 -1.333,0 -2,0.667 -2,2 -1,0 -2,0 -3,0 0,-1 0,-2 0,-3 2.493,0.369 3.16,-0.297 2,-2 0.667,0 1,-0.333 1,-1 1.333,0 2,-0.667 2,-2 0.667,0 1,-0.333 1,-1 1,0 2,0 3,0 0,-1 0,-2 0,-3 1,0 2,0 3,0 0,1 0,2 0,3 z m -6,0 c -0.667,0 -1,0.333 -1,1 -1.333,0 -2,0.667 -2,2 -0.667,0 -1,0.333 -1,1 -0.333,0 -0.667,0 -1,0 0,-0.667 -0.333,-1 -1,-1 0.229,-1.933 1.062,-3.6 2.5,-5 1.011,-0.837 2.178,-1.17 3.5,-1 0,1 0,2 0,3 z m 121,-6 c 2.666,-0.434 3.833,0.566 3.5,3 -2.658,1.194 -3.824,0.194 -3.5,-3 z m -5,0 c 1,0 2,0 3,0 0,1.333 0,2.667 0,4 -3.454,0.233 -4.454,-1.1 -3,-4 z m -6,0 c 1,0 2,0 3,0 0,1.333 0,2.667 0,4 -3.454,0.233 -4.454,-1.1 -3,-4 z m -185,0 c 0.6667,0 1.3333,0 2,0 0.6667,0 1,0.333 1,1 0,2 -1,3 -3,3 -0.6667,0 -1,-0.333 -1,-1 0,-0.667 0,-1.333 0,-2 0.6667,0 1,-0.333 1,-1 z m 103,-3 c 0.667,0 1,0.333 1,1 0,1 0,2 0,3 -1.846,0.278 -3.18,-0.389 -4,-2 0.505,-1.419 1.505,-2.085 3,-2 z m -34,-3 c 1,0 2,0 3,0 0.319,3.8 1.319,3.966 3,0.5 0.948,-0.483 1.948,-0.649 3,-0.5 0,1.333 0,2.667 0,4 -1,0 -2,0 -3,0 0,1 0,2 0,3 -1.322,0.17 -2.489,-0.163 -3.5,-1 -1.669,-1.669 -2.502,-3.669 -2.5,-6 z m 131,-3 c 2.032,0.548 3.032,1.881 3,4 -1,0 -2,0 -3,0 0,1 0,2 0,3 -1.333,0 -2.667,0 -4,0 -0.149,-1.052 0.017,-2.052 0.5,-3 1.72,-0.884 2.886,-2.217 3.5,-4 z m -23,0 c 0.333,0 0.667,0 1,0 0.667,0 1,0.3333 1,1 0.667,0 1,0.333 1,1 1.123,1.257 1.789,0.924 2,-1 0.667,0 1,-0.333 1,-1 0.333,0 0.667,0 1,0 0.667,0 1,0.3333 1,1 0.321,1.548 1.321,2.215 3,2 0,1.333 0,2.667 0,4 -1.333,0 -2.667,0 -4,0 0.219,-1.175 -0.114,-2.175 -1,-3 0.435,1.462 -0.398,2.462 -2.5,3 -2.054,-0.689 -3.054,-1.689 -3,-3 -0.24,1.469 -1.407,2.803 -3.5,4 1,0.833 2,1.667 3,2.5 -0.333,0.333 -0.667,0.667 -1,1 1,0.333 2,0.667 3,1 1.333,0.667 1.333,1.333 0,2 1.786,0.196 3.119,1.029 4,2.5 -2.455,2.577 -5.122,4.911 -8,7 -1.172,-0.419 -2.172,-1.085 -3,-2 -2.592,1.304 -4.425,3.304 -5.5,6 -0.654,-1.196 -1.154,-1.196 -1.5,0 2,2 4,4 6,6 -1.667,1.667 -3.333,3.333 -5,5 -0.886,0.825 -1.219,1.825 -1,3 -1.679,-0.215 -2.679,0.452 -3,2 -0.667,0 -1,0.333 -1,1 -1.495,0.085 -2.495,-0.581 -3,-2 0.82,-1.611 2.154,-2.278 4,-2 -0.02,-1.643 0.647,-2.976 2,-4 -1.353,-1.024 -2.02,-2.357 -2,-4 -1.333,0 -2.667,0 -4,0 -0.149,-1.052 0.017,-2.052 0.5,-3 1.518,-0.663 2.685,-1.663 3.5,-3 2.667,-1 2.667,-2 0,-3 0,-0.667 -0.333,-1 -1,-1 0,-0.333 0,-0.667 0,-1 0.667,0 1,-0.333 1,-1 2.485,-0.76 2.485,-1.76 0,-3 -0.333,-0.667 -0.667,-1.333 -1,-2 0.667,0 1,-0.333 1,-1 1.333,0 2,-0.667 2,-2 0.667,0 1,-0.333 1,-1 1.333,0 2,-0.667 2,-2 0.667,0 1,-0.333 1,-1 1.333,0 2,-0.667 2,-2 0.667,0 1,-0.333 1,-1 1.333,0 2,-0.667 2,-2 0.667,0 1,-0.333 1,-1 1.333,0 2,-0.667 2,-2 0.667,0 1,-0.333 1,-1 z m 5,1 c -0.211,1.924 -0.877,2.257 -2,1 0.667,-0.333 1.333,-0.667 2,-1 z m -11,9 c 1.837,0.139 2.17,0.806 1,2 -0.798,-0.457 -1.131,-1.124 -1,-2 z m -1,5 c -0.667,0 -1.333,0 -2,0 0.667,-2.667 1.333,-2.667 2,0 z m 4,-2 c 1.837,0.139 2.17,0.806 1,2 -0.798,-0.457 -1.131,-1.124 -1,-2 z m -9,3 c 0.667,0 1.333,0 2,0 -0.667,2.667 -1.333,2.667 -2,0 z m 6,0 c 1.333,0 2,0.667 2,2 0,-1.333 -0.667,-2 -2,-2 z m 5,2 c 0.283,-0.789 0.783,-1.456 1.5,-2 0.528,1.316 0.028,1.983 -1.5,2 z m -6,3 c -2.473,-0.447 -2.64,-1.447 -0.5,-3 0.483,0.948 0.649,1.948 0.5,3 z m 6,-3 c 0.219,1.175 -0.114,2.175 -1,3 -0.798,-0.457 -1.131,-1.124 -1,-2 0.667,-0.333 1.333,-0.667 2,-1 z m -14,12 c 1.837,0.139 2.17,0.806 1,2 -0.798,-0.457 -1.131,-1.124 -1,-2 z m 3,3 c 1.837,0.139 2.17,0.806 1,2 -0.798,-0.457 -1.131,-1.124 -1,-2 z m -69,-33 c 0.333,0 0.667,0 1,0 0.667,0 1,0.3333 1,1 -0.667,2 -1.333,4 -2,6 -1.373,0.157 -2.707,-0.01 -4,-0.5 -1.098,-0.77 -1.098,-1.603 0,-2.5 1.69,-0.356 2.69,-1.356 3,-3 0.667,0 1,-0.333 1,-1 z m -6,0 c 0.333,0 0.667,0 1,0 0.667,0 1,0.3333 1,1 0,1 0,2 0,3 -1.548,0.321 -2.215,1.321 -2,3 -1.333,0 -2.667,0 -4,0 0,-1.333 0,-2.667 0,-4 1.679,0.215 2.679,-0.452 3,-2 0.667,0 1,-0.333 1,-1 z m 90,-3 c 0.667,0.3333 1.333,0.6667 2,1 0.333,0.6667 0.667,1.3333 1,2 -0.667,0 -1,0.3333 -1,1 -0.667,0.333 -1.333,0.667 -2,1 0,-0.667 -0.333,-1 -1,-1 0,-0.6667 -0.333,-1 -1,-1 0.333,-0.6667 0.667,-1.3333 1,-2 0.667,0 1,-0.3333 1,-1 z m -85,1 c 0.333,0.6667 0.667,1.3333 1,2 -0.667,0 -1,0.3333 -1,1 -1,1.333 -2,1.333 -3,0 0,-0.6667 -0.333,-1 -1,-1 0.333,-0.6667 0.667,-1.3333 1,-2 1,-1.3333 2,-1.3333 3,0 z m 0,-3 c 1,0 2,0 3,0 0,1 0,2 0,3 -1,0 -2,0 -3,0 0,-1 0,-2 0,-3 z m -17,3 c 0.278,1.8464 -0.389,3.18 -2,4 -1.611,-0.82 -2.278,-2.1536 -2,-4 -1,0 -2,0 -3,0 0,-1 0,-2 0,-3 2.953,-0.3504 5.287,0.6496 7,3 z m -53,-3 c 1.333,0 2.667,0 4,0 0,1 0,2 0,3 -1.333,0 -2.667,0 -4,0 0,-1 0,-2 0,-3 z m -40,0 c 1,0 2,0 3,0 0.3102,1.6436 1.3102,2.6436 3,3 0,1 0,2 0,3 -1,1.333 -2,1.333 -3,0 0,-0.6667 -0.3333,-1 -1,-1 1.1602,-1.7027 0.4935,-2.3693 -2,-2 0,-1 0,-2 0,-3 z m 93,-2 c -0.667,0.6667 -0.667,0.6667 0,0 z m 66,-1 c 1,0 2,0 3,0 0,0.6667 0.333,1 1,1 -0.333,0.6667 -0.667,1.3333 -1,2 -0.667,0.3333 -1.333,0.6667 -2,1 0,-0.6667 -0.333,-1 -1,-1 0,-1 0,-2 0,-3 z m -17,0 c 1,0 2,0 3,0 0,1 0,2 0,3 -0.667,0.3333 -1.333,0.6667 -2,1 0,-0.6667 -0.333,-1 -1,-1 -0.333,-0.6667 -0.667,-1.3333 -1,-2 0.667,0 1,-0.3333 1,-1 z m -35,0 c 1,0 2,0 3,0 0.667,0 1,0.3333 1,1 -0.333,0.6667 -0.667,1.3333 -1,2 -1,1.3333 -2,1.3333 -3,0 -0.333,-0.6667 -0.667,-1.3333 -1,-2 0.667,0 1,-0.3333 1,-1 z m -84,0 c 0.6667,0 1,0.3333 1,1 -0.3333,0.6667 -0.6667,1.3333 -1,2 -0.6667,0.3333 -1.3333,0.6667 -2,1 -0.6667,0 -1,-0.3333 -1,-1 0,-1 0,-2 0,-3 1,0 2,0 3,0 z m -20,0 c 1,0 2,0 3,0 0,1 0,2 0,3 -1,1.3333 -2,1.3333 -3,0 -0.3333,-0.6667 -0.6667,-1.3333 -1,-2 0.6667,0 1,-0.3333 1,-1 z m 164,-1 c 0.667,0 1,0.3333 1,1 0,1 0,2 0,3 -0.667,0 -1,0.3333 -1,1 -0.667,-0.3333 -1.333,-0.6667 -2,-1 0,-1 0,-2 0,-3 0.667,-0.3333 1.333,-0.6667 2,-1 z m 1,-2 c 1,0 2,0 3,0 0.333,0.6667 0.667,1.3333 1,2 -0.667,0 -1,0.3333 -1,1 -1,1.3333 -2,1.3333 -3,0 0,-0.6667 -0.333,-1 -1,-1 0.333,-0.6667 0.667,-1.3333 1,-2 z m -29,0 c 1,0 2,0 3,0 0,1 0,2 0,3 -0.667,0 -1,0.3333 -1,1 -0.667,-0.3333 -1.333,-0.6667 -2,-1 0,-1 0,-2 0,-3 z m -23,0 c 1,0 2,0 3,0 0,1 0,2 0,3 -0.667,0 -1,0.3333 -1,1 -1.333,0 -2,0.6667 -2,2 -0.667,0 -1,0.3333 -1,1 -0.667,-0.3333 -1.333,-0.6667 -2,-1 -0.333,-0.6667 -0.667,-1.3333 -1,-2 0.667,0 1,-0.3333 1,-1 1.644,-0.3102 2.644,-1.3102 3,-3 z m -29,0 c 1,0 2,0 3,0 -0.002,4.0411 -1.335,4.7077 -4,2 0.363,-0.6835 0.696,-1.3501 1,-2 z m -6,0 c 2.666,-0.4342 3.833,0.5658 3.5,3 -3.597,1.5661 -4.763,0.5661 -3.5,-3 z m -55,0 c 0,1 0,2 0,3 -0.6667,0.3333 -1.3333,0.6667 -2,1 0,-0.6667 -0.3333,-1 -1,-1 0,-1 0,-2 0,-3 1,0 2,0 3,0 z m 180,-3 c 1,0 2,0 3,0 0,1 0,2 0,3 1,0 2,0 3,0 0.256,2.4124 -0.744,4.0791 -3,5 0.825,0.8857 1.825,1.219 3,1 0,1 0,2 0,3 -1,0 -2,0 -3,0 -1.25,5.245 -2.917,5.245 -5,0 -0.743,1.4079 -1.577,2.741 -2.5,4 -0.383,-0.556 -0.883,-0.889 -1.5,-1 0,-0.6667 -0.333,-1 -1,-1 0,-1.3333 -0.667,-2 -2,-2 0,-1 0,-2 0,-3 1.333,0 2,-0.6667 2,-2 0.667,0 1,-0.3333 1,-1 1.644,-0.3102 2.644,-1.3102 3,-3 1.333,0 2,-0.6667 2,-2 0.667,0 1,-0.3333 1,-1 z m 0,6 c -0.219,-1.175 0.114,-2.175 1,-3 1.298,1.5517 0.965,2.5517 -1,3 z m -1,1 c 0,1.3333 -0.667,2 -2,2 0,-1.3333 0.667,-2 2,-2 z m -3,3 c 0,0.3333 0,0.6667 0,1 -0.876,0.1309 -1.543,-0.2025 -2,-1 0.47,-0.963 1.137,-0.963 2,0 z m 29,-16 c 0.667,0 1,0.3333 1,1 -1.525,1.9001 -2.525,3.7334 -3,5.5 -2.634,0.9248 -3.801,0.0915 -3.5,-2.5 2.204,-1.0852 4.037,-2.4185 5.5,-4 z m -147,0 c 1,0 2,0 3,0 0.278,1.8464 -0.389,3.1798 -2,4 -0.929,-1.1888 -1.262,-2.5222 -1,-4 z m -58,21 c 0,-1 0,-2 0,-3 -2.4935,-0.3693 -3.1602,0.2973 -2,2 -0.6667,0 -1,0.3333 -1,1 -0.6667,0.333 -1.3333,0.667 -2,1 -0.6667,0 -1,-0.333 -1,-1 0,-1 0,-2 0,-3 0.6667,0 1,-0.3333 1,-1 1.3333,0 2,-0.6667 2,-2 1,0 2,0 3,0 0,-1 0,-2 0,-3 1.333,-0.6667 2.333,-1.6667 3,-3 -1,0 -2,0 -3,0 -0.3212,-1.5481 -1.3212,-2.2148 -3,-2 0,-1.3333 0,-2.6667 0,-4 1,0 2,0 3,0 -0.3212,-1.5481 -1.3212,-2.2148 -3,-2 0,-1.3333 0,-2.6667 0,-4 1,0 2,0 3,0 0,1 0,2 0,3 1,0 2,0 3,0 0,1 0,2 0,3 1,0 2,0 3,0 0.167,-3.4571 1.167,-3.7904 3,-1 -0.813,1.3139 -1.813,2.4805 -3,3.5 0.948,0.4828 1.948,0.6495 3,0.5 0,1 0,2 0,3 1,0 2,0 3,0 0.149,1.052 -0.017,2.052 -0.5,3 -1.959,1.2481 -3.459,2.9148 -4.5,5 -1.189,0.9287 -2.522,1.262 -4,1 0.354,2.994 -0.646,3.994 -3,3 z m 0,-18 c 1.832,0.6405 2.165,1.6405 1,3 -0.8857,-0.825 -1.219,-1.825 -1,-3 z m 6,6 c -1,0 -2,0 -3,0 1,-2.6667 2,-2.6667 3,0 z m 0,0 c 1.924,0.2107 2.257,0.8774 1,2 -0.333,-0.6667 -0.667,-1.3333 -1,-2 z m 0,3 c 0,1 0,2 0,3 -1,0 -2,0 -3,0 -0.149,-1.052 0.017,-2.052 0.5,-3 0.77,1.0981 1.603,1.0981 2.5,0 z m -6,9 c -0.6667,-0.333 -1.3333,-0.6667 -2,-1 -1.1602,-1.7027 -0.4935,-2.3693 2,-2 0,1 0,2 0,3 z m 192,-27 c 0.667,0.3333 1.333,0.6667 2,1 1.24,2.4845 2.24,2.4845 3,0 0.667,0 1,-0.3333 1,-1 0.333,0 0.667,0 1,0 0.667,0 1,0.3333 1,1 -0.548,2.7148 -2.048,4.7148 -4.5,6 -2.024,-0.2995 -2.524,-1.1329 -1.5,-2.5 -1.926,-0.4224 -2.926,-1.5891 -3,-3.5 0.667,0 1,-0.3333 1,-1 z m 2,1 c 1,0 2,0 3,0 -0.76,2.4845 -1.76,2.4845 -3,0 z m 9,-6 c 1,0 2,0 3,0 0,1 0,2 0,3 -1,0 -2,0 -3,0 -0.667,0 -1,-0.3333 -1,-1 0.333,-0.6667 0.667,-1.3333 1,-2 z m -6,0 c 1,0 2,0 3,0 0,1.3333 0.667,2 2,2 0,0.6667 0.333,1 1,1 0,1 0,2 0,3 -1,0 -2,0 -3,0 0,-0.6667 -0.333,-1 -1,-1 0.131,-0.8764 -0.202,-1.5431 -1,-2 -0.963,0.4698 -0.963,1.1365 0,2 -0.667,0 -1,0.3333 -1,1 -1,0 -2,0 -3,0 0,-1 0,-2 0,-3 0.667,0 1,-0.3333 1,-1 1.333,0 2,-0.6667 2,-2 z m 2,5 c -0.333,0 -0.667,0 -1,0 -0.963,-0.8635 -0.963,-1.5302 0,-2 0.798,0.4569 1.131,1.1236 1,2 z m -89,-5 c 1,0 2,0 3,0 0,1 0,2 0,3 -1.333,0 -2,0.6667 -2,2 -0.667,0 -1,0.3333 -1,1 -1,0 -2,0 -3,0 -0.667,0 -1,-0.3333 -1,-1 0.333,-0.6667 0.667,-1.3333 1,-2 0.667,0 1,-0.3333 1,-1 1.333,0 2,-0.6667 2,-2 z m -64,0 c 1.478,-0.262 2.811,0.0713 4,1 -0.82,1.6112 -2.154,2.2778 -4,2 0,-1 0,-2 0,-3 z m -46,0 c 1,0 2,0 3,0 0,1 0,2 0,3 -1,0 -2,0 -3,0 0,-1 0,-2 0,-3 z m -12,0 c 1.3333,0 2.6667,0 4,0 0,1 0,2 0,3 -1.3333,0 -2.6667,0 -4,0 0,-1 0,-2 0,-3 z m -40,0 c 1,0 2,0 3,0 0,1.3333 0.6667,2 2,2 0.6667,0 1,0.3333 1,1 0,1 0,2 0,3 -1,0 -2,0 -3,0 -0.6667,0 -1,-0.3333 -1,-1 1.1602,-1.7027 0.4935,-2.3693 -2,-2 0,-1 0,-2 0,-3 z m 252,-3 c 1,0 2,0 3,0 0,1 0,2 0,3 -1,0 -2,0 -3,0 -0.333,-0.6667 -0.667,-1.3333 -1,-2 0.667,0 1,-0.3333 1,-1 z m -6,0 c 1,0 2,0 3,0 0.667,0 1,0.3333 1,1 -0.333,0.6667 -0.667,1.3333 -1,2 -1,0 -2,0 -3,0 -0.333,-0.6667 -0.667,-1.3333 -1,-2 0.667,0 1,-0.3333 1,-1 z m -52,0 c 1,0 2,0 3,0 0,0.6667 0.333,1 1,1 -0.333,0.6667 -0.667,1.3333 -1,2 -1,0 -2,0 -3,0 -0.333,-0.6667 -0.667,-1.3333 -1,-2 0.667,0 1,-0.3333 1,-1 z m -26,0 c 0,1 0,2 0,3 -1,0 -2,0 -3,0 0,-1 0,-2 0,-3 1,0 2,0 3,0 z m -9,0 c 3.067,-0.3795 4.067,0.6205 3,3 -1,0 -2,0 -3,0 -0.333,-0.6667 -0.667,-1.3333 -1,-2 0.667,0 1,-0.3333 1,-1 z m -17,0 c 1,0 2,0 3,0 0,1 0,2 0,3 -1,0 -2,0 -3,0 -0.333,-0.6667 -0.667,-1.3333 -1,-2 0.667,0 1,-0.3333 1,-1 z m -116,0 c 1,0 2,0 3,0 0,1 0,2 0,3 -1,0 -2,0 -3,0 0,-1 0,-2 0,-3 z m -6,0 c 1,0 2,0 3,0 0.6667,0 1,0.3333 1,1 -0.3333,0.6667 -0.6667,1.3333 -1,2 -1,0 -2,0 -3,0 0,-1 0,-2 0,-3 z m -17,0 c 1,0 2,0 3,0 0,1 0,2 0,3 -1,0 -2,0 -3,0 -0.3333,-0.6667 -0.6667,-1.3333 -1,-2 0.6667,0 1,-0.3333 1,-1 z m -6,0 c 1,0 2,0 3,0 0,1 0,2 0,3 -1,0 -2,0 -3,0 0,-1 0,-2 0,-3 z m 82,-1 c 0.333,0 0.667,0 1,0 0.667,0 1,0.3333 1,1 -0.667,2 -1.333,4 -2,6 -1,0 -2,0 -3,0 0,1 0,2 0,3 -1.333,0 -2.667,0 -4,0 0.183,-2.4878 1.183,-4.4878 3,-6 1,0 2,0 3,0 0,-1 0,-2 0,-3 0.667,0 1,-0.3333 1,-1 z m 193,-2 c 3.765,0.1757 5.765,2.1757 6,6 -1,0 -2,0 -3,0 0.369,-2.4935 -0.297,-3.1602 -2,-2 -0.667,0 -1,-0.3333 -1,-1 -1.333,-1 -1.333,-2 0,-3 z m -52,0 c 1,0 2,0 3,0 1.333,1 1.333,2 0,3 -0.667,0.3333 -1.333,0.6667 -2,1 -0.667,0 -1,-0.3333 -1,-1 -1.333,-1 -1.333,-2 0,-3 z m -29,0 c 1,0 2,0 3,0 0,1 0,2 0,3 -0.667,0 -1,0.3333 -1,1 -0.667,-0.3333 -1.333,-0.6667 -2,-1 0,-1 0,-2 0,-3 z m -20,0 c 0,1 0,2 0,3 -1,1.3333 -2,1.3333 -3,0 -0.994,-2.3543 0.006,-3.3543 3,-3 z m -12,3 c -0.667,0 -1,0.3333 -1,1 -1.257,1.1226 -0.924,1.7893 1,2 0.333,0.6667 0.667,1.3333 1,2 -0.667,0 -1,0.3333 -1,1 -1.333,0 -2,0.6667 -2,2 -0.667,0 -1,0.3333 -1,1 -1.333,0 -2,0.6667 -2,2 -0.667,0 -1,0.3333 -1,1 -0.667,0 -1.333,0 -2,0 -0.667,0 -1,-0.3333 -1,-1 -1.333,0 -2,-0.6667 -2,-2 -0.667,0 -1,-0.3333 -1,-1 -0.086,-0.9959 0.248,-1.8292 1,-2.5 1.4,-1.4381 3.067,-2.2714 5,-2.5 0,-1 0,-2 0,-3 1,0 2,0 3,0 0,-1 0,-2 0,-3 1,0 2,0 3,0 0,1 0,2 0,3 z m -5,3 c 1.837,0.1395 2.17,0.8061 1,2 -0.798,-0.4569 -1.131,-1.1236 -1,-2 z m -3,3 c 1.965,0.4483 2.298,1.4483 1,3 -0.886,-0.825 -1.219,-1.825 -1,-3 z m -12,-9 c 1,0 2,0 3,0 0,1 0,2 0,3 -0.667,0 -1,0.3333 -1,1 -0.667,-0.3333 -1.333,-0.6667 -2,-1 -1.333,-1 -1.333,-2 0,-3 z m -6,0 c 1,0 2,0 3,0 1.333,1 1.333,2 0,3 -1,1.3333 -2,1.3333 -3,0 -0.667,0 -1,-0.3333 -1,-1 0.333,-0.6667 0.667,-1.3333 1,-2 z m -52,0 c 4.314,0.2721 4.814,1.6055 1.5,4 -0.383,-0.556 -0.883,-0.8893 -1.5,-1 0,-0.6667 -0.333,-1 -1,-1 0.333,-0.6667 0.667,-1.3333 1,-2 z m -41,6 c -0.6667,0 -1.3333,0 -2,0 0,1 0,2 0,3 -1,0 -2,0 -3,0 0,1 0,2 0,3 -1,0 -2,0 -3,0 0.1107,0.6174 0.444,1.1174 1,1.5 -1.2588,0.9234 -2.5921,1.7568 -4,2.5 5.0367,1.7026 5.0367,3.7026 0,6 1.4079,0.7432 2.7412,1.5766 4,2.5 -0.556,0.3826 -0.8893,0.8826 -1,1.5 1.5481,-0.3212 2.2148,-1.3212 2,-3 1,0 2,0 3,0 0,-1 0,-2 0,-3 2.4948,0.6989 4.8281,1.6989 7,3 0,1 0,2 0,3 -1.3333,0 -2.6667,0 -4,0 0.5478,2.0323 1.8812,3.0323 4,3 -0.2148,1.6788 0.4519,2.6788 2,3 0,0.6667 0.3333,1 1,1 0,0.3333 0,0.6667 0,1 -0.6667,0 -1,0.3333 -1,1 -2.4845,0.7601 -2.4845,1.7601 0,3 0,0.667 0.3333,1 1,1 0,0.333 0,0.667 0,1 1.3333,0 2,-0.667 2,-2 0.6667,0 1,-0.333 1,-1 0.6667,0.3333 1.3333,0.667 2,1 -1.281,4.278 -3.9476,7.278 -8,9 0,-0.667 -0.3333,-1 -1,-1 -0.6667,-2.667 -1.3333,-2.667 -2,0 -0.6667,0 -1,0.333 -1,1 -2.6667,0.667 -2.6667,1.333 0,2 0,0.667 0.3333,1 1,1 0.6738,1.524 1.6738,2.858 3,4 -1.9566,2.559 -3.6233,2.226 -5,-1 -1.9534,3.912 -3.7868,3.912 -5.5,0 -2.3051,1.522 -3.8051,3.522 -4.5,6 -1.6788,-0.215 -2.6788,0.452 -3,2 -3.8243,-0.235 -5.8243,-2.235 -6,-6 -0.6174,0.111 -1.1174,0.444 -1.5,1 -0.9078,-1.939 -2.4078,-2.939 -4.5,-3 0.219,-1.175 -0.1143,-2.175 -1,-3 -3,-2.333 -5.6667,-5 -8,-8 1.6565,-1.492 3.1565,-3.158 4.5,-5 0.3333,0.3333 0.6667,0.667 1,1 0.4828,-0.948 0.6495,-1.948 0.5,-3 -5.712,-1.3715 -6.712,-4.0382 -3,-8 -1.2701,-0.7876 -2.2701,-1.7876 -3,-3 0.6667,0 1,-0.3333 1,-1 1.3333,0 2,-0.6667 2,-2 0.6667,0 1,-0.3333 1,-1 1.3333,0 2,-0.6667 2,-2 0.6667,0 1,-0.3333 1,-1 1.3333,0 2,-0.6667 2,-2 0.6667,0 1,-0.3333 1,-1 1.3333,0 2,-0.6667 2,-2 0.6667,0 1,-0.3333 1,-1 0.6667,0.3333 1.3333,0.6667 2,1 0,-1 0,-2 0,-3 0.6667,0 1,-0.3333 1,-1 1,-0.3333 1.6667,-1 2,-2 1,0 2,0 3,0 0.7601,2.4845 1.7601,2.4845 3,0 1,0 2,0 3,0 0,-1 0,-2 0,-3 1.5481,-0.3212 2.2148,-1.3212 2,-3 1.3333,0 2.6667,0 4,0 0.6667,4 1.3333,4 2,0 1.3333,0 2.6667,0 4,0 0.1495,1.052 -0.0172,2.052 -0.5,3 -0.6667,1.3333 -1.3333,1.3333 -2,0 -0.5133,1.0266 -1.0133,2.0266 -1.5,3 z m -2,0 c -1,0 -2,0 -3,0 0.5886,-3.7965 1.5886,-3.7965 3,0 z m -12,0 c 1,0 2,0 3,0 -1.2399,2.4845 -2.2399,2.4845 -3,0 z m 6,0 c 1.837,0.1395 2.1704,0.8061 1,2 -0.7975,-0.4569 -1.1309,-1.1236 -1,-2 z m -6,6 c -0.6667,-0.3333 -1.3333,-0.6667 -2,-1 -0.1309,-0.8764 0.2025,-1.5431 1,-2 0.8857,0.825 1.219,1.825 1,3 z m 6,0 c -1,0 -2,0 -3,0 0,-1 0,-2 0,-3 1,0 2,0 3,0 0,1 0,2 0,3 z m -12,0 c 1,0 2,0 3,0 -0.7601,2.4845 -1.7601,2.4845 -3,0 z m 6,0 c 1.837,0.1395 2.1704,0.8061 1,2 -0.7975,-0.4569 -1.1309,-1.1236 -1,-2 z m -8,3 c 1.837,0.1395 2.1704,0.8061 1,2 -0.7975,-0.4569 -1.1309,-1.1236 -1,-2 z m 6,0 c 1.837,0.1395 2.1704,0.8061 1,2 -0.7975,-0.4569 -1.1309,-1.1236 -1,-2 z m -7,5 c -1.837,-0.1395 -2.1704,-0.8061 -1,-2 0.7975,0.4569 1.1309,1.1236 1,2 z m 4,-2 c 0.8764,-0.1309 1.5431,0.2025 2,1 -2.3084,1.3734 -2.9751,1.0401 -2,-1 z m 5,0 c 1.837,0.1395 2.1704,0.8061 1,2 -0.7975,-0.4569 -1.1309,-1.1236 -1,-2 z m -14,3 c 1.3333,0 2,0.6667 2,2 -0.6667,0 -1.3333,0 -2,0 0,-0.6667 0,-1.3333 0,-2 z m 6,0 c 1.3333,0 2,0.6667 2,2 0,-1.3333 -0.6667,-2 -2,-2 z m 6,0 c 1.837,0.1395 2.1704,0.8061 1,2 -0.7975,-0.4569 -1.1309,-1.1236 -1,-2 z m -13,3 c -0.1395,1.837 -0.8061,2.1704 -2,1 0.4569,-0.7975 1.1236,-1.1309 2,-1 z m 4,0 c 1.837,0.1395 2.1704,0.8061 1,2 -0.7975,-0.4569 -1.1309,-1.1236 -1,-2 z m 6,0 c 1.3333,0 2,0.6667 2,2 -1,0 -2,0 -3,0 0.3333,-0.6667 0.6667,-1.3333 1,-2 z m 5,2 c 0.1395,-1.837 0.8061,-2.1704 2,-1 -0.4569,0.7975 -1.1236,1.1309 -2,1 z m 14,0 c -0.6667,0 -1.3333,0 -2,0 0.6667,-2.6667 1.3333,-2.6667 2,0 z m -28,0 c 1.9646,0.4483 2.2979,1.4483 1,3 -0.8857,-0.825 -1.219,-1.825 -1,-3 z m 8,0 c 0,1 0,2 0,3 -2.4845,-1.2399 -2.4845,-2.2399 0,-3 z m 3,0 c 1,0 2,0 3,0 0,1 0,2 0,3 -1.3333,-0.6667 -2.3333,-1.6667 -3,-3 z m 9,0 c 0,1 0,2 0,3 -1,0 -2,0 -3,0 0,-1 0,-2 0,-3 1,0 2,0 3,0 z m 6,0 c -1.4114,3.7965 -2.4114,3.7965 -3,0 1,0 2,0 3,0 z m -17,4 c 1.7027,-1.1602 2.3693,-0.4935 2,2 -2.4935,0.3693 -3.1602,-0.2973 -2,-2 z m 5,-1 c 0.6667,0.3333 1.3333,0.6667 2,1 0.3333,0.6667 0.6667,1.3333 1,2 -1,0 -2,0 -3,0 0,-1 0,-2 0,-3 z m 6,0 c 2.4845,1.2399 2.4845,2.2399 0,3 0,-1 0,-2 0,-3 z m -23,1 c 1.837,0.1395 2.1704,0.8061 1,2 -0.7975,-0.4569 -1.1309,-1.1236 -1,-2 z m 6,0 c 1.837,0.1395 2.1704,0.8061 1,2 -0.7975,-0.4569 -1.1309,-1.1236 -1,-2 z m 25,2 c -1.837,-0.1395 -2.1704,-0.8061 -1,-2 0.7975,0.4569 1.1309,1.1236 1,2 z m -14,0 c 0,1 0,2 0,3 -2.6667,-1 -2.6667,-2 0,-3 z m 3,0 c 1,1.3333 2,1.3333 3,0 0,1 0,2 0,3 -1.6898,-0.3564 -2.6898,-1.3564 -3,-3 z m 6,0 c 0.7891,0.2828 1.4558,0.7828 2,1.5 -1.316,0.5281 -1.9827,0.0281 -2,-1.5 z m -20,3 c 1.9646,0.4483 2.2979,1.4483 1,3 -0.8857,-0.825 -1.219,-1.825 -1,-3 z m 6,2 c -1.1602,-1.7027 -0.4935,-2.3693 2,-2 0.3693,2.4935 -0.2973,3.16 -2,2 z m 5,-2 c 2.4935,-0.3693 3.1602,0.2973 2,2 -0.6667,0.3333 -1.3333,0.667 -2,1 0,-1 0,-2 0,-3 z m 6,0 c 1.3333,0 2,0.6667 2,2 -0.6667,0.3333 -1.3333,0.667 -2,1 0,-1 0,-2 0,-3 z m 6,0 c 1.7252,0.3425 2.2252,1.3425 1.5,3 -1.0386,-0.7438 -1.5386,-1.7438 -1.5,-3 z m -18,3 c -0.0173,1.528 -0.684,2.028 -2,1.5 0.5442,-0.717 1.2109,-1.217 2,-1.5 z m 6,0 c -0.0173,1.528 -0.684,2.028 -2,1.5 0.5442,-0.717 1.2109,-1.217 2,-1.5 z m 3,0 c 1,1.333 2,1.333 3,0 0,1 0,2 0,3 -1.6898,-0.356 -2.6898,-1.356 -3,-3 z m 6,0 c 1.3333,0 2,0.667 2,2 0,-1.333 -0.6667,-2 -2,-2 z m 6,2 c 0.1395,-1.837 0.8061,-2.17 2,-1 -0.4569,0.798 -1.1236,1.131 -2,1 z m 8,-2 c 0,1.333 -0.6667,2 -2,2 0,-0.333 0,-0.667 0,-1 0.6667,-0.333 1.3333,-0.667 2,-1 z m -40,3 c 1.837,0.139 2.1704,0.806 1,2 -0.7975,-0.457 -1.1309,-1.124 -1,-2 z m 6,0 c 1.837,0.139 2.1704,0.806 1,2 -0.7975,-0.457 -1.1309,-1.124 -1,-2 z m 6,2 c -0.9751,-2.04 -0.3084,-2.373 2,-1 -0.4569,0.798 -1.1236,1.131 -2,1 z m 5,-2 c 1.837,0.139 2.1704,0.806 1,2 -0.7975,-0.457 -1.1309,-1.124 -1,-2 z m 6,0 c 1.837,0.139 2.1704,0.806 1,2 -0.7975,-0.457 -1.1309,-1.124 -1,-2 z m 6,0 c 0.6667,0 1.3333,0 2,0 -0.6667,2.667 -1.3333,2.667 -2,0 z m 8,0 c -0.1395,1.837 -0.8061,2.17 -2,1 0.4569,-0.798 1.1236,-1.131 2,-1 z m -34,5 c 0.1395,-1.837 0.8061,-2.17 2,-1 -0.4569,0.798 -1.1236,1.131 -2,1 z m 8,-2 c -0.1395,1.837 -0.8061,2.17 -2,1 0.4569,-0.798 1.1236,-1.131 2,-1 z m 4,0 c 1.837,0.139 2.1704,0.806 1,2 -0.7975,-0.457 -1.1309,-1.124 -1,-2 z m 5,0 c 1.175,-0.219 2.175,0.114 3,1 -1.5517,1.298 -2.5517,0.965 -3,-1 z m 8,2 c -1.837,-0.139 -2.1704,-0.806 -1,-2 0.7975,0.457 1.1309,1.124 1,2 z m 6,0 c -0.6667,0 -1.3333,0 -2,0 0.6667,-2.667 1.3333,-2.667 2,0 z m -28,1 c 1.837,0.139 2.1704,0.806 1,2 -0.7975,-0.457 -1.1309,-1.124 -1,-2 z m 5,1 c 0.8864,-1.276 1.8864,-1.276 3,0 -0.9246,1.062 -1.9246,1.062 -3,0 z m 6,-1 c 1.837,0.139 2.1704,0.806 1,2 -0.7975,-0.457 -1.1309,-1.124 -1,-2 z m 6,0 c 1.837,0.139 2.1704,0.806 1,2 -0.7975,-0.457 -1.1309,-1.124 -1,-2 z m -12,5 c -1.837,-0.139 -2.1704,-0.806 -1,-2 0.7975,0.457 1.1309,1.124 1,2 z m 4,-2 c 1.837,0.139 2.1704,0.806 1,2 -0.7975,-0.457 -1.1309,-1.124 -1,-2 z m 5,2 c 0.4483,-1.965 1.4483,-2.298 3,-1 -0.825,0.886 -1.825,1.219 -3,1 z m 6,-2 c 1.837,0.139 2.1704,0.806 1,2 -0.7975,-0.457 -1.1309,-1.124 -1,-2 z m -14,3 c 1.3333,0 2,0.667 2,2 -1,0 -2,0 -3,0 0.3333,-0.667 0.6667,-1.333 1,-2 z m 7,0 c 0,1.333 -0.6667,2 -2,2 0,-1.333 0.6667,-2 2,-2 z m -2,2 c 0,1 0,2 0,3 -2.4935,0.369 -3.1602,-0.297 -2,-2 0.6667,-0.333 1.3333,-0.667 2,-1 z m 6,-52 c -1,1.3333 -2,1.3333 -3,0 -1.2803,-1.6058 -0.7803,-2.6058 1.5,-3 2.2803,0.3942 2.7803,1.3942 1.5,3 z m -6,0 c -0.6667,0.3333 -1.3333,0.6667 -2,1 0,-0.6667 -0.3333,-1 -1,-1 0,-1 0,-2 0,-3 1,0 2,0 3,0 0,1 0,2 0,3 z m -23,-3 c 0,1 0,2 0,3 -0.6667,0 -1,0.3333 -1,1 -0.6667,-0.3333 -1.3333,-0.6667 -2,-1 0,-1 0,-2 0,-3 1,0 2,0 3,0 z m -9,0 c 2.9935,-0.3543 3.9935,0.6457 3,3 -1,1.3333 -2,1.3333 -3,0 -1.3333,-1 -1.3333,-2 0,-3 z m 278,0 c -2.667,1 -2.667,2 0,3 0,0.6667 0.333,1 1,1 -0.73,1.2124 -1.73,2.2124 -3,3 1.505,1.3415 2.172,3.0082 2,5 -1,0 -2,0 -3,0 -0.667,-4 -1.333,-4 -2,0 -1.175,-0.219 -2.175,0.1143 -3,1 -1.797,1.1951 -2.797,2.8618 -3,5 -1,0 -2,0 -3,0 0,-0.6667 -0.333,-1 -1,-1 -0.086,-0.9959 0.248,-1.8292 1,-2.5 1.4,-1.4381 3.067,-2.2714 5,-2.5 0,-1 0,-2 0,-3 -1,0 -2,0 -3,0 0.215,-1.6788 -0.452,-2.6788 -2,-3 -0.667,-1.3333 -1.667,-2.3333 -3,-3 -1.333,-1 -1.333,-2 0,-3 1.548,-0.3212 2.215,-1.3212 2,-3 1.333,0 2.667,0 4,0 0.667,4 1.333,4 2,0 1.333,0 2.667,0 4,0 0.667,4 1.333,4 2,0 2.994,-0.3543 3.994,0.6457 3,3 z m -14,3 c -0.219,-1.175 0.114,-2.175 1,-3 1.298,1.5517 0.965,2.5517 -1,3 z m 6,-3 c 1.965,0.4483 2.298,1.4483 1,3 -0.886,-0.825 -1.219,-1.825 -1,-3 z m -3,3 c 1.965,0.4483 2.298,1.4483 1,3 -0.886,-0.825 -1.219,-1.825 -1,-3 z m 6,0 c 1.965,0.4483 2.298,1.4483 1,3 -0.886,-0.825 -1.219,-1.825 -1,-3 z m -3,3 c 1.837,0.1395 2.17,0.8061 1,2 -0.798,-0.4569 -1.131,-1.1236 -1,-2 z m -79,-9 c 0.667,0 1,0.3333 1,1 -0.333,0.6667 -0.667,1.3333 -1,2 -1,0 -2,0 -3,0 0,-1 0,-2 0,-3 1,0 2,0 3,0 z m -11,3 c -1,0 -2,0 -3,0 0,-1 0,-2 0,-3 1,0 2,0 3,0 0,1 0,2 0,3 z m -41,-3 c 0,1 0,2 0,3 -1.924,0.2107 -2.257,0.8774 -1,2 0,0.6667 0.333,1 1,1 0,1 0,2 0,3 1,0 2,0 3,0 0,-1 0,-2 0,-3 1,0 2,0 3,0 0,1 0,2 0,3 1,0 2,0 3,0 1.817,1.5122 2.817,3.5122 3,6 0.667,-0.3333 1.333,-0.6667 2,-1 0,0.6667 0.333,1 1,1 0,1.3333 0.667,2 2,2 0,0.6667 0.333,1 1,1 0,0.6667 0,1.3333 0,2 -0.667,0 -1,0.3333 -1,1 -1.333,0 -2,0.6667 -2,2 -0.667,0 -1,0.3333 -1,1 -1.333,0 -2,0.6667 -2,2 -0.667,0 -1,0.3333 -1,1 -1.333,0 -2,0.6667 -2,2 -1,0 -2,0 -3,0 0,1 0,2 0,3 -0.667,0 -1,0.3333 -1,1 -0.333,0 -0.667,0 -1,0 0,-0.6667 -0.333,-1 -1,-1 0,-1 0,-2 0,-3 -1,0 -2,0 -3,0 0,1 0,2 0,3 -0.667,0 -1,0.3333 -1,1 -1.257,1.1226 -0.924,1.7893 1,2 0,1 0,2 0,3 -1.333,0 -2,0.6667 -2,2 -0.667,0 -1,0.3333 -1,1 -0.617,0.111 -1.117,0.444 -1.5,1 -0.923,-1.259 -1.757,-2.5921 -2.5,-4 -0.648,1.6492 -1.648,2.982 -3,4 -1.167,-1.5792 -2.5,-2.9125 -4,-4 -0.02,-1.643 0.647,-2.9763 2,-4 -0.457,-0.7975 -1.124,-1.1309 -2,-1 0,-1.3333 0,-2.6667 0,-4 1,0 2,0 3,0 -0.219,1.175 0.114,2.175 1,3 0.783,-1.7882 2.116,-2.7882 4,-3 0,-1 0,-2 0,-3 1.175,0.219 2.175,-0.1143 3,-1 -3.236,-2.7806 -6.236,-5.7806 -9,-9 0.535,-1.7705 1.369,-2.1039 2.5,-1 1.007,-3.2538 3.173,-5.2538 6.5,-6 -1.271,-1.1848 -2.271,-3.1848 -3,-6 1,0 2,0 3,0 0,-1 0,-2 0,-3 1,0 2,0 3,0 z m 0,6 c 1,1.3333 2,1.3333 3,0 0,1 0,2 0,3 -1,0 -2,0 -3,0 0,-1 0,-2 0,-3 z m 0,3 c -0.283,0.7891 -0.783,1.4558 -1.5,2 -0.528,-1.316 -0.028,-1.9827 1.5,-2 z m 6,0 c -0.283,0.7891 -0.783,1.4558 -1.5,2 -0.528,-1.316 -0.028,-1.9827 1.5,-2 z m -12,6 c 1.411,-3.7965 2.411,-3.7965 3,0 -1,0 -2,0 -3,0 z m 6,-3 c 1,0 2,0 3,0 0,1 0,2 0,3 -1,0 -2,0 -3,0 0,-1 0,-2 0,-3 z m 9,3 c -1,0 -2,0 -3,0 0.589,-3.7965 1.589,-3.7965 3,0 z m -15,0 c -0.139,1.837 -0.806,2.1704 -2,1 0.457,-0.7975 1.124,-1.1309 2,-1 z m 15,0 c 1,0 2,0 3,0 -1.24,2.4845 -2.24,2.4845 -3,0 z m -14,3 c 1.837,0.1395 2.17,0.8061 1,2 -0.798,-0.4569 -1.131,-1.1236 -1,-2 z m 5,0 c 1.175,-0.219 2.175,0.1143 3,1 -1.552,1.2979 -2.552,0.9646 -3,-1 z m 6,0 c 1.837,0.1395 2.17,0.8061 1,2 -0.798,-0.4569 -1.131,-1.1236 -1,-2 z m 6,0 c 1.837,0.1395 2.17,0.8061 1,2 -0.798,-0.4569 -1.131,-1.1236 -1,-2 z m -3,3 c 1.837,0.1395 2.17,0.8061 1,2 -0.798,-0.4569 -1.131,-1.1236 -1,-2 z m -9,2 c 3.797,1.4114 3.797,2.4114 0,3 0,-1 0,-2 0,-3 z m 6,1 c 1.837,0.1395 2.17,0.8061 1,2 -0.798,-0.4569 -1.131,-1.1236 -1,-2 z m -6,5 c -1.528,-0.0173 -2.028,-0.684 -1.5,-2 0.717,0.5442 1.217,1.2109 1.5,2 z m 6,0 c -1.528,-0.0173 -2.028,-0.684 -1.5,-2 0.717,0.5442 1.217,1.2109 1.5,2 z m -12,0 c 1,0 2,0 3,0 -0.589,3.7965 -1.589,3.7965 -3,0 z m 6,0 c 1,0 2,0 3,0 0,1 0,2 0,3 -1,0 -2,0 -3,0 0,-1 0,-2 0,-3 z m -8,4 c 1.837,0.1395 2.17,0.8061 1,2 -0.798,-0.4569 -1.131,-1.1236 -1,-2 z m 4,2 c 1.273,0.5768 1.273,1.2435 0,2 -0.963,-0.4698 -0.963,-1.1365 0,-2 z m -109,-29 c -2.4845,1.2399 -2.4845,2.2399 0,3 0.3333,0.6667 0.6667,1.3333 1,2 -0.6667,0 -1,0.3333 -1,1 -1.3333,0 -2,0.6667 -2,2 -0.6667,0 -1,0.3333 -1,1 -1.3333,0 -2,0.6667 -2,2 -0.6667,0 -1,0.3333 -1,1 -0.6667,0 -1.3333,0 -2,0 -0.6667,0 -1,-0.3333 -1,-1 -1.3333,0 -2,-0.6667 -2,-2 -0.6667,0 -1,-0.3333 -1,-1 0,-1.3333 -0.6667,-2 -2,-2 0,-0.6667 -0.3333,-1 -1,-1 0.3333,-0.6667 0.6667,-1.3333 1,-2 2.4845,-0.7601 2.4845,-1.7601 0,-3 -1.3333,-1 -1.3333,-2 0,-3 1.5481,-0.3212 2.2148,-1.3212 2,-3 1.3333,0 2.6667,0 4,0 0.6637,2.3669 1.997,4.3669 4,6 0.8857,-0.825 1.219,-1.825 1,-3 2.9935,-0.3543 3.9935,0.6457 3,3 z m -11,-3 c 1.9646,0.4483 2.2979,1.4483 1,3 -0.8857,-0.825 -1.219,-1.825 -1,-3 z m 5,6 c -1.837,-0.1395 -2.1704,-0.8061 -1,-2 0.7975,0.4569 1.1309,1.1236 1,2 z m -5,0 c 1.837,0.1395 2.1704,0.8061 1,2 -0.7975,-0.4569 -1.1309,-1.1236 -1,-2 z m 5,0 c 1.175,-0.219 2.175,0.1143 3,1 -0.4569,0.7975 -1.1236,1.1309 -2,1 -0.3333,-0.6667 -0.6667,-1.3333 -1,-2 z m 0,3 c 0.219,1.175 -0.1143,2.175 -1,3 -1.2979,-1.5517 -0.9646,-2.5517 1,-3 z m -20,-9 c -1,0 -2,0 -3,0 0,-1 0,-2 0,-3 1,0 2,0 3,0 0,1 0,2 0,3 z m 235,-3 c -0.667,0 -1,0.3333 -1,1 -1.333,0 -2,0.6667 -2,2 -1,0 -2,0 -3,0 0,-1 0,-2 0,-3 1.333,0 2,-0.6667 2,-2 0.667,0 1,-0.3333 1,-1 2.354,-0.9935 3.354,0.0065 3,3 z m -143,-2 c 0.667,0 1,-0.3333 1,-1 0.897,-1.0981 1.73,-1.0981 2.5,0 0.49,1.2932 0.657,2.6266 0.5,4 -2.473,0.4118 -3.806,-0.5882 -4,-3 z m -66,-1 c 0.262,1.4778 -0.0713,2.8112 -1,4 -2.4146,-1.4187 -2.5813,-3.0854 -0.5,-5 0.3826,0.556 0.8826,0.8893 1.5,1 z m -14,6 c -1,0 -2,0 -3,0 -1.2142,-1.1256 -2.2142,-2.4589 -3,-4 1.5647,-3.8322 2.5647,-3.4989 3,1 1,0 2,0 3,0 0,1 0,2 0,3 z m -18,0 c 1,0 2,0 3,0 0.3564,1.6898 1.3564,2.6898 3,3 0,1 0,2 0,3 1,0 2,0 3,0 0.6667,1.3333 1.6667,2.3333 3,3 0,1 0,2 0,3 0.6667,-0.3333 1.3333,-0.6667 2,-1 0,0.6667 0.3333,1 1,1 0,1.3333 0.6667,2 2,2 0.3333,-0.6667 0.6667,-1.3333 1,-2 0.6667,-0.3333 1.3333,-0.6667 2,-1 0,0.6667 0.3333,1 1,1 0,1.3333 0.6667,2 2,2 0,0.6667 0.3333,1 1,1 0,0.6667 0,1.3333 0,2 -0.6667,0 -1,0.3333 -1,1 -1.3333,0 -2,0.6667 -2,2 -0.6667,0 -1,0.3333 -1,1 -1.3333,0 -2,0.6667 -2,2 -0.6667,0 -1,0.3333 -1,1 -1.8841,-0.2118 -3.2174,-1.2118 -4,-3 -0.8857,0.825 -1.219,1.825 -1,3 -1,0 -2,0 -3,0 0,-1.3333 0,-2.6667 0,-4 4,-0.6667 4,-1.3333 0,-2 0,-1 0,-2 0,-3 -2.4115,0.3633 -3.9115,-0.6367 -4.5,-3 -0.5885,2.3633 -2.0885,3.3633 -4.5,3 0,-1 0,-2 0,-3 -1.5481,0.3212 -2.2148,1.3212 -2,3 -1.3333,0 -2.6667,0 -4,0 0.2148,-1.6788 -0.4519,-2.6788 -2,-3 0,1 0,2 0,3 -1,0 -2,0 -3,0 -1.3333,2.3333 -1.3333,4.6667 0,7 -3.8765,0.0175 -4.5432,-1.1492 -2,-3.5 -5.2365,-4.176 -4.9031,-8.0093 1,-11.5 -0.825,-0.8857 -1.825,-1.219 -3,-1 0,-1 0,-2 0,-3 2.1188,0.0323 3.4522,-0.9677 4,-3 1.3333,0 2,-0.6667 2,-2 0.6667,0 1,-0.3333 1,-1 1.5931,-0.8479 2.7597,-2.1813 3.5,-4 1.7647,1.8955 3.5981,3.7288 5.5,5.5 -0.556,0.3826 -0.8893,0.8826 -1,1.5 z m -5,-2 c 1.837,0.1395 2.1704,0.8061 1,2 -0.7975,-0.4569 -1.1309,-1.1236 -1,-2 z m -3,2 c 1.9646,0.4483 2.2979,1.4483 1,3 -0.8857,-0.825 -1.219,-1.825 -1,-3 z m 8,0 c 0.219,1.175 -0.1143,2.175 -1,3 -1.2979,-1.5517 -0.9646,-2.5517 1,-3 z m -8,6 c -1,0 -2,0 -3,0 0.2175,-3.5595 1.2175,-3.5595 3,0 z m 3,-3 c 1.9646,0.4483 2.2979,1.4483 1,3 -0.8857,-0.825 -1.219,-1.825 -1,-3 z m 5,3 c 1.7825,-3.5595 2.7825,-3.5595 3,0 -1,0 -2,0 -3,0 z m -8,0 c 1.837,0.1395 2.1704,0.8061 1,2 -0.7975,-0.4569 -1.1309,-1.1236 -1,-2 z m 8,0 c -0.1395,1.837 -0.8061,2.1704 -2,1 0.4569,-0.7975 1.1236,-1.1309 2,-1 z m 6,0 c -0.2828,0.7891 -0.7828,1.4558 -1.5,2 -0.5281,-1.316 -0.0281,-1.9827 1.5,-2 z m -14,6 c -1,0 -2,0 -3,0 0.5886,-3.7965 1.5886,-3.7965 3,0 z m 3,-3 c 1.9646,0.4483 2.2979,1.4483 1,3 -0.8857,-0.825 -1.219,-1.825 -1,-3 z m 5,3 c 1.4114,-3.7965 2.4114,-3.7965 3,0 -1,0 -2,0 -3,0 z m 6,-3 c 1,0 2,0 3,0 0,1 0,2 0,3 -1,0 -2,0 -3,0 0,-1 0,-2 0,-3 z m -20,3 c 1.837,0.1395 2.1704,0.8061 1,2 -0.7975,-0.4569 -1.1309,-1.1236 -1,-2 z m 26,0 c -0.1395,1.837 -0.8061,2.1704 -2,1 0.4569,-0.7975 1.1236,-1.1309 2,-1 z m 3,0 c 1,0 2,0 3,0 -0.3333,0.6667 -0.6667,1.3333 -1,2 -1.3333,0 -2,-0.6667 -2,-2 z m -3,3 c 1.837,0.1395 2.1704,0.8061 1,2 -0.7975,-0.4569 -1.1309,-1.1236 -1,-2 z m 6,0 c 1.837,0.1395 2.1704,0.8061 1,2 -0.7975,-0.4569 -1.1309,-1.1236 -1,-2 z m -3,3 c 1.837,0.1395 2.1704,0.8061 1,2 -0.7975,-0.4569 -1.1309,-1.1236 -1,-2 z m -23,-21 c -0.6667,0 -1,0.3333 -1,1 -1.3333,0 -2,0.6667 -2,2 -1.3333,0 -2.6667,0 -4,0 0,-1 0,-2 0,-3 1,0 2,0 3,0 -0.2778,-1.8464 0.3888,-3.1798 2,-4 1.6112,0.8202 2.2778,2.1536 2,4 z m 197,-6 c 3.361,0.7032 3.694,2.0365 1,4 -2.142,-0.9371 -2.476,-2.2704 -1,-4 z m -35,9 c -1.24,-2.4845 -2.24,-2.4845 -3,0 -1,0 -2,0 -3,0 -0.31,-1.6436 -1.31,-2.6436 -3,-3 -0.994,-2.3543 0.006,-3.3543 3,-3 0,-1 0,-2 0,-3 1,0 2,0 3,0 1.271,1.1848 2.271,3.1848 3,6 1,0 2,0 3,0 0,1 0,2 0,3 -1,0 -2,0 -3,0 z m -4,-5 c 0.963,0.8635 0.963,1.5302 0,2 -1.273,-0.7565 -1.273,-1.4232 0,-2 z m 4,5 c -1,0 -2,0 -3,0 0.76,-2.4845 1.76,-2.4845 3,0 z m -104,-9 c 3.3606,0.7032 3.6939,2.0365 1,4 -2.1424,-0.9371 -2.4757,-2.2704 -1,-4 z m 124,-3 c 1,0 2,0 3,0 0,1.3333 0,2.6667 0,4 -1,0 -2,0 -3,0 0,-1.3333 0,-2.6667 0,-4 z m -69,0 c 1,0 2,0 3,0 0,1.3333 0,2.6667 0,4 -1.333,0 -2.667,0 -4,0 0,-1 0,-2 0,-3 0.667,0 1,-0.3333 1,-1 z m -47,0 c 1.3221,-0.17 2.4887,0.1634 3.5,1 1.669,1.6691 2.5023,3.6691 2.5,6 -1,0 -2,0 -3,0 -0.7471,-3.693 -2.0804,-3.693 -4,0 -1,-0.3333 -1.6667,-1 -2,-2 1.797,-1.1951 2.797,-2.8618 3,-5 z m -26,6 c -0.3212,-1.5481 -1.3212,-2.2148 -3,-2 0,-1.3333 0,-2.6667 0,-4 1.052,-0.1495 2.052,0.0172 3,0.5 0.8333,1.5 2,2.6667 3.5,3.5 0.1741,2.832 -0.9925,3.4987 -3.5,2 z m -8,-6 c 3.3606,0.7032 3.6939,2.0365 1,4 -2.1424,-0.9371 -2.4757,-2.2704 -1,-4 z m -6,0 c 1,0 2,0 3,0 0,1.3333 0,2.6667 0,4 -3.4536,0.2332 -4.4536,-1.1001 -3,-4 z m 165,-11 c 0,1 0,2 0,3 -1.846,0.2778 -3.18,-0.3888 -4,-2 1.189,-0.9287 2.522,-1.262 4,-1 z m -90,0 c 1,0 2,0 3,0 0,0.6667 0.333,1 1,1 0,0.3333 0,0.6667 0,1 -0.667,0 -1,0.3333 -1,1 -1,0 -2,0 -3,0 0,-0.6667 -0.333,-1 -1,-1 0,-0.3333 0,-0.6667 0,-1 0.667,0 1,-0.3333 1,-1 z m -70,0 c 1.4778,-0.262 2.8112,0.0713 4,1 -1.9635,2.6939 -3.2968,2.3606 -4,-1 z m 7,-1 c 4.1099,2.2458 3.7765,3.5792 -1,4 -0.0674,-1.4587 0.2659,-2.7921 1,-4 z m 208,18 c -0.667,0 -1,0.3333 -1,1 -1,0.3333 -1.667,1 -2,2 -1.333,0.6667 -2.333,1.6667 -3,3 -1,0 -2,0 -3,0 1.333,1 1.333,2 0,3 1,0 2,0 3,0 0,0.6667 0.333,1 1,1 -0.333,0.6667 -0.667,1.3333 -1,2 1,0 2,0 3,0 0,-1 0,-2 0,-3 1.644,-0.3102 2.644,-1.3102 3,-3 1,0 2,0 3,0 -0.333,-0.6667 -0.667,-1.3333 -1,-2 0.667,0 1,-0.3333 1,-1 1.548,-0.3212 2.215,-1.3212 2,-3 2.138,-0.203 3.805,-1.203 5,-3 1.219,0.7634 2.219,1.7634 3,3 0.886,-0.825 1.219,-1.825 1,-3 1,0 2,0 3,0 0,-1 0,-2 0,-3 1,0 2,0 3,0 0,1 0,2 0,3 3.667,0.3333 5.667,2.3333 6,6 2.994,-0.3543 3.994,0.6457 3,3 -1,0 -2,0 -3,0 0,1 0,2 0,3 -0.667,0 -1,0.3333 -1,1 -0.333,0 -0.667,0 -1,0 0,-0.6667 -0.333,-1 -1,-1 0,-1 0,-2 0,-3 -1,0 -2,0 -3,0 1.333,1 1.333,2 0,3 -0.667,0 -1,0.3333 -1,1 -1.257,1.1226 -0.924,1.7893 1,2 0.333,0.6667 0.667,1.3333 1,2 -0.667,0 -1,0.3333 -1,1 -1.333,0 -2,0.6667 -2,2 -0.667,0 -1,0.3333 -1,1 -1.524,0.6738 -2.858,1.6738 -4,3 -0.886,0.825 -1.219,1.825 -1,3 -1.175,-0.219 -2.175,0.1143 -3,1 -1.326,1.1422 -2.326,2.4755 -3,4 -0.667,0 -1,0.3333 -1,1 -1.333,0 -2,0.6667 -2,2 -1,0 -2,0 -3,0 0,1 0,2 0,3 -0.667,0 -1,0.3333 -1,1 -1,0.3333 -1.667,1 -2,2 -1,0.3333 -1.667,1 -2,2 -0.667,0 -1,0.3333 -1,1 -2.493,-0.3693 -3.16,0.2973 -2,2 -0.667,0 -1,0.3333 -1,1 -1,0.333 -1.667,1 -2,2 -0.667,0 -1,0.333 -1,1 -1.333,0 -2,0.667 -2,2 -0.667,0 -1,0.333 -1,1 -1.333,0 -2,0.667 -2,2 -0.667,0 -1,0.333 -1,1 -1.333,0 -2,0.667 -2,2 -0.667,0 -1,0.333 -1,1 -1.333,0 -2,0.667 -2,2 -0.667,0 -1,0.333 -1,1 -1.333,0 -2,0.667 -2,2 -0.667,0 -1,0.333 -1,1 -0.333,0 -0.667,0 -1,0 0,-0.667 -0.333,-1 -1,-1 -1,-2.667 -2,-2.667 -3,0 -0.667,0 -1,0.333 -1,1 -0.667,-0.333 -1.333,-0.667 -2,-1 0,1 0,2 0,3 1,0 2,0 3,0 0,1 0,2 0,3 -1,0 -2,0 -3,0 -0.401,3.57 -2.401,5.736 -6,6.5 1.333,0.667 1.333,1.333 0,2 -0.948,0.483 -1.948,0.649 -3,0.5 0,-1 0,-2 0,-3 -1,0 -2,0 -3,0 0,-1 0,-2 0,-3 1,0 2,0 3,0 0,-1 0,-2 0,-3 -2.863,-0.853 -5.196,-2.52 -7,-5 -0.886,0.825 -1.219,1.825 -1,3 -1,0 -2,0 -3,0 0,-1.333 0,-2.667 0,-4 -0.897,1.098 -1.73,1.098 -2.5,0 -0.49,1.293 -0.657,2.627 -0.5,4 -1,0 -2,0 -3,0 0,-1.333 0,-2.667 0,-4 -0.617,0.111 -1.117,0.444 -1.5,1 -0.908,-1.939 -2.408,-2.939 -4.5,-3 0.219,-1.175 -0.114,-2.175 -1,-3 -0.783,1.788 -2.116,2.788 -4,3 0,-0.667 -0.333,-1 -1,-1 -0.667,-2.667 -1.333,-2.667 -2,0 -0.667,0 -1,0.333 -1,1 -2.412,-0.194 -3.412,-1.527 -3,-4 1.175,0.219 2.175,-0.114 3,-1 -1.685,-1.453 -3.351,-2.786 -5,-4 0,-0.667 -0.333,-1 -1,-1 0.111,-0.617 0.444,-1.117 1,-1.5 -2.387,-0.564 -4.387,-1.73 -6,-3.5 0,-0.6667 -0.333,-1 -1,-1 0.333,-0.6667 0.667,-1.3333 1,-2 1,-0.3333 1.667,-1 2,-2 0.667,0 1,-0.3333 1,-1 2.493,0.3693 3.16,-0.2973 2,-2 0.667,0 1,-0.3333 1,-1 2.667,-1 2.667,-2 0,-3 -0.333,-0.6667 -0.667,-1.3333 -1,-2 0.667,0 1,-0.3333 1,-1 1.333,0 2,-0.6667 2,-2 0.667,0 1,-0.3333 1,-1 1.333,0 2,-0.6667 2,-2 0.667,0 1,-0.3333 1,-1 1.333,0 2,-0.6667 2,-2 0.667,0 1,-0.3333 1,-1 1.333,0 2,-0.6667 2,-2 0.667,0 1,-0.3333 1,-1 0.333,0 0.667,0 1,0 0,0.6667 0.333,1 1,1 0.333,0.6667 0.667,1.3333 1,2 1.333,0 2,-0.6667 2,-2 0.667,0 1,-0.3333 1,-1 0.667,0.3333 1.333,0.6667 2,1 0,-1 0,-2 0,-3 1.333,-0.6667 2.333,-1.6667 3,-3 1,0 2,0 3,0 0,-1 0,-2 0,-3 1.644,-0.3102 2.644,-1.3102 3,-3 1.512,-1.8167 3.512,-2.8167 6,-3 0,1 0,2 0,3 -1,0 -2,0 -3,0 -0.729,2.8152 -1.729,4.8152 -3,6 1.643,-0.0198 2.976,0.6468 4,2 1.024,-1.3532 2.357,-2.0198 4,-2 0,-1 0,-2 0,-3 1,0 2,0 3,0 0,-1 0,-2 0,-3 1,0 2,0 3,0 0,-1.3333 -0.667,-2 -2,-2 0,-0.6667 -0.333,-1 -1,-1 -1.453,-1.4333 -2.287,-3.0999 -2.5,-5 2.09,-1.2908 3.424,-0.6242 4,2 0.333,-0.3333 0.667,-0.6667 1,-1 0.583,1.5016 1.416,2.8349 2.5,4 0.728,-1.6932 1.728,-3.1932 3,-4.5 -1.473,-0.7096 -2.14,-1.8762 -2,-3.5 -1,0 -2,0 -3,0 0.385,-4.7359 1.719,-5.0693 4,-1 0.915,-2.4803 2.415,-3.1469 4.5,-2 0.483,-0.948 0.649,-1.948 0.5,-3 -4.364,-0.1648 -4.864,-1.4981 -1.5,-4 1.333,0.6667 2.333,1.6667 3,3 2.879,-2.5432 5.379,-5.3765 7.5,-8.5 2.434,-0.3329 3.434,0.8338 3,3.5 1.175,-0.219 2.175,0.1143 3,1 -1.797,1.1951 -2.797,2.8618 -3,5 -1.175,-0.219 -2.175,0.1143 -3,1 1.667,1 3,2.3333 4,4 2,-4 4,-4 6,0 0.781,-1.2366 1.781,-2.2366 3,-3 1.976,1.8967 3.81,3.8967 5.5,6 0.483,-0.948 0.649,-1.948 0.5,-3 1.333,0 2.667,0 4,0 0,1.3333 0,2.6667 0,4 -1.679,-0.2148 -2.679,0.4519 -3,2 z m -20,-17 c 1.965,0.4483 2.298,1.4483 1,3 -0.886,-0.825 -1.219,-1.825 -1,-3 z m -3,3 c 1.837,0.1395 2.17,0.8061 1,2 -0.798,-0.4569 -1.131,-1.1236 -1,-2 z m -1,5 c -1.837,-0.1395 -2.17,-0.8061 -1,-2 0.798,0.4569 1.131,1.1236 1,2 z m 1,1 c 1.837,0.1395 2.17,0.8061 1,2 -0.798,-0.4569 -1.131,-1.1236 -1,-2 z m -9,3 c 1.175,-0.219 2.175,0.1143 3,1 -1.552,1.2979 -2.552,0.9646 -3,-1 z m 6,0 c 1.837,0.1395 2.17,0.8061 1,2 -0.798,-0.4569 -1.131,-1.1236 -1,-2 z m 6,0 c 1.837,0.1395 2.17,0.8061 1,2 -0.798,-0.4569 -1.131,-1.1236 -1,-2 z m 6,0 c 1.837,0.1395 2.17,0.8061 1,2 -0.798,-0.4569 -1.131,-1.1236 -1,-2 z m 6,0 c 0.789,0.2828 1.456,0.7828 2,1.5 -1.316,0.5281 -1.983,0.0281 -2,-1.5 z m -15,5 c 0.017,-1.5281 0.684,-2.0281 2,-1.5 -0.544,0.7172 -1.211,1.2172 -2,1.5 z m 8,0 c -1.837,-0.1395 -2.17,-0.8061 -1,-2 0.798,0.4569 1.131,1.1236 1,2 z m 6,0 c -1.837,-0.1395 -2.17,-0.8061 -1,-2 0.798,0.4569 1.131,1.1236 1,2 z m 4,-2 c 1.837,0.1395 2.17,0.8061 1,2 -0.798,-0.4569 -1.131,-1.1236 -1,-2 z m -25,2 c 0.904,0.709 1.237,1.709 1,3 -3.505,-0.1941 -3.838,-1.1941 -1,-3 z m 50,0 c 0.897,1.0981 1.73,1.0981 2.5,0 0.483,0.948 0.649,1.948 0.5,3 -1,0 -2,0 -3,0 0,-1 0,-2 0,-3 z m -44,1 c 0.975,2.0401 0.308,2.3734 -2,1 0.457,-0.7975 1.124,-1.1309 2,-1 z m 4,0 c 1.837,0.1395 2.17,0.8061 1,2 -0.798,-0.4569 -1.131,-1.1236 -1,-2 z m 6,0 c 1.837,0.1395 2.17,0.8061 1,2 -0.798,-0.4569 -1.131,-1.1236 -1,-2 z m 6,0 c 2.637,1.6538 2.303,2.1538 -1,1.5 0.556,-0.3826 0.889,-0.8826 1,-1.5 z m 7,0 c 0,1.3333 -0.667,2 -2,2 0.333,-1 1,-1.6667 2,-2 z m 10,0 c 1.837,0.1395 2.17,0.8061 1,2 -0.798,-0.4569 -1.131,-1.1236 -1,-2 z m 6,0 c 1.837,0.1395 2.17,0.8061 1,2 -0.798,-0.4569 -1.131,-1.1236 -1,-2 z m -18,2 c 0,1 0,2 0,3 -1,0 -2,0 -3,0 0.667,-1.3333 1.667,-2.3333 3,-3 z m -37,1 c 1.333,0 2,0.6667 2,2 -1,0 -2,0 -3,0 0.333,-0.6667 0.667,-1.3333 1,-2 z m 8,2 c -1,0 -2,0 -3,0 0.76,-2.4845 1.76,-2.4845 3,0 z m 3,0 c 0.283,-0.7891 0.783,-1.4558 1.5,-2 0.528,1.316 0.028,1.9827 -1.5,2 z m 6,0 c 0.139,-1.837 0.806,-2.1704 2,-1 -0.457,0.7975 -1.124,1.1309 -2,1 z m 8,0 c -1.837,-0.1395 -2.17,-0.8061 -1,-2 0.798,0.4569 1.131,1.1236 1,2 z m 6,0 c -1.837,-0.1395 -2.17,-0.8061 -1,-2 0.798,0.4569 1.131,1.1236 1,2 z m 11,-2 c 0.333,0.6667 0.667,1.3333 1,2 -1,0 -2,0 -3,0 0,-1.3333 0.667,-2 2,-2 z m 4,0 c 1.837,0.1395 2.17,0.8061 1,2 -0.798,-0.4569 -1.131,-1.1236 -1,-2 z m 8,2 c -1.837,-0.1395 -2.17,-0.8061 -1,-2 0.798,0.4569 1.131,1.1236 1,2 z m 6,0 c -1.528,-0.0173 -2.028,-0.684 -1.5,-2 0.717,0.5442 1.217,1.2109 1.5,2 z m -58,0 c 1,0 2,0 3,0 0,1 0,2 0,3 -1.644,-0.3102 -2.644,-1.3102 -3,-3 z m 6,0 c 1,0 2,0 3,0 0,1 0,2 0,3 -1,0 -2,0 -3,0 0,-1 0,-2 0,-3 z m 9,0 c -1.333,1 -1.333,2 0,3 -1,0 -2,0 -3,0 0,-1 0,-2 0,-3 1,0 2,0 3,0 z m 3,0 c 1.965,0.4483 2.298,1.4483 1,3 -0.886,-0.825 -1.219,-1.825 -1,-3 z m 5,0 c 1,0 2,0 3,0 -0.589,3.7965 -1.589,3.7965 -3,0 z m 6,0 c 1,0 2,0 3,0 -1.333,1 -1.333,2 0,3 -1,0 -2,0 -3,0 1.333,-1 1.333,-2 0,-3 z m 6,0 c 1,0 2,0 3,0 -0.356,1.6898 -1.356,2.6898 -3,3 1.333,-1 1.333,-2 0,-3 z m 6,0 c 2.667,1 2.667,2 0,3 0,-1 0,-2 0,-3 z m 6,0 c 1.965,0.4483 2.298,1.4483 1,3 -0.886,-0.825 -1.219,-1.825 -1,-3 z m 5,0 c 1,0 2,0 3,0 0,1 0,2 0,3 -1.644,-0.3102 -2.644,-1.3102 -3,-3 z m 6,0 c 1,0 2,0 3,0 0,1 0,2 0,3 -1,0 -2,0 -3,0 1.333,-1 1.333,-2 0,-3 z m -61,6 c 0.333,-0.6667 0.667,-1.3333 1,-2 1.703,-1.1602 2.369,-0.4935 2,2 -1,0 -2,0 -3,0 z m 6,-3 c 0.667,0.3333 1.333,0.6667 2,1 0.333,0.6667 0.667,1.3333 1,2 -1,0 -2,0 -3,0 0,-1 0,-2 0,-3 z m 12,0 c 2.485,1.2399 2.485,2.2399 0,3 0,-1 0,-2 0,-3 z m 8,3 c -2.473,-0.4473 -2.64,-1.4473 -0.5,-3 0.483,0.948 0.649,1.948 0.5,3 z m 6,-3 c 0,1 0,2 0,3 -1,0 -2,0 -3,0 0.667,-1.3333 1.667,-2.3333 3,-3 z m 6,0 c 0,1 0,2 0,3 -1,0 -2,0 -3,0 0.333,-0.6667 0.667,-1.3333 1,-2 0.667,-0.3333 1.333,-0.6667 2,-1 z m 5,1 c 0.333,0.6667 0.667,1.3333 1,2 -1,0 -2,0 -3,0 -0.369,-2.4935 0.297,-3.1602 2,-2 z m 4,-1 c 1.832,0.6405 2.165,1.6405 1,3 -0.886,-0.825 -1.219,-1.825 -1,-3 z m 7,0 c 1.276,0.8864 1.276,1.8864 0,3 -1.062,-0.9246 -1.062,-1.9246 0,-3 z m -41,1 c 1.257,1.1226 0.924,1.7893 -1,2 0.333,-0.6667 0.667,-1.3333 1,-2 z m -27,2 c 1.837,0.1395 2.17,0.8061 1,2 -0.798,-0.4569 -1.131,-1.1236 -1,-2 z m 14,0 c -0.139,1.837 -0.806,2.1704 -2,1 0.457,-0.7975 1.124,-1.1309 2,-1 z m 6,0 c -0.139,1.837 -0.806,2.1704 -2,1 0.457,-0.7975 1.124,-1.1309 2,-1 z m 3,0 c 1,0 2,0 3,0 0,1 0,2 0,3 -1.69,-0.3564 -2.69,-1.3564 -3,-3 z m 9,0 c -0.333,0.6667 -0.667,1.3333 -1,2 -0.876,0.1309 -1.543,-0.2025 -2,-1 0.825,-0.8857 1.825,-1.219 3,-1 z m 3,0 c 1.837,0.1395 2.17,0.8061 1,2 -0.798,-0.4569 -1.131,-1.1236 -1,-2 z m 5,0 c 1,0 2,0 3,0 0,1.3333 -0.667,2 -2,2 -0.333,-0.6667 -0.667,-1.3333 -1,-2 z m 9,0 c -0.283,0.7891 -0.783,1.4558 -1.5,2 -0.528,-1.316 -0.028,-1.9827 1.5,-2 z m 9,0 c 1.837,0.1395 2.17,0.8061 1,2 -0.798,-0.4569 -1.131,-1.1236 -1,-2 z m 6,0 c 1.837,0.1395 2.17,0.8061 1,2 -0.798,-0.4569 -1.131,-1.1236 -1,-2 z m 6,2 c 0.139,-1.837 0.806,-2.1704 2,-1 -0.457,0.7975 -1.124,1.1309 -2,1 z m -70,4 c -1,0 -2,0 -3,0 0,-1 0,-2 0,-3 1,0 2,0 3,0 0,1 0,2 0,3 z m 6,0 c -1,0 -2,0 -3,0 0.589,-3.7965 1.589,-3.7965 3,0 z m 3,-3 c 1.965,0.4483 2.298,1.4483 1,3 -0.886,-0.825 -1.219,-1.825 -1,-3 z m 5,3 c 1.411,-3.7965 2.411,-3.7965 3,0 -1,0 -2,0 -3,0 z m 9,0 c -1,0 -2,0 -3,0 0,-1 0,-2 0,-3 1.052,-0.1495 2.052,0.0172 3,0.5 -1.098,0.7697 -1.098,1.603 0,2.5 z m 3,-3 c 1.333,0 2,0.6667 2,2 -0.333,0 -0.667,0 -1,0 -0.333,-0.6667 -0.667,-1.3333 -1,-2 z m 6,0 c 2.485,0.7601 2.485,1.7601 0,3 0,-1 0,-2 0,-3 z m 8,0 c 0.171,3.2973 -0.495,3.6306 -2,1 0.457,-0.7975 1.124,-1.1309 2,-1 z m 4,2 c -0.131,-0.8764 0.202,-1.5431 1,-2 1.373,2.3084 1.04,2.9751 -1,2 z m 5,-1 c 0.709,-0.904 1.709,-1.2373 3,-1 0,1 0,2 0,3 -1.052,0.1495 -2.052,-0.0172 -3,-0.5 1.238,-0.69 1.238,-1.19 0,-1.5 z m 9,2 c -1,0 -2,0 -3,0 0.589,-3.7965 1.589,-3.7965 3,0 z m 3,-3 c 2.473,0.4473 2.64,1.4473 0.5,3 -0.483,-0.948 -0.649,-1.948 -0.5,-3 z m 8,0 c 0.219,1.175 -0.114,2.175 -1,3 -1.298,-1.5517 -0.965,-2.5517 1,-3 z m -81,3 c 1,0 2,0 3,0 0,1.3333 -0.667,2 -2,2 -0.333,-0.6667 -0.667,-1.3333 -1,-2 z m 6,0 c 1.837,0.1395 2.17,0.8061 1,2 -0.798,-0.4569 -1.131,-1.1236 -1,-2 z m 6,0 c 1.837,0.1395 2.17,0.8061 1,2 -0.798,-0.4569 -1.131,-1.1236 -1,-2 z m 6,0 c 1.837,0.1395 2.17,0.8061 1,2 -0.798,-0.4569 -1.131,-1.1236 -1,-2 z m 8,0 c -0.139,1.837 -0.806,2.1704 -2,1 0.457,-0.7975 1.124,-1.1309 2,-1 z m 6,0 c -0.139,1.837 -0.806,2.1704 -2,1 0.457,-0.7975 1.124,-1.1309 2,-1 z m 3,0 c 1,0 2,0 3,0 -1,2.6667 -2,2.6667 -3,0 z m 6,0 c 1,0 2,0 3,0 -0.333,0.6667 -0.667,1.3333 -1,2 -1.333,0 -2,-0.6667 -2,-2 z m 8,2 c -0.667,0 -1.333,0 -2,0 0.667,-2.6667 1.333,-2.6667 2,0 z m 6,-2 c 0,1.3333 -0.667,2 -2,2 0,-1.3333 0.667,-2 2,-2 z m 15,0 c 1.837,0.1395 2.17,0.8061 1,2 -0.798,-0.4569 -1.131,-1.1236 -1,-2 z m 8,2 c -1.837,-0.1395 -2.17,-0.8061 -1,-2 0.798,0.4569 1.131,1.1236 1,2 z m -78,1 c 0,1.3333 -0.667,2 -2,2 0,-1.3333 0.667,-2 2,-2 z m 4,0 c 1.837,0.1395 2.17,0.8061 1,2 -0.798,-0.4569 -1.131,-1.1236 -1,-2 z m 5,0 c 1.175,-0.219 2.175,0.1143 3,1 -1.552,1.2979 -2.552,0.9646 -3,-1 z m 6,0 c 1.837,0.1395 2.17,0.8061 1,2 -0.798,-0.4569 -1.131,-1.1236 -1,-2 z m 6,0 c 1.837,0.1395 2.17,0.8061 1,2 -0.798,-0.4569 -1.131,-1.1236 -1,-2 z m 6,2 c 0.139,-1.837 0.806,-2.1704 2,-1 -0.457,0.7975 -1.124,1.1309 -2,1 z m 5,-2 c 3.297,-0.1713 3.631,0.4954 1,2 -0.798,-0.4569 -1.131,-1.1236 -1,-2 z m 6,0 c 1.837,0.1395 2.17,0.8061 1,2 -0.798,-0.4569 -1.131,-1.1236 -1,-2 z m 6,0 c 0.667,0 1.333,0 2,0 0,0.6667 0,1.3333 0,2 -1.333,0 -2,-0.6667 -2,-2 z m 6,0 c 0.667,0 1.333,0 2,0 -0.667,2.6667 -1.333,2.6667 -2,0 z m 6,0 c 1.837,0.1395 2.17,0.8061 1,2 -0.798,-0.4569 -1.131,-1.1236 -1,-2 z m 5,1 c 0.886,-1.2759 1.886,-1.2759 3,0 -0.925,1.0624 -1.925,1.0624 -3,0 z m 6,-1 c 1.837,0.1395 2.17,0.8061 1,2 -0.798,-0.4569 -1.131,-1.1236 -1,-2 z m 6,0 c 1.837,0.1395 2.17,0.8061 1,2 -0.798,-0.4569 -1.131,-1.1236 -1,-2 z m -76,3 c 0,0.6667 0,1.3333 0,2 -2.667,-0.6667 -2.667,-1.3333 0,-2 z m 3,0 c 1.175,-0.219 2.175,0.1143 3,1 -1.552,1.2979 -2.552,0.9646 -3,-1 z m 6,0 c 1.837,0.1395 2.17,0.8061 1,2 -0.798,-0.4569 -1.131,-1.1236 -1,-2 z m 6,2 c 0.139,-1.837 0.806,-2.1704 2,-1 -0.457,0.7975 -1.124,1.1309 -2,1 z m 6,-2 c 1.837,0.1395 2.17,0.8061 1,2 -0.798,-0.4569 -1.131,-1.1236 -1,-2 z m 8,0 c 0,0.6667 0,1.3333 0,2 -2.667,-0.6667 -2.667,-1.3333 0,-2 z m 6,2 c -1.837,-0.1395 -2.17,-0.8061 -1,-2 0.798,0.4569 1.131,1.1236 1,2 z m 3,-2 c 1.175,-0.219 2.175,0.1143 3,1 -1.552,1.2979 -2.552,0.9646 -3,-1 z m 6,2 c 0.447,-2.4732 1.447,-2.6399 3,-0.5 -0.948,0.4828 -1.948,0.6495 -3,0.5 z m 6,-2 c 2.667,0.6667 2.667,1.3333 0,2 0,-0.6667 0,-1.3333 0,-2 z m 6,0 c 1.837,0.1395 2.17,0.8061 1,2 -0.798,-0.4569 -1.131,-1.1236 -1,-2 z m 17,0 c 1.837,0.1395 2.17,0.8061 1,2 -0.798,-0.4569 -1.131,-1.1236 -1,-2 z m -58,2 c 0,1 0,2 0,3 -3.797,-0.5886 -3.797,-1.5886 0,-3 z m 20,0 c 3.56,1.7825 3.56,2.7825 0,3 0,-1 0,-2 0,-3 z m -38,3 c -0.667,0 -1.333,0 -2,0 0.667,-2.6667 1.333,-2.6667 2,0 z m 4,-2 c 1.333,0 2,0.6667 2,2 0,-1.3333 -0.667,-2 -2,-2 z m 6,0 c 1.837,0.1395 2.17,0.8061 1,2 -0.798,-0.4569 -1.131,-1.1236 -1,-2 z m 11,0 c 1.837,0.1395 2.17,0.8061 1,2 -0.798,-0.4569 -1.131,-1.1236 -1,-2 z m 6,0 c 1.837,0.1395 2.17,0.8061 1,2 -0.798,-0.4569 -1.131,-1.1236 -1,-2 z m 6,0 c 1.837,0.1395 2.17,0.8061 1,2 -0.798,-0.4569 -1.131,-1.1236 -1,-2 z m 13,0 c -0.017,1.5281 -0.684,2.0281 -2,1.5 0.544,-0.7172 1.211,-1.2172 2,-1.5 z m 6,0 c 0,1.3333 -0.667,2 -2,2 0,-1.3333 0.667,-2 2,-2 z m 6,2 c -1.837,-0.1395 -2.17,-0.8061 -1,-2 0.798,0.4569 1.131,1.1236 1,2 z m 4,-2 c 1.837,0.1395 2.17,0.8061 1,2 -0.798,-0.4569 -1.131,-1.1236 -1,-2 z m 5,0 c 1.175,-0.219 2.175,0.1143 3,1 -1.552,1.2979 -2.552,0.9646 -3,-1 z m 6,0 c 1.837,0.1395 2.17,0.8061 1,2 -0.798,-0.4569 -1.131,-1.1236 -1,-2 z m -76,3 c -0.139,1.837 -0.806,2.1704 -2,1 0.457,-0.7975 1.124,-1.1309 2,-1 z m 4,0 c 1.837,0.1395 2.17,0.8061 1,2 -0.798,-0.4569 -1.131,-1.1236 -1,-2 z m 6,0 c 1.333,0 2,0.6667 2,2 -1,0 -2,0 -3,0 0.333,-0.6667 0.667,-1.3333 1,-2 z m 8,2 c -1,0 -2,0 -3,0 0.76,-2.4845 1.76,-2.4845 3,0 z m 3,0 c 0.139,-1.837 0.806,-2.1704 2,-1 -0.457,0.7975 -1.124,1.1309 -2,1 z m 8,0 c -0.667,0 -1.333,0 -2,0 0.667,-2.6667 1.333,-2.6667 2,0 z m 6,0 c -1.837,-0.1395 -2.17,-0.8061 -1,-2 0.798,0.4569 1.131,1.1236 1,2 z m 6,0 c -1.837,-0.1395 -2.17,-0.8061 -1,-2 0.798,0.4569 1.131,1.1236 1,2 z m 6,0 c -1,0 -2,0 -3,0 1,-2.6667 2,-2.6667 3,0 z m 5,-2 c 0.333,0.6667 0.667,1.3333 1,2 -1,0 -2,0 -3,0 0,-1.3333 0.667,-2 2,-2 z m 4,0 c 1.837,0.1395 2.17,0.8061 1,2 -0.798,-0.4569 -1.131,-1.1236 -1,-2 z m 6,0 c 1.333,0 2,0.6667 2,2 0,-1.3333 -0.667,-2 -2,-2 z m 8,2 c -1.528,-0.0173 -2.028,-0.684 -1.5,-2 0.717,0.5442 1.217,1.2109 1.5,2 z m -69,0 c 1.965,0.4483 2.298,1.4483 1,3 -0.886,-0.825 -1.219,-1.825 -1,-3 z m 8,0 c -0.333,0.6667 -0.667,1.3333 -1,2 -1.257,-1.1226 -0.924,-1.7893 1,-2 z m 3,0 c 1,0 2,0 3,0 0,1 0,2 0,3 -1.333,-0.6667 -2.333,-1.6667 -3,-3 z m 6,0 c 1,0 2,0 3,0 0,1 0,2 0,3 -1,0 -2,0 -3,0 0,-1 0,-2 0,-3 z m 9,0 c -1.411,3.7965 -2.411,3.7965 -3,0 1,0 2,0 3,0 z m 2,0 c 1,0 2,0 3,0 -0.589,3.7965 -1.589,3.7965 -3,0 z m 6,0 c 1,0 2,0 3,0 0,1 0,2 0,3 -1,0 -2,0 -3,0 1.333,-1 1.333,-2 0,-3 z m 6,0 c 1,0 2,0 3,0 -0.333,0.6667 -0.667,1.3333 -1,2 -0.667,0.3333 -1.333,0.6667 -2,1 0,-1 0,-2 0,-3 z m 6,0 c 1,0 2,0 3,0 -0.333,1 -1,1.6667 -2,2 -0.333,-0.6667 -0.667,-1.3333 -1,-2 z m 6,0 c 2.485,0.7601 2.485,1.7601 0,3 0,-1 0,-2 0,-3 z m 8,3 c -1.965,-0.4483 -2.298,-1.4483 -1,-3 0.886,0.825 1.219,1.825 1,3 z m 3,-3 c 1,0 2,0 3,0 0,1 0,2 0,3 -1.644,-0.3102 -2.644,-1.3102 -3,-3 z m 6,0 c 1,0 2,0 3,0 0,1 0,2 0,3 -1.052,0.1495 -2.052,-0.0172 -3,-0.5 1.098,-0.7697 1.098,-1.603 0,-2.5 z m -61,3 c 3.797,1.4114 3.797,2.4114 0,3 0,-1 0,-2 0,-3 z m 6,0 c 0.667,0.3333 1.333,0.6667 2,1 0.333,0.6667 0.667,1.3333 1,2 -1,0 -2,0 -3,0 0,-1 0,-2 0,-3 z m 6,0 c 2.485,1.2399 2.485,2.2399 0,3 0,-1 0,-2 0,-3 z m 14,0 c 0,1 0,2 0,3 -2.485,-0.7601 -2.485,-1.7601 0,-3 z m 6,0 c 0,1 0,2 0,3 -1,0 -2,0 -3,0 0.333,-0.6667 0.667,-1.3333 1,-2 0.667,-0.3333 1.333,-0.6667 2,-1 z m 3,0 c 1,1.3333 2,1.3333 3,0 0,1 0,2 0,3 -1,0 -2,0 -3,0 0,-1 0,-2 0,-3 z m 8,1 c 1.16,1.7027 0.493,2.3693 -2,2 -0.369,-2.4935 0.297,-3.1602 2,-2 z m -54,0 c 1.837,0.1395 2.17,0.8061 1,2 -0.798,-0.4569 -1.131,-1.1236 -1,-2 z m 6,0 c 1.837,0.1395 2.17,0.8061 1,2 -0.798,-0.4569 -1.131,-1.1236 -1,-2 z m 23,0 c 1.837,0.1395 2.17,0.8061 1,2 -0.798,-0.4569 -1.131,-1.1236 -1,-2 z m 29,0 c 1.837,0.1395 2.17,0.8061 1,2 -0.798,-0.4569 -1.131,-1.1236 -1,-2 z m 6,0 c 0.876,-0.1309 1.543,0.2025 2,1 -2.308,1.3734 -2.975,1.0401 -2,-1 z m 6,0 c 1,0.3333 1.667,1 2,2 -1,0 -2,0 -3,0 0.333,-0.6667 0.667,-1.3333 1,-2 z m -47,2 c 0,1 0,2 0,3 -1,-0.3333 -1.667,-1 -2,-2 0.667,-0.3333 1.333,-0.6667 2,-1 z m 3,0 c 0.789,0.2828 1.456,0.7828 2,1.5 -1.316,0.5281 -1.983,0.0281 -2,-1.5 z m 14,0 c 0,1.3333 -0.667,2 -2,2 0,-0.3333 0,-0.6667 0,-1 0.667,-0.3333 1.333,-0.6667 2,-1 z m 3,0 c 0.667,0.3333 1.333,0.6667 2,1 -0.333,1 -1,1.6667 -2,2 0,-1 0,-2 0,-3 z m 26,0 c -0.017,1.5281 -0.684,2.0281 -2,1.5 0.544,-0.7172 1.211,-1.2172 2,-1.5 z m -73,5 c -1.703,1.16 -2.369,0.4935 -2,-2 2.493,-0.3693 3.16,0.2973 2,2 z m 4,-2 c 1.965,0.4483 2.298,1.4483 1,3 -0.886,-0.825 -1.219,-1.825 -1,-3 z m 6,0 c 1.725,0.3425 2.225,1.3425 1.5,3 -1.039,-0.7438 -1.539,-1.7438 -1.5,-3 z m 5,0 c 1,0 2,0 3,0 0,1 0,2 0,3 -1,0 -2,0 -3,0 0,-1 0,-2 0,-3 z m 8,2 c -0.667,0.3333 -1.333,0.667 -2,1 0,-1 0,-2 0,-3 2.493,-0.3693 3.16,0.2973 2,2 z m 4,-2 c 1.333,0 2,0.6667 2,2 -0.667,0.3333 -1.333,0.667 -2,1 0,-1 0,-2 0,-3 z m 6,0 c 2.473,0.4473 2.64,1.4473 0.5,3 -0.483,-0.948 -0.649,-1.948 -0.5,-3 z m 8,0 c 0.171,3.297 -0.495,3.631 -2,1 0.457,-0.7975 1.124,-1.1309 2,-1 z m 6,0 c 0,1 0,2 0,3 -0.667,-0.333 -1.333,-0.6667 -2,-1 0,-1.3333 0.667,-2 2,-2 z m 6,3 c -0.897,-1.0981 -1.73,-1.0981 -2.5,0 -0.483,-0.948 -0.649,-1.948 -0.5,-3 1,0 2,0 3,0 0,1 0,2 0,3 z m 5,-1 c -1.703,1.16 -2.369,0.4935 -2,-2 2.493,-0.3693 3.16,0.2973 2,2 z m 4,-2 c 2.473,0.4473 2.64,1.4473 0.5,3 -0.483,-0.948 -0.649,-1.948 -0.5,-3 z m 5,3 c 1.411,-3.7965 2.411,-3.7965 3,0 -1,0 -2,0 -3,0 z m -66,0 c 0.789,0.283 1.456,0.783 2,1.5 -1.316,0.528 -1.983,0.028 -2,-1.5 z m 20,0 c -0.017,1.528 -0.684,2.028 -2,1.5 0.544,-0.717 1.211,-1.217 2,-1.5 z m 3,0 c 1,1.333 2,1.333 3,0 0,1 0,2 0,3 -1.69,-0.356 -2.69,-1.356 -3,-3 z m 6,0 c 1.333,0 2,0.667 2,2 0,-1.333 -0.667,-2 -2,-2 z m 6,2 c 0.139,-1.837 0.806,-2.17 2,-1 -0.457,0.798 -1.124,1.131 -2,1 z m 8,-2 c 0,1.333 -0.667,2 -2,2 0.333,-1 1,-1.667 2,-2 z m 3,0 c 0.789,0.283 1.456,0.783 2,1.5 -1.316,0.528 -1.983,0.028 -2,-1.5 z m 12,0 c 0.789,0.283 1.456,0.783 2,1.5 -1.316,0.528 -1.983,0.028 -2,-1.5 z m 8,0 c 1,0 2,0 3,0 -0.589,-3.7965 -1.589,-3.7965 -3,0 z m -61,5 c -1.837,-0.139 -2.17,-0.806 -1,-2 0.798,0.457 1.131,1.124 1,2 z m 4,-2 c 1.837,0.139 2.17,0.806 1,2 -0.798,-0.457 -1.131,-1.124 -1,-2 z m 5,3 c 0,-1 0,-2 0,-3 3.797,0.589 3.797,1.589 0,3 z m 6,-3 c 3.297,-0.171 3.631,0.495 1,2 -0.798,-0.457 -1.131,-1.124 -1,-2 z m 6,0 c 1.837,0.139 2.17,0.806 1,2 -0.798,-0.457 -1.131,-1.124 -1,-2 z m 6,0 c 0.667,0 1.333,0 2,0 -0.667,2.667 -1.333,2.667 -2,0 z m 8,0 c -0.139,1.837 -0.806,2.17 -2,1 0.457,-0.798 1.124,-1.131 2,-1 z m 4,0 c 1.837,0.139 2.17,0.806 1,2 -0.798,-0.457 -1.131,-1.124 -1,-2 z m 5,0 c 1.175,-0.219 2.175,0.114 3,1 -1.552,1.298 -2.552,0.965 -3,-1 z m 8,2 c -0.876,0.131 -1.543,-0.202 -2,-1 2.308,-1.373 2.975,-1.04 2,1 z m 4,-2 c 1.837,0.139 2.17,0.806 1,2 -0.798,-0.457 -1.131,-1.124 -1,-2 z m -55,3 c 1.837,0.139 2.17,0.806 1,2 -0.798,-0.457 -1.131,-1.124 -1,-2 z m 8,0 c 0,1.333 -0.667,2 -2,2 0,-1.333 0.667,-2 2,-2 z m 4,0 c 1.837,0.139 2.17,0.806 1,2 -0.798,-0.457 -1.131,-1.124 -1,-2 z m 5,0 c 1.175,-0.219 2.175,0.114 3,1 -1.552,1.298 -2.552,0.965 -3,-1 z m 8,2 c -0.667,0 -1.333,0 -2,0 0.667,-2.667 1.333,-2.667 2,0 z m 4,0 c 0.139,-1.837 0.806,-2.17 2,-1 -0.457,0.798 -1.124,1.131 -2,1 z m 6,-2 c 1.837,0.139 2.17,0.806 1,2 -0.798,-0.457 -1.131,-1.124 -1,-2 z m 5,0 c 1.837,0.139 2.17,0.806 1,2 -0.798,-0.457 -1.131,-1.124 -1,-2 z m 8,2 c -0.789,-0.283 -1.456,-0.783 -2,-1.5 1.316,-0.528 1.983,-0.028 2,1.5 z m 4,-2 c 1.333,0 2,0.667 2,2 0,-1.333 -0.667,-2 -2,-2 z m -47,3 c -0.139,1.837 -0.806,2.17 -2,1 0.457,-0.798 1.124,-1.131 2,-1 z m 3,0 c 1.175,-0.219 2.175,0.114 3,1 -1.552,1.298 -2.552,0.965 -3,-1 z m 6,0 c 1.837,0.139 2.17,0.806 1,2 -0.798,-0.457 -1.131,-1.124 -1,-2 z m 8,0 c -0.139,1.837 -0.806,2.17 -2,1 0.457,-0.798 1.124,-1.131 2,-1 z m 4,0 c 0.667,0 1.333,0 2,0 -0.667,2.667 -1.333,2.667 -2,0 z m 8,2 c -1.837,-0.139 -2.17,-0.806 -1,-2 0.798,0.457 1.131,1.124 1,2 z m 4,-2 c 1.837,0.139 2.17,0.806 1,2 -0.798,-0.457 -1.131,-1.124 -1,-2 z m 5,0 c 1.175,-0.219 2.175,0.114 3,1 -1.552,1.298 -2.552,0.965 -3,-1 z m 6,0 c 3.297,-0.171 3.631,0.495 1,2 -0.798,-0.457 -1.131,-1.124 -1,-2 z m -47,5 c -0.667,0 -1.333,0 -2,0 0.667,-2.667 1.333,-2.667 2,0 z m 10,-2 c 1.837,0.139 2.17,0.806 1,2 -0.798,-0.457 -1.131,-1.124 -1,-2 z m 5,0 c 1.175,-0.219 2.175,0.114 3,1 -1.552,1.298 -2.552,0.965 -3,-1 z m 6,2 c 0.139,-1.837 0.806,-2.17 2,-1 -0.457,0.798 -1.124,1.131 -2,1 z m 6,-2 c 1.837,0.139 2.17,0.806 1,2 -0.798,-0.457 -1.131,-1.124 -1,-2 z m 6,0 c 1.333,0 2,0.667 2,2 0,-1.333 -0.667,-2 -2,-2 z m 5,0 c 2.483,0.23 2.983,0.897 1.5,2 -1.03,-0.336 -1.53,-1.003 -1.5,-2 z m 6,0 c 1.837,0.139 2.17,0.806 1,2 -0.798,-0.457 -1.131,-1.124 -1,-2 z m -32,5 c 0.139,-1.837 0.806,-2.17 2,-1 -0.457,0.798 -1.124,1.131 -2,1 z m 8,-2 c 0,1.333 -0.667,2 -2,2 0,-1.333 0.667,-2 2,-2 z m 4,2 c 0.139,-1.837 0.806,-2.17 2,-1 -0.457,0.798 -1.124,1.131 -2,1 z m 8,0 c -1.837,-0.139 -2.17,-0.806 -1,-2 0.798,0.457 1.131,1.124 1,2 z m 4,-2 c 1.333,0 2,0.667 2,2 0,-1.333 -0.667,-2 -2,-2 z m 8,2 c -1,0 -2,0 -3,0 1,-2.667 2,-2.667 3,0 z m -11,1 c 1.703,-1.16 2.369,-0.493 2,2 -2.493,0.369 -3.16,-0.297 -2,-2 z m -6,0 c 1.837,0.139 2.17,0.806 1,2 -0.798,-0.457 -1.131,-1.124 -1,-2 z m 11,5 c -0.789,-0.283 -1.456,-0.783 -2,-1.5 1.316,-0.528 1.983,-0.028 2,1.5 z m -6,3 c 1.098,-0.897 1.098,-1.73 0,-2.5 0.948,-0.483 1.948,-0.649 3,-0.5 0,1 0,2 0,3 -1,0 -2,0 -3,0 z m 0,0 c -0.017,1.528 -0.684,2.028 -2,1.5 0.544,-0.717 1.211,-1.217 2,-1.5 z m -14,-87 c -0.262,-1.4778 0.071,-2.8112 1,-4 2.415,1.4187 2.581,3.0854 0.5,5 -0.383,-0.556 -0.883,-0.8893 -1.5,-1 z m -114,-4 c 0.667,0 1,0.3333 1,1 0.307,4.0079 -1.027,4.5079 -4,1.5 0.556,-0.3826 0.889,-0.8826 1,-1.5 0.667,-0.3333 1.333,-0.6667 2,-1 z m -2,-2 c 0,1 0,2 0,3 -1,0 -2,0 -3,0 0,-1 0,-2 0,-3 1,0 2,0 3,0 z m 77,-4 c 0.667,0 1,0.3333 1,1 0,4 -2,6 -6,6 0,-1 0,-2 0,-3 1,0 2,0 3,0 -0.271,-1.8797 0.396,-3.213 2,-4 z m -74,1 c 0.667,0 1,0.3333 1,1 -0.333,0.6667 -0.667,1.3333 -1,2 -0.667,0 -1,0.3333 -1,1 -0.667,-0.3333 -1.333,-0.6667 -2,-1 -0.333,-0.6667 -0.667,-1.3333 -1,-2 0.667,0 1,-0.3333 1,-1 1,-1.3333 2,-1.3333 3,0 z m 139,-9 c 1.828,1.2945 3.828,2.2945 6,3 0,1.3333 0,2.6667 0,4 -1.322,0.17 -2.489,-0.1634 -3.5,-1 -1.669,-1.6691 -2.502,-3.6691 -2.5,-6 z m -64,9 c 0,-0.6667 -0.333,-1 -1,-1 -1.111,-1.1597 -2.111,-2.493 -3,-4 -0.915,2.4803 -2.415,3.1469 -4.5,2 0.763,-1.8913 1.597,-3.8913 2.5,-6 2.412,-0.256 4.079,0.744 5,3 0.236,-0.7472 0.57,-1.5805 1,-2.5 2.634,-0.9248 3.801,-0.0915 3.5,2.5 -1.205,0.5712 -2.372,1.2379 -3.5,2 4.213,1.0272 4.713,2.6939 1.5,5 -0.383,-0.556 -0.883,-0.8893 -1.5,-1 z m -90,-9 c 0.6667,0 1,0.3333 1,1 1.3333,0 2,0.6667 2,2 0,1 0,2 0,3 4.0412,0.0739 4.7079,1.4072 2,4 -0.6835,-0.3627 -1.3501,-0.6961 -2,-1 0.2733,1.951 -0.3934,3.451 -2,4.5 1.7826,1.0665 2.2826,2.5665 1.5,4.5 -2.3949,2.8156 -5.2282,4.8156 -8.5,6 0,-1 0,-2 0,-3 -1,0 -2,0 -3,0 0,-1 0,-2 0,-3 1.9918,-0.1715 3.6585,0.4951 5,2 1.0237,-1.3532 2.357,-2.0198 4,-2 0,-1 0,-2 0,-3 -1,0 -2,0 -3,0 0,-1 0,-2 0,-3 3.7998,-0.3194 3.9665,-1.3194 0.5,-3 -0.4828,-0.948 -0.6495,-1.948 -0.5,-3 4,-0.6667 4,-1.3333 0,-2 0,-1.3333 0,-2.6667 0,-4 1,0 2,0 3,0 z m 3,9 c -0.7891,-0.2828 -1.4558,-0.7828 -2,-1.5 1.316,-0.5281 1.9827,-0.0281 2,1.5 z m -11,-9 c 2.4118,0.1941 3.4118,1.5274 3,4 -3.4536,0.2332 -4.4536,-1.1001 -3,-4 z m 61,1 c -0.667,0 -1,-0.3333 -1,-1 0.212,-1.8841 1.212,-3.2174 3,-4 -1.333,-2.6667 -0.667,-3.3333 2,-2 2.275,-3.7671 3.942,-3.4338 5,1 -3.151,1.7442 -6.151,3.7442 -9,6 z m -16,-10 c 0.667,0 1,0.3333 1,1 1,2.6667 2,2.6667 3,0 0.667,0 1,-0.3333 1,-1 1.17,1.7785 2.836,2.7785 5,3 -0.219,1.175 0.114,2.175 1,3 1.142,1.3262 2.476,2.3262 4,3 0,0.6667 0.333,1 1,1 0.321,1.5481 1.321,2.2148 3,2 0.149,1.052 -0.017,2.052 -0.5,3 -1.833,1.6667 -3.667,3.3333 -5.5,5 0.825,0.8857 1.825,1.219 3,1 0,1 0,2 0,3 -1,0 -2,0 -3,0 0,1 0,2 0,3 1,0 2,0 3,0 0,1 0,2 0,3 -3.8,0.3194 -3.966,1.3194 -0.5,3 0.483,0.948 0.649,1.948 0.5,3 -1.679,-0.2148 -2.679,0.4519 -3,2 -0.667,0 -1,0.3333 -1,1 -1.548,0.3212 -2.215,1.3212 -2,3 -1.679,-0.2148 -2.679,0.4519 -3,2 -0.667,0 -1,0.3333 -1,1 -1.563,1.8334 -3.23,3.5001 -5,5 -1,0 -2,0 -3,0 0.333,0.6667 0.667,1.3333 1,2 -0.667,0 -1,0.3333 -1,1 -1.333,0.6667 -2.333,1.6667 -3,3 -1,0 -2,0 -3,0 -1.271,-1.1848 -2.271,-3.1848 -3,-6 1,0 2,0 3,0 0,-1 0,-2 0,-3 1.175,0.219 2.175,-0.1143 3,-1 -4,-2 -4,-4 0,-6 -1.633,-2.003 -3.633,-3.3363 -6,-4 0,-1 0,-2 0,-3 -1,0 -2,0 -3,0 0,-1 0,-2 0,-3 1,0 2,0 3,0 0,-1 0,-2 0,-3 -1,0 -2,0 -3,0 0.219,-1.175 -0.114,-2.175 -1,-3 -0.743,1.4079 -1.577,2.7412 -2.5,4 -1.468,-1.4893 -2.968,-2.8226 -4.5,-4 0,-0.6667 -0.333,-1 -1,-1 0,-0.3333 0,-0.6667 0,-1 0.667,0 1,-0.3333 1,-1 1.333,0 2,-0.6667 2,-2 0.667,0 1,-0.3333 1,-1 1.333,0 2,-0.6667 2,-2 0.667,0 1,-0.3333 1,-1 1.333,0 2,-0.6667 2,-2 0.667,0 1,-0.3333 1,-1 1.333,0 2,-0.6667 2,-2 0.667,0 1,-0.3333 1,-1 1.333,0 2,-0.6667 2,-2 0.667,0 1,-0.3333 1,-1 1.333,0 2,-0.6667 2,-2 0.667,0 1,-0.3333 1,-1 1.53,-0.7112 2.863,-1.7112 4,-3 z m 1,1 c 1,1.3333 2,1.3333 3,0 -1,2.6667 -2,2.6667 -3,0 z m -2,3 c 2.501,0.0109 2.668,0.6776 0.5,2 -0.464,-0.5944 -0.631,-1.2611 -0.5,-2 z m 5,1 c 0.577,-1.2733 1.243,-1.2733 2,0 -0.47,0.963 -1.137,0.963 -2,0 z m -8,2 c 1.837,0.1395 2.17,0.8061 1,2 -0.798,-0.4569 -1.131,-1.1236 -1,-2 z m 5,0 c 1.175,-0.219 2.175,0.1143 3,1 -1.552,1.2979 -2.552,0.9646 -3,-1 z m 8,2 c -1.837,-0.1395 -2.17,-0.8061 -1,-2 0.798,0.4569 1.131,1.1236 1,2 z m -16,1 c 1.837,0.1395 2.17,0.8061 1,2 -0.798,-0.4569 -1.131,-1.1236 -1,-2 z m 17,0 c 0.667,0 1.333,0 2,0 -0.667,2.6667 -1.333,2.6667 -2,0 z m -20,3 c 1.837,0.1395 2.17,0.8061 1,2 -0.798,-0.4569 -1.131,-1.1236 -1,-2 z m 6,0 c 1.837,0.1395 2.17,0.8061 1,2 -0.798,-0.4569 -1.131,-1.1236 -1,-2 z m 5,0 c 1.175,-0.219 2.175,0.1143 3,1 -1.552,1.2979 -2.552,0.9646 -3,-1 z m 6,0 c 1.837,0.1395 2.17,0.8061 1,2 -0.798,-0.4569 -1.131,-1.1236 -1,-2 z m 6,0 c 1.837,0.1395 2.17,0.8061 1,2 -0.798,-0.4569 -1.131,-1.1236 -1,-2 z m -26,3 c 1.837,0.1395 2.17,0.8061 1,2 -0.798,-0.4569 -1.131,-1.1236 -1,-2 z m 8,2 c -1.837,-0.1395 -2.17,-0.8061 -1,-2 0.798,0.4569 1.131,1.1236 1,2 z m 15,0 c 0.017,-1.5281 0.684,-2.0281 2,-1.5 -0.544,0.7172 -1.211,1.2172 -2,1.5 z m -14,1 c 2.04,-0.9751 2.373,-0.3084 1,2 -0.798,-0.4569 -1.131,-1.1236 -1,-2 z m 5,-1 c 0.897,1.0981 1.73,1.0981 2.5,0 0.483,0.948 0.649,1.948 0.5,3 -1,0 -2,0 -3,0 0,-1 0,-2 0,-3 z m 8,1 c 0.131,0.8764 -0.202,1.5431 -1,2 -1.373,-2.3084 -1.04,-2.9751 1,-2 z m -25,2 c 0.139,-1.837 0.806,-2.1704 2,-1 -0.457,0.7975 -1.124,1.1309 -2,1 z m 6,-2 c 1.837,0.1395 2.17,0.8061 1,2 -0.798,-0.4569 -1.131,-1.1236 -1,-2 z m -7,3 c -0.283,0.7891 -0.783,1.4558 -1.5,2 -0.528,-1.316 -0.028,-1.9827 1.5,-2 z m 4,1 c 0.577,-1.2733 1.243,-1.2733 2,0 -0.47,0.963 -1.137,0.963 -2,0 z m 8,1 c -0.789,-0.2828 -1.456,-0.7828 -2,-1.5 1.316,-0.5281 1.983,-0.0281 2,1.5 z m 15,0 c 0.017,-1.5281 0.684,-2.0281 2,-1.5 -0.544,0.7172 -1.211,1.2172 -2,1.5 z m -20,0 c 1.965,0.4483 2.298,1.4483 1,3 -0.886,-0.825 -1.219,-1.825 -1,-3 z m 5,0 c 1,0 2,0 3,0 0,1 0,2 0,3 -1.644,-0.3102 -2.644,-1.3102 -3,-3 z m 6,0 c 1,0 2,0 3,0 0,1 0,2 0,3 -1,0 -2,0 -3,0 0,-1 0,-2 0,-3 z m 9,0 c 0.789,-0.2828 1.456,-0.7828 2,-1.5 -1.316,-0.5281 -1.983,-0.0281 -2,1.5 z m -18,6 c 1.783,-3.5595 2.783,-3.5595 3,0 -1,0 -2,0 -3,0 z m 18,-3 c 2.473,0.4473 2.64,1.4473 0.5,3 -0.483,-0.948 -0.649,-1.948 -0.5,-3 z m -18,3 c -0.139,1.837 -0.806,2.1704 -2,1 0.457,-0.7975 1.124,-1.1309 2,-1 z m 4,0 c 1.837,0.1395 2.17,0.8061 1,2 -0.798,-0.4569 -1.131,-1.1236 -1,-2 z m 5,0 c 1,0 2,0 3,0 -1,2.6667 -2,2.6667 -3,0 z m 6,0 c 1.837,0.1395 2.17,0.8061 1,2 -0.798,-0.4569 -1.131,-1.1236 -1,-2 z m -14,5 c 0.139,-1.837 0.806,-2.1704 2,-1 -0.457,0.7975 -1.124,1.1309 -2,1 z m 7,0 c -0.333,0 -0.667,0 -1,0 -0.131,-0.8764 0.202,-1.5431 1,-2 0.963,0.4698 0.963,1.1365 0,2 z m 6,0 c -0.333,0 -0.667,0 -1,0 -0.963,-0.8635 -0.963,-1.5302 0,-2 0.798,0.4569 1.131,1.1236 1,2 z m 6,0 c -1.837,-0.1395 -2.17,-0.8061 -1,-2 0.798,0.4569 1.131,1.1236 1,2 z m -14,1 c -0.139,1.837 -0.806,2.1704 -2,1 0.457,-0.7975 1.124,-1.1309 2,-1 z m 3,0 c 1,0 2,0 3,0 -1,2.6667 -2,2.6667 -3,0 z m 6,0 c 1.837,0.1395 2.17,0.8061 1,2 -0.798,-0.4569 -1.131,-1.1236 -1,-2 z m -8,3 c 0.789,0.2828 1.456,0.7828 2,1.5 -1.316,0.5281 -1.983,0.0281 -2,-1.5 z m 6,0 c 1.273,0.5768 1.273,1.2435 0,2 -0.963,-0.4698 -0.963,-1.1365 0,-2 z m -7,5 c -1.837,-0.1395 -2.17,-0.8061 -1,-2 0.798,0.4569 1.131,1.1236 1,2 z m 6,0 c -1,0 -2,0 -3,0 1,-2.6667 2,-2.6667 3,0 z m -5,1 c 0.333,0 0.667,0 1,0 1.114,1.8531 0.448,2.3531 -2,1.5 0.556,-0.3826 0.889,-0.8826 1,-1.5 z m -1,5 c -1.837,-0.1395 -2.17,-0.8061 -1,-2 0.798,0.4569 1.131,1.1236 1,2 z m -6,0 c 1,0 2,0 3,0 -0.589,3.7965 -1.589,3.7965 -3,0 z m 12,-52 c 0.333,0.6667 0.667,1.3333 1,2 -0.667,0 -1,0.3333 -1,1 -1,1.3333 -2,1.3333 -3,0 0,-0.6667 -0.333,-1 -1,-1 0.333,-0.6667 0.667,-1.3333 1,-2 1,-1.33333 2,-1.33333 3,0 z m 6,-3 c 1,0 2,0 3,0 0,1 0,2 0,3 -1.88,0.2709 -3.213,-0.3958 -4,-2 0.667,0 1,-0.33333 1,-1 z m -6,0 c 1,0 2,0 3,0 0,1 0,2 0,3 -1,0 -2,0 -3,0 0,-1 0,-2 0,-3 z m -3,0 c 0,1 0,2 0,3 -1,0 -2,0 -3,0 0,-1 0,-2 0,-3 1,0 2,0 3,0 z m 3,0 c -1,1.33333 -2,1.33333 -3,0 -1.195,-1.85012 -0.529,-2.85012 2,-3 2.303,0.37627 2.637,1.37627 1,3 z m 6,0 c -0.667,0 -1,0.33333 -1,1 -0.667,-0.33333 -1.333,-0.66667 -2,-1 -1.372,-1.84952 -0.872,-3.18285 1.5,-4 1.188,1.06341 1.688,2.39674 1.5,4 z m -14,8 c -0.667,0 -1,0.3333 -1,1 -1.333,0 -2,0.6667 -2,2 -0.667,0 -1,0.3333 -1,1 -1.333,0 -2,0.6667 -2,2 -0.667,0 -1,0.3333 -1,1 -1.333,0 -2,0.6667 -2,2 -0.667,0 -1,0.3333 -1,1 -1.333,0 -2,0.6667 -2,2 -0.667,0 -1,0.3333 -1,1 -1.333,0 -2,0.6667 -2,2 -0.667,0 -1,0.3333 -1,1 -0.333,0 -0.667,0 -1,0 0,-0.6667 -0.333,-1 -1,-1 -1,-2.6667 -2,-2.6667 -3,0 -0.667,0 -1,0.3333 -1,1 -1.6042,-0.787 -2.2709,-2.1203 -2,-4 1.052,0.1495 2.052,-0.0172 3,-0.5 -0.333,-0.3333 -0.667,-0.6667 -1,-1 1.259,-0.9234 2.592,-1.7568 4,-2.5 -2.237,-0.6321 -3.903,-1.9654 -5,-4 -1.1904,1.9532 -2.5237,3.7865 -4,5.5 -1.0768,0.4696 -2.0768,0.3029 -3,-0.5 0,-1.3333 -0.6667,-2 -2,-2 0,-0.6667 -0.3333,-1 -1,-1 -0.3212,-1.5481 -1.3212,-2.2148 -3,-2 -0.203,-2.1382 -1.203,-3.8049 -3,-5 2.1457,-3.4844 5.1457,-5.81768 9,-7 0,-1 0,-2 0,-3 3.069,-1.42704 4.069,-0.5937 3,2.5 0.948,0.48278 1.948,0.64945 3,0.5 1,-5.33333 2,-5.33333 3,0 1,0 2,0 3,0 0.169,-4.07889 1.169,-4.57889 3,-1.5 -0.259,1.26131 -0.926,2.26131 -2,3 1.393,1.1711 2.227,2.6711 2.5,4.5 1.419,-2.7956 3.585,-4.79557 6.5,-6 3.576,1.874 6.243,4.5407 8,8 z m -30,-5 c -0.1395,1.837 -0.8061,2.1704 -2,1 0.4569,-0.7975 1.1236,-1.1309 2,-1 z m 6,3 c -0.6667,-0.3333 -1.3333,-0.6667 -2,-1 -1.1602,-1.7027 -0.4935,-2.3693 2,-2 0,1 0,2 0,3 z m 3,-3 c 1,0 2,0 3,0 0.149,1.052 -0.017,2.052 -0.5,3 -0.667,-1.3333 -1.333,-1.3333 -2,0 -0.483,-0.948 -0.649,-1.948 -0.5,-3 z m 12,0 c 1.837,0.1395 2.17,0.8061 1,2 -0.798,-0.4569 -1.131,-1.1236 -1,-2 z m -26,5 c 0.1395,-1.837 0.8061,-2.1704 2,-1 -0.4569,0.7975 -1.1236,1.1309 -2,1 z m 8,-2 c -0.3102,1.6436 -1.3102,2.6436 -3,3 -0.1495,-1.052 0.0172,-2.052 0.5,-3 0.7697,1.0981 1.603,1.0981 2.5,0 z m 3,0 c 0.789,0.2828 1.456,0.7828 2,1.5 -1.316,0.5281 -1.9827,0.0281 -2,-1.5 z m 20,0 c -0.017,1.5281 -0.684,2.0281 -2,1.5 0.544,-0.7172 1.211,-1.2172 2,-1.5 z m -26,3 c -0.1395,1.837 -0.8061,2.1704 -2,1 0.4569,-0.7975 1.1236,-1.1309 2,-1 z m 4,0 c 1.837,0.1395 2.1704,0.8061 1,2 -0.7975,-0.4569 -1.1309,-1.1236 -1,-2 z m 5,0 c 1.175,-0.219 2.175,0.1143 3,1 -1.552,1.2979 -2.552,0.9646 -3,-1 z m 6,0 c 1.837,0.1395 2.17,0.8061 1,2 -0.798,-0.4569 -1.131,-1.1236 -1,-2 z m 6,0 c 1.837,0.1395 2.17,0.8061 1,2 -0.798,-0.4569 -1.131,-1.1236 -1,-2 z m -20,5 c 0.1395,-1.837 0.8061,-2.1704 2,-1 -0.4569,0.7975 -1.1236,1.1309 -2,1 z m 13,0 c -0.789,-0.2828 -1.456,-0.7828 -2,-1.5 1.316,-0.5281 1.983,-0.0281 2,1.5 z m 6,0 c -1.837,-0.1395 -2.17,-0.8061 -1,-2 0.798,0.4569 1.131,1.1236 1,2 z m -5,1 c 1.837,0.1395 2.17,0.8061 1,2 -0.798,-0.4569 -1.131,-1.1236 -1,-2 z m -3,3 c 1.837,0.1395 2.17,0.8061 1,2 -0.798,-0.4569 -1.131,-1.1236 -1,-2 z m 0,5 c -1,-1.3333 -2,-1.3333 -3,0 1,-2.6667 2,-2.6667 3,0 z m -12,-26 c -0.6667,-1.33333 -0.6667,-1.33333 0,0 z" />
  </g>
</svg>
