<?xml version="1.0" encoding="UTF-8" standalone="no"?>
<!-- Created with Inkscape (http://www.inkscape.org/) -->

<svg
   version="1.1"
   id="svg2"
   width="347"
   height="231"
   viewBox="0 0 347 231"
   xmlns="http://www.w3.org/2000/svg"
   xmlns:svg="http://www.w3.org/2000/svg">
  <defs
     id="defs6" />
  <g
     id="g8">
    <path
       style="fill:#998a00;fill-opacity:1"
       d="m 291.73132,126 c -0.38564,-4.675 -0.9997,-15.3628 -1.36458,-23.75066 -0.39701,-9.126597 -1.10579,-15.599699 -1.76507,-16.119863 C 287.99575,85.651416 280.75,84.967561 272.5,84.609798 264.25,84.252036 253.675,83.646162 249,83.263412 l -8.5,-0.695908 6.5,-0.674102 c 3.575,-0.370756 14.49341,-1.006141 24.26313,-1.411966 17.01344,-0.706722 17.78125,-0.827412 18.19262,-2.859649 C 289.69198,76.454804 290.14147,69.425 290.45461,62 c 0.72116,-17.099231 1.70736,-31.171362 2.1533,-30.725427 0.18946,0.189459 0.8333,10.217685 1.43077,22.284949 0.59747,12.067263 1.27727,22.895282 1.51068,24.062265 0.40653,2.032511 1.17178,2.152832 18.18751,2.859649 9.76972,0.405825 20.68813,1.04121 24.26313,1.411966 l 6.5,0.674102 -8.5,0.695908 c -4.675,0.38275 -15.25,0.988624 -23.5,1.346386 -8.25,0.357763 -15.50821,1.051962 -16.12936,1.542665 -0.70561,0.55742 -1.40468,7.356355 -1.86311,18.119857 C 294.10397,113.74755 293.472,124.425 293.10314,128 l -0.67064,6.5 z"
       id="path995" />
    <path
       style="fill:#cccccc"
       d="m 300,125.5 c 0,-31.151515 -0.32487,-38.159041 0.81735,-38.159041 0.75625,0 3.94725,-0.103816 5.71669,-0.01665 C 309.71707,87.481098 309,86.75 309,99.195734 v 12.445736 l 8.34114,-0.4378 c 11.01813,-0.5783 16.46223,1.60781 19.82814,7.9621 2.12665,4.01477 2.32225,5.78995 2.65372,24.08423 l 0.35786,19.75 h -4.4933 -4.49329 l -0.34714,-17.75 c -0.30733,-15.71507 -0.58228,-18.15125 -2.39826,-21.25 -2.78057,-4.74469 -7.51823,-6.32114 -14.10858,-4.69461 L 309.5,120.5 309.23011,141.75 308.96022,163 H 304.48011 300 Z"
       id="path993" />
    <path
       style="fill:#cccccc"
       d="M 187,138.13805 V 113.2761 l 5.66678,-1.13805 C 195.78351,111.51212 201.87644,111 206.20662,111 c 10.00647,0 14.7966,2.19754 18.0125,8.26346 2.06538,3.89579 2.27482,5.82505 2.60388,23.98654 l 0.35786,19.75 h -4.4933 -4.49329 l -0.34714,-17.75 c -0.30733,-15.71507 -0.58228,-18.15125 -2.39826,-21.25 -2.57408,-4.39234 -7.32453,-6.13785 -14.07758,-5.17269 L 196.5,119.52352 196.2305,141.26176 195.961,163 H 191.4805 187 Z"
       id="path991" />
    <path
       style="fill:#cccccc"
       d="m 148.39467,162.86267 c -2.25793,-0.50773 -5.93617,-2.49028 -8.17387,-4.40567 -5.77052,-4.93935 -8.16646,-10.85037 -7.66504,-23.33438 0.33553,-8.35375 1.37516,-10.32903 3.74736,-14.37688 1.73669,-2.96344 4.40477,-5.66232 7.24066,-7.32427 4.00939,-2.34966 5.3193,-2.59362 12.22342,-2.27657 6.20538,0.28496 8.39966,0.83071 11.10886,2.76295 4.39329,3.13337 7.30414,9.87852 7.90856,18.32604 L 175.26873,139 h -16.71382 -16.71382 l 0.66738,3.25 c 1.13556,5.5299 3.94173,9.98356 7.54202,11.9699 3.4558,1.90663 6.58242,1.94226 17.07214,0.19459 3.4953,-0.58235 3.64019,-0.48602 4.12252,2.74097 0.58066,3.88484 -0.006,4.40566 -6.54437,5.81218 -5.62244,1.20944 -10.60337,1.17738 -16.30611,-0.10497 z m 16.26652,-34.56309 c -0.6777,-4.1762 -4.84524,-8.8731 -8.66119,-9.76134 -4.65005,-1.08239 -12.98498,6.42874 -12.99626,11.71176 -0.003,1.56208 1.19154,1.75 11.1271,1.75 h 11.13084 z"
       id="path989" />
    <path
       style="fill:#cccccc"
       d="M 25.969379,162.46406 C 12.761332,158.39245 4.7879707,142.86652 6.3592207,124.27865 7.4338797,111.56545 13.300724,101.55108 22.5,96.727263 25.430915,95.19038 28.920667,94.516 35.556971,94.204055 c 11.459724,-0.538672 17.344061,1.667528 23.901978,8.961515 6.250472,6.95202 8.044166,12.83641 8.027333,26.33443 -0.01248,10.00388 -0.276238,11.57125 -2.912691,17.30822 -3.564328,7.75604 -9.8639,13.60658 -16.901145,15.69641 -6.192341,1.83893 -15.663506,1.82122 -21.703067,-0.0406 z m 18.915139,-8.40515 c 12.389623,-6.32071 16.986168,-25.5833 9.672128,-40.53266 -5.964684,-12.19137 -20.148269,-15.392219 -29.776523,-6.71974 -7.733436,6.96575 -10.636821,19.43091 -7.352192,31.56531 3.822767,14.12244 16.417941,21.31859 27.456587,15.68709 z"
       id="path987" />
    <path
       style="fill:#cccccc"
       d="m 331.71258,179.37924 c -0.92335,-0.92337 -0.6932,-10.92576 -0.39802,-14.2536 0.022,-0.24745 0.0426,-0.62869 0.12686,-0.79879 C 331.60075,164.00528 331.87227,164 332,164 c 0.27589,0 0.60727,0.002 0.78866,0.36698 0.0766,0.15391 0.15205,0.54746 0.15349,0.75297 0.002,0.2828 0.031,0.54685 0.0578,0.88005 0.0555,0.6872 -0.055,1.48525 0.28676,1.81879 0.31921,0.3115 1.0694,0.18121 1.71329,0.18121 0.61645,0 1.46159,0.0653 1.82922,0.28634 0.28836,0.17339 0.24682,0.44654 0.24682,0.68831 0,0.2258 -0.0297,0.59951 -0.29279,0.76738 -0.37764,0.24103 -1.17767,0.25797 -1.84661,0.25797 -0.62486,0 -1.18648,-0.15426 -1.47621,0.0638 -0.51035,0.38417 -0.44094,1.45254 -0.27379,3.18616 0.15131,1.56926 -0.14536,3.36065 0.48172,3.8806 0.37909,0.31431 1.64312,0.15867 2.3167,0.25415 1.2692,0.17991 1.62162,0.3145 1.64406,0.99305 0.009,0.25775 0.16483,0.71899 -0.22066,0.9404 -0.69241,0.3977 -1.84254,0.44556 -2.94352,0.47762 -1.18506,0.0345 -2.31319,0.0226 -2.75236,-0.41658 z"
       id="path985" />
    <path
       style="fill:#cccccc"
       d="m 314.5567,177.77749 c -1.80974,-2.58377 -1.97844,-5.12094 -0.52152,-7.84323 1.31277,-2.45292 6.51028,-2.42782 7.95227,-0.35247 0.60961,0.87736 0.77019,1.72851 0.81801,2.32839 C 322.93381,173.52041 322.08715,174 319.5,174 c -1.925,0 -3.5,0.3949 -3.5,0.87756 0,1.59394 2.71784,3.16794 4.37325,2.5327 1.08644,-0.4169 1.62675,-0.0905 1.62675,0.98275 0,2.5447 -5.55133,2.08564 -7.4433,-0.61552 z M 320,171 c 0,-0.55 -0.64844,-1 -1.44098,-1 -0.79254,0 -1.7191,0.45 -2.05902,1 -0.33992,0.55 0.30852,1 1.44098,1 1.13246,0 2.05902,-0.45 2.05902,-1 z"
       id="path983" />
    <path
       style="fill:#cccccc"
       d="m 296,174 c 0,-3.43018 0.17743,-4.7726 0.91827,-5.40184 C 297.47329,168.12674 298.26668,168 299.96482,168 304.63936,168 306,169.78879 306,175.93426 306,178.81308 305.5781,180 304.55479,180 c -1.0142,0 -1.33332,-1.43928 -1.54722,-4.76636 -0.11568,-1.79941 -0.20022,-3.11114 -0.5248,-3.9013 -0.3198,-0.77851 -1.07836,-1.0224 -1.73277,-1.14667 -0.5373,-0.10203 -0.99252,0.22669 -1.28987,0.50457 -0.52189,0.48774 -0.66291,1.45175 -0.66291,4.18574 0,3.84295 -0.161,5.12402 -1.29722,5.12402 -1.16667,0 -1.5,-1.33333 -1.5,-6 z"
       id="path981" />
    <path
       style="fill:#cccccc"
       d="m 285,178.5 c 0,-0.825 0.675,-1.5 1.5,-1.5 0.825,0 1.5,0.675 1.5,1.5 0,0.825 -0.675,1.5 -1.5,1.5 -0.825,0 -1.5,-0.675 -1.5,-1.5 z"
       id="path979" />
    <path
       style="fill:#cccccc"
       d="M 252.10196,164.19722 C 252.00653,164.53028 252,164.95596 252,165.5 c 0,2.10452 0.46901,2.5 2.96482,2.5 4.82664,0 6.97578,6.9338 3.20644,10.34501 -1.83203,1.65796 -6.25276,2.24015 -7.50459,0.98832 C 250.3,178.96667 250,175.18981 250,170.94032 c -0.15692,-2.33324 -0.16886,-4.67487 -0.24334,-6.80542 m -5.19828,-2.78487 C 242.14017,161.35003 242,162 242,129.125 V 96.25 l 3.125,-0.625 C 246.84375,95.28125 253.06359,95 258.94686,95 c 12.73153,0 18.6906,1.684128 22.89246,6.46977 5.12833,5.84085 5.00613,16.95078 -0.24675,22.43361 -2.5677,2.6801 -2.5677,2.6801 0.42499,4.44792 1.64597,0.9723 3.74563,3.20352 4.66591,4.95826 2.29708,4.37996 2.31192,15.16113 0.0267,19.41176 -1.12954,2.10101 -4.61333,4.77032 -8.77435,6.28564 -1.13756,0.41427 -3.59649,1.37462 -6.94927,2.01386 -2.61758,0.49906 -5.72777,0.70112 -9.00262,0.83008 -6.20667,0.24439 -12.11874,-0.16289 -13.3267,-0.23436 m 21.38962,1.43024 c 0.003,0.56536 -0.0468,0.8886 -0.0468,2.01767 0,2.43799 0.42908,2.8502 3.25,3.12219 1.44375,0.1392 1.89205,0.58462 2.3657,1.15784 0.58048,0.70251 1.02093,1.7751 1.1842,4.90552 0.1367,2.62095 0.0678,4.65671 -0.26747,5.46228 -0.11749,0.28227 -0.36862,0.34149 -0.5363,0.34149 -0.16968,0 -0.40199,-0.0611 -0.54422,-0.29638 C 275.11014,179.192 275,177.90939 275,176.58179 275,171.86909 274.11768,170 271.89301,170 270.28806,170 270,170.76086 270,175 c 0,1.84489 -0.16668,3.8053 -0.32268,4.70758 -0.0766,0.44317 -0.47838,0.39996 -0.6594,0.39996 -0.13968,0 -0.44865,0.0177 -0.56528,-0.35021 C 268.07811,178.57582 268,175.3127 268,171.5 V 163 m -12.04568,13.55504 c 0.65956,-0.79472 1.05216,-2.48222 0.87244,-3.75 -0.45116,-3.18257 -4.20445,-3.16831 -4.65584,0.0177 -0.6481,4.57438 1.40425,6.59901 3.7834,3.73231 z m 16.00779,-23.80357 c 6.11517,-3.11973 8.50425,-9.01516 5.52096,-14.7842 -2.31394,-4.47467 -6.73054,-6.2066 -17.22761,-6.75567 L 251,130.72748 v 12.06671 c 0,11.70545 0.28615,10.01851 2.46875,10.48178 3.11082,0.66029 9.35672,0.65022 13.90711,0.30831 1.66968,-0.12546 3.62261,-0.3412 4.58625,-0.83281 z m -5.55463,-29.70553 c 5.00317,-1.1605 8.49568,-4.67433 9.24686,-9.3033 0.50758,-3.12787 0.1682,-4.07394 -2.37301,-6.61516 -3.5645,-3.5645 -9.52218,-5.33571 -16.57645,-4.92817 L 251.5,102.5 l -0.28383,10.75 -0.28383,10.75 5.78383,-0.0239 c 3.18111,-0.0131 7.5422,-0.43171 9.69131,-0.9302 z"
       id="path977" />
    <path
       style="fill:#cccccc"
       d="m 232,174 c 0,-6 0,-6 3.96482,-6 4.67454,0 6.03518,1.78879 6.03518,7.93426 0,2.87882 -0.4219,4.06574 -1.44521,4.06574 -1.0142,0 -1.53611,-1.41393 -1.75,-4.74101 -0.22966,-3.5723 -0.73618,-4.82292 -2.05479,-5.07332 -1.48037,-0.28112 -1.75,0.44934 -1.75,4.74101 0,3.84295 -0.36378,5.07332 -1.5,5.07332 -1.16667,0 -1.5,-1.33333 -1.5,-6 z"
       id="path975" />
    <path
       style="fill:#cccccc"
       d="m 216.75,178.94366 c -2.05425,-1.22438 -2.42907,-7.86459 -0.55,-9.74366 1.90147,-1.90147 6.59158,-1.45796 7.76482,0.73426 1.73112,3.23464 1.21034,3.93787 -3.15342,4.25824 -2.56389,0.18823 -2.9982,0.43963 -3.10179,0.93535 -0.0811,0.38829 -0.23087,1.18449 0.30537,1.71752 1.01353,1.00744 2.79637,0.75522 4.10131,0.41397 1.5523,-0.40594 2.02309,-0.17228 1.69047,0.83902 -0.57354,1.74382 -4.71657,2.2401 -7.05676,0.8453 z M 221.2,170.8 c -0.93333,-0.93333 -1.46667,-0.93333 -2.4,0 -0.93333,0.93333 -0.66667,1.2 1.2,1.2 1.86667,0 2.13333,-0.26667 1.2,-1.2 z"
       id="path973" />
    <path
       style="fill:#cccccc"
       d="m 180.5567,177.77749 c -1.37667,-1.96547 -1.20524,-4.07949 -0.86661,-5.78289 C 180.15828,169.63949 181.50067,168 184.5,168 c 3.73478,0 5.27187,1.96462 5.27187,6.22857 0,1.07799 -0.46458,2.03707 -0.94504,2.84247 -1.81854,3.0485 -6.001,3.94609 -8.27013,0.70645 z m 6.24386,-4.69189 C 186.58914,171.26685 185.90683,170.5 184.5,170.5 c -2.37517,0 -3.28991,3.84329 -1.44409,6.06737 1.73032,2.0849 4.13214,-0.14832 3.74465,-3.48177 z"
       id="path971" />
    <path
       style="fill:#cccccc"
       d="M 168,178.57332 C 168,177.64569 168.855,177 170.08333,177 c 2.43705,0 2.09257,2.33677 -0.4162,2.82332 C 168.68037,180.0147 168,179.50456 168,178.57332 Z"
       id="path969" />
    <path
       style="fill:#cccccc"
       d="M 147.68262,174.66211 C 145.64269,168.19071 145.63519,168 147.42054,168 c 0.7813,0 1.72683,1.39448 2.10117,3.09884 0.70317,3.20153 2.0129,2.90499 2.64492,-0.59884 0.58018,-3.21644 3.12266,-2.30255 4.17305,1.5 l 0.96681,3.5 0.94609,-3.75 c 0.52935,-2.09815 1.56308,-3.75 2.34676,-3.75 1.76364,0 1.75519,0.19951 -0.28196,6.66211 -1.85582,5.88732 -3.64609,6.79524 -5.10294,2.58789 l -0.95222,-2.75 -1.29162,2.75 c -1.92229,4.09273 -3.4119,3.36373 -5.28798,-2.58789 z"
       id="path967" />
    <path
       style="fill:#cccccc"
       d="M 125.68262,174.66211 C 123.64269,168.19071 123.63519,168 125.42054,168 c 0.7813,0 1.72683,1.39448 2.10117,3.09884 0.70317,3.20153 2.0129,2.90499 2.64492,-0.59884 0.58018,-3.21644 3.12266,-2.30255 4.17305,1.5 l 0.96681,3.5 0.94609,-3.75 c 0.52935,-2.09815 1.56308,-3.75 2.34676,-3.75 1.76364,0 1.75519,0.19951 -0.28196,6.66211 -1.85582,5.88732 -3.64609,6.79524 -5.10294,2.58789 l -0.95222,-2.75 -1.29162,2.75 c -1.92229,4.09273 -3.4119,3.36373 -5.28798,-2.58789 z"
       id="path965" />
    <path
       style="fill:#cccccc"
       d="m 105.66429,179.25 c -0.24955,-0.4125 -1.15186,-3.1125 -2.00511,-6 -1.35471,-4.58445 -1.36489,-5.25 -0.0803,-5.25 0.83456,0 1.73072,1.2981 2.0711,3 0.33,1.65 0.9375,3 1.35,3 0.4125,0 1.02,-1.35 1.35,-3 0.83023,-4.15113 3.09548,-3.75588 4.29837,0.75 l 1.0011,3.75 0.78656,-3.75 c 0.45211,-2.15551 1.37703,-3.75 2.17526,-3.75 1.74501,0 1.73462,0.47219 -0.15003,6.8185 -1.70835,5.75265 -3.76152,6.70198 -5.25873,2.4315 l -0.96414,-2.75 -1.09444,2.75 c -1.06291,2.67076 -2.55501,3.52837 -3.47966,2 z"
       id="path963" />
    <path
       style="fill:#cccccc"
       d="m 81,146.63664 0.05377,-35.42456 5.847731,0.01 c 1.230273,0.002 9.676893,-0.27706 14.378889,-0.0801 7.5637,0.31685 9.04876,0.70463 12.88434,3.36432 2.83882,1.96851 5.28452,4.87815 7.08527,8.42931 2.4027,4.73825 2.74877,6.56866 2.74023,14.49381 -0.008,7.40614 -0.44052,9.99573 -2.3571,14.11156 -2.82087,6.05778 -7.24221,10.00562 -12.9286,11.54403 -4.12235,1.11527 -13.495148,0.78404 -16.954531,-0.59916 C 90.160218,161.85008 90,162.6198 90,170.89301 V 180 H 85.5 81 Z m 26.58004,7.47768 c 8.54154,-5.20862 9.72508,-22.45735 2.10978,-30.74753 -3.6448,-3.9678 -7.84316,-4.67915 -14.723693,-4.46273 l -4.440779,0.13968 -0.3003,16.74398 c 0,0 -0.596321,14.45868 0.585379,17.1839 0.622556,1.43573 3.235385,2.19125 3.235385,2.19125 6.053708,0.69828 9.621458,1.33745 13.534228,-1.04851 z"
       id="path961" />
    <path
       style="fill:#cccccc"
       d="m 198.12674,175.8918 c 0,0 -0.0978,-6.12584 0.583,-7.29706 0.19048,-0.32769 3.5217,-0.40224 3.5217,-0.40224 3.6264,0.003 4.37457,0.71679 5.21698,3.12557 1.34155,3.83604 -1.01254,8.06566 -4.72996,8.49835 -0.90052,0.10482 -1.746,0.0677 -2.18734,0.39592 -0.49551,0.36854 -0.53112,1.13495 -0.53112,1.85408 0,0.57737 -0.0186,1.3132 -0.22784,1.66829 C 199.59597,184.03366 199.2514,184 199,184 c -0.12963,0 -0.31435,-0.0131 -0.42472,-0.32167 -0.3868,-1.08135 -0.44854,-4.126 -0.44854,-7.78653 z m 6.86408,-3.50994 C 204.56631,170.69049 203.27727,170 201.98095,170 c -0.66586,0 -0.92189,0.22498 -1.20077,0.57041 -0.38626,0.47843 -0.65344,1.28101 -0.65344,2.87161 0,2.33912 0.62282,3.30065 1.62034,3.51501 0.59507,0.12787 1.50092,0.44486 2.31,-0.31486 0.87703,-0.8235 1.34611,-2.61731 0.93374,-4.26031 z"
       id="path861" />
  </g>
</svg>
