<?xml version="1.0" encoding="UTF-8" standalone="no"?>
<!-- Created with Inkscape (http://www.inkscape.org/) -->

<svg
   version="1.1"
   id="svg2"
   width="400"
   height="289.33334"
   viewBox="0 0 400 289.33334"
   sodipodi:docname="imagelogo (5).png"
   xmlns:inkscape="http://www.inkscape.org/namespaces/inkscape"
   xmlns:sodipodi="http://sodipodi.sourceforge.net/DTD/sodipodi-0.dtd"
   xmlns="http://www.w3.org/2000/svg"
   xmlns:svg="http://www.w3.org/2000/svg">
  <defs
     id="defs6" />
  <sodipodi:namedview
     id="namedview4"
     pagecolor="#505050"
     bordercolor="#ffffff"
     borderopacity="1"
     inkscape:showpageshadow="0"
     inkscape:pageopacity="0"
     inkscape:pagecheckerboard="1"
     inkscape:deskcolor="#505050"
     showgrid="false" />
  <g
     inkscape:groupmode="layer"
     inkscape:label="Image"
     id="g8">
    <path
       style="display:inline;fill:#cccccc;stroke-width:1.33333"
       d="M 387.33333,286.63705 C 385.86667,285.98667 368.16667,279.38455 348,271.96567 327.83333,264.54678 306.23333,256.55386 300,254.20363 l -11.33333,-4.27316 -0.41,-5.63189 c -0.2255,-3.09755 -0.0347,-5.63191 0.4241,-5.63191 0.71222,0 38.09116,11.93072 83.1655,26.54502 6.88212,2.23137 12.97705,3.7702 13.54429,3.41961 0.56725,-0.35057 1.11236,-41.42716 1.21136,-91.2813 0.1462,-73.61637 -0.14391,-90.529139 -1.54429,-90.033125 -0.94836,0.335908 -9.5243,2.458035 -19.05763,4.715835 -18.75007,4.440622 -38.55913,9.1972 -72,17.28875 -11.73333,2.83907 -25.68333,6.15127 -31,7.36045 l -9.66667,2.1985 v 5.22646 c 0,4.33758 -0.45353,5.22647 -2.66666,5.22647 -2.40818,0 -2.66667,-0.88889 -2.66667,-9.17008 0,-5.83303 0.62223,-9.68648 1.70987,-10.58914 0.94042,-0.78048 8.29042,-3.30023 16.33333,-5.59942 8.04291,-2.2992 18.40035,-5.260971 23.01655,-6.581719 4.6162,-1.320748 8.75769,-2.765976 9.20333,-3.211619 0.44565,-0.445643 -1.68124,-10.00072 -4.72641,-21.233506 -5.99316,-22.107121 -6.33384,-24.10247 -3.98135,-23.318303 0.85543,0.285143 4.12701,10.006719 7.27017,21.603503 3.14316,11.596783 5.9978,21.368017 6.34364,21.713853 0.34583,0.345834 2.27678,-0.175742 4.29098,-1.159059 3.51624,-1.716607 3.9704,-3.195792 11.3974,-37.121182 4.25436,-19.433334 8.69277,-39.683334 9.86313,-45.0000011 2.02784,-9.21200725 4.66251,-13.056594 4.56861,-6.6666668 -0.0243,1.65 -4.16144,21.6000009 -9.19376,44.3333339 -5.03232,22.733334 -8.97952,41.516297 -8.77156,41.739917 0.20798,0.223622 16.19516,-4.245062 35.5271,-9.930408 38.93332,-11.449932 44.95293,-12.361468 47.16998,-7.142841 0.97951,2.305612 1.19458,35.252768 0.69756,106.861538 -0.68984,99.38873 -0.82013,103.64036 -3.25856,106.33333 -2.74734,3.03414 -4.02517,3.26091 -8.12668,1.44218 z M 116.84556,209.51683 c -5.18847,3.25691 -12.53815,2.6348 -17.799425,-1.50663 l -3.712802,-2.92248 -0.366361,21.45615 -0.366363,21.45614 H 90.85586 c -2.059612,0 -4.144749,-0.4 -4.633637,-0.8889 -0.48889,-0.48888 -0.929027,-15.03888 -0.978084,-32.33333 -0.0783,-27.60387 -0.297914,-30.77767 -1.798063,-25.98528 -4.56458,14.58204 -11.946759,21.87417 -22.144267,21.87417 -7.651317,0 -13.385237,-4.51283 -18.176362,-14.30553 -3.184226,-6.50832 -3.820232,-9.66972 -4.226994,-21.01108 C 38.4919,164.01452 38.871547,160.7928 41.414349,154 c 3.35933,-8.97406 10.724852,-17.31484 16.590295,-18.78697 10.1289,-2.54219 21.428016,7.32423 25.608797,22.36167 l 2.207028,7.93824 1.786647,-6.98131 c 2.137428,-8.35199 5.772515,-14.54495 11.235803,-19.142 5.730931,-4.82225 15.313191,-4.769 21.120331,0.11733 5.06666,4.26332 10.65573,14.20421 11.5506,21.98808 l 0.87455,7.30802 0.15063,9.41722 c -0.66733,13.73766 -7.63784,26.23987 -15.69347,31.29655 z m 17.78881,-50.24492 c 0.0673,-13.0685 5.8885,-18.36038 13.67364,-22.17273 6.42473,-3.14617 11.07056,-3.26957 17.00171,-0.92547 5.21926,2.06274 7.25838,4.01573 10.00168,9.72777 0.61589,1.28237 1.25332,2.99456 1.85941,4.72151 0.3223,0.91832 0.53192,1.81829 0.76582,2.63395 1.30564,4.55302 2.47606,7.83826 2.46626,13.55658 -0.008,4.84746 -0.43778,9.49746 -0.95437,10.33334 -0.62471,1.01078 -6.71797,1.51976 -18.19392,1.51976 -18.9462,0 -19.29719,0.18257 -15.28128,7.94848 4.00027,7.73566 7.78543,9.38485 21.53979,9.38485 H 180 v 7.2318 7.23181 l -11,0.44647 c -14.12159,0.57319 -19.03711,-0.48173 -23.93456,-5.13657 -4.99408,-4.74668 -9.48277,-9.82891 -9.8971,-25.85197 z m -65.324171,32.95636 c 11.836964,-11.83697 6.620932,-41.5616 -7.293163,-41.5616 -11.248352,0 -18.037968,21.01663 -11.465372,35.49 4.600297,10.13021 12.2303,12.59983 18.758535,6.0716 z M 116.1048,193 c 4.48223,-4.67653 6.56187,-10.876 6.56187,-19.5611 0,-21.43934 -16.09606,-30.75776 -24.365058,-14.10556 C 90.977273,174.08316 97.212597,196 108.73325,196 c 2.92188,0 5.50299,-1.05042 7.37155,-3 z m 53.22853,-32.46666 c 0,-1.46147 -0.63465,-6.43218 -3.298,-9.00877 -2.29817,-2.2233 -6.44049,-3.055 -7.6918,-3.055 -2.51102,0 -7.10054,0.63742 -9.36023,2.35946 -3.11635,2.37488 -3.64997,7.23124 -3.64997,10.43809 0,0.87351 4.5104,1.39955 12,1.39955 10.11111,0 12,-0.3358 12,-2.13333 z M 229.40821,197 l -0.0749,13.66667 h -4.55869 -4.55868 L 219.74037,187 c -0.53713,-26.73034 -1.86821,-31.52048 -9.97162,-35.88444 -4.08072,-2.19762 -4.84332,-2.23741 -8.13576,-0.4245 -1.99815,1.10024 -4.98299,4.67197 -6.63299,7.9372 -2.73179,5.406 -3,7.8091 -3,26.87854 0,11.51798 -0.36419,21.89084 -0.80932,23.05082 -0.48493,1.2637 -2.38597,2.10905 -4.74292,2.10905 h -3.9336 l 0.40959,-27.10153 c 0,0 -0.70526,-18.20365 1.47844,-26.97066 0.71155,-2.8567 2.95552,-7.99266 2.95552,-7.99266 10.74316,-20.98718 31.12028,-18.39393 38.64426,5.26468 l 2.49258,7.31546 0.90317,14.46408 c 0.0772,5.13255 0.0105,21.35396 0.0105,21.35396 z m 11.1028,-13.23885 C 242.31012,190.07207 248.25379,196 252.78235,196 c 2.04185,0 5.10112,-1.30458 6.79838,-2.89908 1.69727,-1.5945 3.08594,-3.56274 3.08594,-4.37388 0,-1.00934 -26.09805,-14.70765 -31.06299,-19.97489 -0.95517,-2.15043 -0.95379,-3.32112 -0.90759,-5.59593 l 0.46586,-7.43064 c 1.20954,-19.29283 19.7649,-27.40662 31.505,-19.39224 5.59521,3.81957 11.73605,14.70412 12.84006,22.75885 l 0.85546,6.24115 h -4.66676 c -4.30287,0 -4.8455,-0.46803 -6.95903,-6.00223 -1.26075,-3.30124 -3.57577,-6.90124 -5.14448,-8 -4.28524,-3.00151 -10.64815,-2.50787 -14.02645,1.08816 -3.85326,4.1016 -3.65698,5.787 0.95148,8.17012 2.11781,1.09516 9.59725,5.57519 16.621,9.9556 l 12.77044,7.9644 0.64054,-4.25469 c 0.35231,-2.34008 0.96883,-7.15907 1.37006,-10.70886 0.9896,-8.75522 4.76224,-16.80512 10.62214,-22.66502 4.41143,-4.41143 5.57191,-4.88082 12.06714,-4.88082 6.26625,0 7.71817,0.53186 11.34038,4.15407 5.54347,5.54347 9.27342,13.14741 11.28391,23.00367 l 1.65655,8.12108 0.85573,-7.22528 c 1.90319,-16.06944 11.85581,-28.49798 22.82084,-28.49798 8.0574,0 13.07845,4.04203 18.37421,14.79154 0,0 2.63794,5.7338 3.38974,8.96099 1.96893,8.45183 1.00342,25.99081 1.00342,25.99081 v 26.03444 h -4 c -3.14156,0 -4.09204,-0.64847 -4.42889,-3.0216 l -0.42891,-3.0216 -3.37302,2.65322 c -7.65536,6.02171 -17.24732,4.70687 -24.3053,-3.33172 -4.60632,-5.2463 -9.41497,-17.44617 -9.58917,-24.32832 -0.0991,-3.91244 -0.51023,-3.01144 -1.96177,4.29858 -2.0128,10.13648 -7.1586,19.61136 -13.01071,23.95642 -5.20741,3.86639 -14.04685,3.75514 -19.45719,-0.2449 l -4.1117,-3.03991 v 19.2642 c 0,10.59531 -0.36419,20.21327 -0.80932,21.37324 -0.47992,1.25067 -2.37926,2.10906 -4.66667,2.10906 h -3.85735 l -0.1052,-32.33334 h -6e-5 l -0.1052,-32.33333 -2.61236,7.4862 c -3.0288,8.67958 -9.98366,17.41978 -15.76802,19.81574 -10.33341,4.28024 -25.99379,-3.20841 -26.6216,-18.97644 l -0.53921,-13.54267 c 6.12869,-1.93229 7.82547,1.77286 8.92933,5.64498 z m 67.19294,9.22071 c 9.08193,-9.66728 9.17122,-28.81423 0.17926,-38.44016 -11.57325,-12.3892 -25.84681,8.66452 -19.90948,29.3668 3.07754,10.73068 13.61903,15.57842 19.73022,9.07336 z m 48,0 c 9.08818,-9.67394 9.22918,-29.58712 0.27292,-38.5434 -4.91183,-4.91183 -9.38579,-4.82435 -14.49352,0.28337 C 329.51977,166.68535 334.62116,196 348.66667,196 c 2.641,0 5.25509,-1.12114 7.03728,-3.0182 z m -95.03728,46.7222 c -5.86667,-2.27105 -11.10748,-4.78353 -11.64626,-5.58329 -1.29172,-1.91744 -1.31016,-19.46002 -0.0204,-19.43369 2.63662,0.0539 4.1728,2.46962 4.56734,7.18254 0.43062,5.14403 0.4797,5.18472 10.43266,8.64936 9.8746,3.43737 10.00519,3.54372 10.41383,8.48103 0.50433,6.09366 0.21392,6.10854 -13.74716,0.70405 z M 0.47932579,169.99259 C -1.0725548,165.94846 1.4281872,141.30135 4.698392,128.40981 10.938584,103.81025 24.842069,83.136571 40.339173,75.414038 c 9.114351,-4.541872 23.326888,-4.778991 33.150304,-0.55307 6.136855,2.640003 6.619347,3.180638 6.247176,7.000001 -0.44054,4.520998 -0.385594,4.512668 -9.069986,1.375277 C 66.464597,81.718174 61.852931,81.242741 55.276755,81.649645 47.32384,82.141734 44.738711,82.965101 38.384481,87.029853 29.663563,92.608557 21.692083,102.56602 16.134397,114.82323 10.346533,127.58809 7.816508,138.81262 6.8564259,155.98519 6.1219748,169.122 5.6671052,171.36732 3.6626344,171.7504 2.3770833,171.99608 0.94459447,171.20507 0.47932579,169.99259 Z M 16.585357,158.67555 c 1.989386,-22.80592 9.411346,-40.80655 21.308456,-51.67984 8.497919,-7.766617 16.164927,-10.456169 25.72194,-9.02314 9.035883,1.354888 11.29143,2.84162 10.79749,7.11711 L 74,108.66667 62.666667,108.24377 c -10.709622,-0.39963 -11.68282,-0.19886 -17.683779,3.64815 -12.083416,7.74627 -20.382761,25.26615 -22.157676,46.77475 -0.763107,9.2474 -1.064716,10.03387 -4.007553,10.44996 l -3.182342,0.44996 z m 13.43012,9.34949 c -1.159924,-1.8768 1.704996,-16.51124 4.908504,-25.07338 2.962078,-7.91686 10.020896,-16.65947 15.909604,-19.70464 4.079574,-2.10963 14.126207,-2.53178 16.995595,-0.71414 1.375707,0.87146 1.513435,2.10594 0.555555,4.97958 -1.17146,3.51439 -1.799476,3.82104 -7.829179,3.82295 -4.77892,0.001 -7.770623,0.86811 -11.038992,3.19767 -5.227779,3.72614 -11.663276,16.31462 -12.972741,25.37598 -1.157618,8.01058 -4.231623,11.83216 -6.528346,8.11598 z"
       id="path297"
       sodipodi:nodetypes="ssscssssssssscsssssssssssssssssssssssccccsssssssssscsscsccssssssscsssscccssssssssssssssssssssscccsssssssccssscccssssccssscsssssscsssssscssscscsscsssssscsssccccssscsscsscsssccsscssssssssssssssssssssscsssscsssssscssss" />
  </g>
</svg>
