<?xml version="1.0" encoding="UTF-8" standalone="no"?>
<!-- Created with Inkscape (http://www.inkscape.org/) -->

<svg
   version="1.1"
   id="svg2"
   width="400"
   height="333.33334"
   viewBox="0 0 400 333.33334"
   sodipodi:docname="imagelogo (2).png"
   xmlns:inkscape="http://www.inkscape.org/namespaces/inkscape"
   xmlns:sodipodi="http://sodipodi.sourceforge.net/DTD/sodipodi-0.dtd"
   xmlns="http://www.w3.org/2000/svg"
   xmlns:svg="http://www.w3.org/2000/svg">
  <defs
     id="defs6" />
  <sodipodi:namedview
     id="namedview4"
     pagecolor="#505050"
     bordercolor="#ffffff"
     borderopacity="1"
     inkscape:showpageshadow="0"
     inkscape:pageopacity="0"
     inkscape:pagecheckerboard="1"
     inkscape:deskcolor="#505050"
     showgrid="false" />
  <g
     inkscape:groupmode="layer"
     inkscape:label="Image"
     id="g8">
    <path
       style="fill:#999999;stroke-width:1.33333"
       d="m 102.97295,263.00001 c 0.35889,-27.55218 0.3728,-27.66843 3.36038,-28.09274 2.05596,-0.29199 3,0.25627 3,1.74227 0,1.97441 0.26503,1.9827 2.96334,0.0927 3.9167,-2.74336 13.66362,-2.64362 18.45865,0.18887 7.49828,4.42935 9.99852,17.67535 5.29292,28.04132 -4.37832,9.64499 -15.70454,13.93512 -23.42848,8.8742 -3.28643,-2.15328 -3.28643,-2.15328 -3.28643,7.3334 0,9.2506 -0.0836,9.48668 -3.36038,9.48668 -3.36039,0 -3.36039,0 -3,-27.66666 z m 21.73097,6.07374 c 4.70539,-2.16168 7.30222,-7.6152 7.26643,-15.34086 -0.0417,-8.99126 -3.33802,-13.00562 -10.6795,-13.00562 -7.84191,0 -11.95752,4.85351 -11.95752,14.10142 0,7.92978 1.4403,11.15089 6.36686,13.75958 3.93424,2.08324 6.1573,1.79314 9.00373,0.48548 z m -56.205792,2.94567 c -5.174788,-2.95567 -9.060609,-8.3015 -9.054553,-17.01418 0.0057,-8.21774 2.948806,-14.36949 8.314842,-17.3391 2.994523,-1.65719 6.504643,-2.98253 11.113972,-2.95152 5.336386,0.0359 7.830788,1.39296 10.524634,3.60314 1.629484,1.33691 3.695138,2.94195 5.089947,5.18912 2.00143,3.2245 2.846363,7.34535 2.846363,10.28747 0,4.85756 -1.548381,9.00254 -4.830812,13.53107 -2.177709,3.00443 -4.0102,3.71787 -6.135998,4.42292 -1.978242,0.65612 -3.745146,1.54582 -7.686232,1.50048 -4.040827,-0.0465 -8.721872,-0.39533 -10.182163,-1.2294 z m 18.271103,-7.91685 c 3.19107,-3.19107 3.897436,-5.02204 3.897436,-10.10256 0,-5.13865 -0.698547,-6.90369 -4.064362,-10.2695 -3.560701,-3.56069 -6.542951,-3.87409 -11.273799,-3.23955 -3.959228,0.53105 -5.551419,2.38681 -7.05951,4.41875 -1.539755,2.07459 -2.953452,4.36268 -2.935663,8.547 0.02816,6.62345 2.269869,10.20335 5.564647,13.14199 2.344683,2.09125 5.206079,2.09341 9.009598,1.49925 3.16543,-0.49449 4.396412,-1.53014 6.861653,-3.99538 z m 62.877849,4.66656 c -2.30921,-2.11624 -3.04627,-3.56984 -3.7112,-5.21924 -0.72381,-1.79546 -1.26921,-3.8694 -1.26921,-8.48003 0,-7.54867 0.54041,-9.82403 3.11198,-13.10246 1.74353,-2.22278 3.58194,-3.40148 5.37462,-4.52756 2.61685,-1.64378 5.37739,-2.69315 9.59728,-2.72592 4.94226,-0.0384 6.73448,0.64078 9.55106,3.61942 3.55428,3.75876 5.84063,13.96191 4.39993,16.29301 -0.44278,0.71642 -5.49018,1.37366 -12.78023,1.37366 -13.14371,0 -13.25464,0.0271 -13.25464,3.23656 0,3.8913 5.61232,8.26588 10.15156,8.26588 1.75798,0 5.42142,-0.40244 8.05409,-1.50244 6.14988,-2.56959 7.12768,-2.51756 7.12768,0.37918 0,3.67403 -6.86699,6.95415 -14.55864,6.95415 -3.01087,0 -4.69637,-0.56167 -6.39522,-1.24328 -1.62977,-0.65389 -3.28784,-1.38614 -5.39906,-3.32093 z m 21.45101,-19.10246 c 1.17859,-2.00167 -1.7682,-7.05873 -4.96081,-8.51339 -4.01005,-1.8271 -9.32207,-0.63516 -12.83787,2.88064 -5.16188,5.16188 -3.5456,6.63275 7.28856,6.63275 5.45672,0 10.18628,-0.45 10.51012,-1 z m 15.56858,4.33334 c 0,-18.44445 0.12253,-19.33334 2.66666,-19.33334 1.52466,0 2.66667,0.88889 2.66667,2.0756 0,1.87859 0.28128,1.87859 2.96335,0 1.65913,-1.16209 5.71469,-2.0756 9.2148,-2.0756 2.94551,0 4.12682,0.60742 5.59843,1.35708 1.19825,0.6104 2.28303,1.52678 3.60734,3.10063 3.27271,3.88941 3.94941,4.5373 3.94941,18.97793 0,14.10006 -0.189,15.23103 -2.5453,15.23103 -2.3125,0 -2.58688,-1.26804 -3,-13.8636 -0.37211,-11.34574 -0.916,-14.37268 -2.99468,-16.66667 -3.53968,-3.90632 -8.29912,-3.50243 -12.89591,1.09437 -3.76508,3.76507 -3.89744,4.33108 -3.89744,16.66667 0,11.88034 -0.18563,12.76923 -2.66667,12.76923 -2.54406,0 -2.66666,-0.88889 -2.66666,-19.33333 z m 37.92709,17.10626 c 0.52835,-1.34178 5.19565,-13.72022 10.37179,-27.50765 11.83505,-31.5245 12.24306,-31.68666 20.79553,-8.26528 3.21337,8.8 6.36276,17.2 6.99864,18.66667 2.1038,4.85246 6.57225,17.31593 6.57295,18.33333 3.6e-4,0.55 -1.383,1 -3.07415,1 -2.53745,0 -3.55253,-1.33985 -5.80824,-7.66667 l -2.73341,-7.66666 -10.58227,-0.3828 -10.58225,-0.38279 -2.74618,7.71612 c -2.36168,6.6358 -3.26609,7.77768 -6.4596,8.15573 -3.13484,0.3711 -3.56376,0.0595 -2.75281,-2 z m 30.17048,-21.59063 c -0.73128,-1.3664 -2.6368,-6.4664 -4.23451,-11.33333 -1.5977,-4.86693 -3.27621,-8.84897 -3.73001,-8.84897 -0.4538,0 -2.18807,4.19958 -3.85391,9.3324 -1.66584,5.13282 -3.37432,10.23282 -3.79662,11.33333 -0.63518,1.65526 0.76217,2.00094 8.0884,2.00094 8.22644,0 8.76168,-0.17667 7.52665,-2.48437 z m 31.90243,-0.84897 V 224 h -7.33334 C 272.88889,224 272,223.67678 272,221.33334 c 0,-2.53498 0.88889,-2.66667 18,-2.66667 17.11111,0 18,0.13173 18,2.66667 0,2.34344 -0.88889,2.66666 -7.33333,2.66666 h -7.33334 v 24.66667 c 0,24.66667 0,24.66667 -3.33333,24.66667 -3.33333,0 -3.33333,0 -3.33333,-24.66667 z m 40.22758,15.71408 c -1.70816,-4.97608 -3.62045,-10.24741 -4.24956,-11.71408 -3.63612,-8.47721 -11.58926,-32.15476 -11.08449,-33 1.31631,-2.2042 5.63191,-0.86265 6.43375,2 0.46217,1.65 1.36868,4.2 2.01445,5.66667 0.64577,1.46666 3.70937,10.31534 6.80801,19.66373 3.09864,9.3484 5.76063,16.8484 5.91552,16.66667 0.15491,-0.18172 3.611,-9.3304 7.6802,-20.3304 4.06922,-11 7.80535,-21.05 8.30254,-22.33334 1.02798,-2.65345 5.95698,-3.20642 5.94248,-0.66666 -0.005,0.91666 -2.07776,7.06666 -4.6056,13.66666 -2.52784,6.6 -6.89902,18.00001 -9.71374,25.33334 -6.61405,17.23192 -8.95873,18.11224 -13.44356,5.04741 z M 203.93647,215.56532 c -19.61834,-3.12959 -43.82352,-11.33937 -59.22496,-23.67246 -12.02022,-9.6255 -27.82142,-26.09698 -26.72965,-27.86351 1.18634,-1.91953 1.38528,-1.83687 6.60153,2.74305 7.67547,6.73916 25.49493,16.79876 38.53089,21.75183 29.21163,11.09905 54.36312,11.63461 83.49001,1.77779 14.72696,-4.98375 35.44976,-16.38744 64.72904,-35.62018 15.4,-10.11582 32.35679,-20.56849 37.68175,-23.22815 16.06983,-8.02638 37.40331,-15.01824 41.26116,-13.52297 1.92995,0.74804 1.01727,1.74291 -4.73789,5.16457 -17.50351,10.40649 -47.78298,30.93641 -65.36743,44.32006 -30.15953,22.95465 -35.86117,26.84859 -49.43348,33.76053 -22.9758,11.70084 -51.91198,16.76458 -66.80097,14.38944 z m 28.04496,-29.96858 C 253.86529,170.65392 263.56745,153.96368 263.13764,132 262.38405,93.491857 226.48868,66.873355 188.61347,76.736003 c -16.04692,4.178595 -28.76818,14.47614 -36.02668,29.162727 -4.8227,9.75805 -8.07754,25.18905 -6.58407,31.21466 0.42443,1.71237 0.37527,4.36233 -0.1092,5.88881 -0.79696,2.51099 -1.05616,2.35856 -2.72053,-1.5998 -4.05812,-9.65142 -1.28718,-30.03838 5.8709,-43.194626 17.42303,-32.022775 55.7249,-43.85048 88.5792,-27.353458 8.07848,4.056417 21.55831,17.640202 26.2612,26.463739 4.82098,9.045105 9.44904,24.317125 9.44904,31.180675 0,3.26981 -0.25554,9.47216 -2.16474,15.72836 -1.89216,6.20032 -5.4288,12.45354 -7.48219,15.95739 -7.86075,13.41336 -24.75677,27.89666 -32.35307,27.73307 -2.42524,-0.0523 -2.36656,-0.26233 0.6481,-2.32081 z m -35.92647,-1.8188 c -11.56035,-1.85747 -17.39579,-9.26672 -17.38085,-22.06844 0.009,-8.53832 1.91516,-15.0538 7.95997,-27.22163 8.37275,-16.85387 25.03111,-39.821201 28.88256,-39.821201 0.97124,0 2.1306,1.65 2.57635,3.666666 4.347,19.666595 8.0895,30.278665 13.9212,39.474305 4.69314,7.40034 10.57465,10.47008 17.81046,9.29587 5.49003,-0.89091 5.56407,-0.74599 2.88944,5.65531 -9.04428,21.646 -33.0841,34.80706 -56.65913,31.01912 z m -39.06293,-30.11127 c -2.42406,-5.26995 -3.42243,-11.71108 -4.35994,-20.89948 0.26427,-6.55868 1.58811,-15.18823 5.56311,-22.78886 6.77627,-12.956955 21.91617,-25.134288 34.67787,-27.892108 6.01444,-1.299731 6.38369,0.750417 1.33594,7.417525 C 173.26729,117.16379 161.35741,142.49319 163.41272,155 c 1.23605,7.52155 -2.72609,6.69876 -6.42069,-1.33333 z M 24.721529,137.42211 c -0.478772,-0.77467 1.895428,-3.04424 5.312156,-5.07807 14.011956,-8.34066 48.964411,-32.07308 63.076231,-42.828217 40.099964,-30.561654 54.788754,-39.320605 76.223414,-45.452155 5.5,-1.573319 12.1,-3.473123 14.66667,-4.22179 2.56667,-0.748667 11.86667,-1.137561 20.66667,-0.864208 23.20685,0.720869 37.32,5.401792 58.52845,19.412202 9.08657,6.002641 34.13821,29.685751 34.13821,32.273304 0,2.515982 -2.5132,1.330677 -12.74762,-6.012186 C 249.37313,59.387125 208.32596,52.254696 170.66667,64.856217 150.45505,71.619409 136.90535,78.967338 102,102.09374 c -26.830308,17.77632 -38.264423,24.03842 -55.333333,30.30433 -15.4107,5.65719 -20.792371,6.88925 -21.945138,5.02404 z M 247.5352,133.3812 c -10.74797,-11.89671 -21.73975,-44.047865 -15.05901,-44.047865 3.12256,0 15.34998,13.378925 18.94736,20.731695 1.89345,3.87007 4.10181,10.88474 4.90748,15.58815 2.41081,14.07426 -0.64042,16.75509 -8.79583,7.72802 z"
       id="path853"
       sodipodi:nodetypes="sssssscssssssssssssssssssssssssssssssssssssssssssssssssssssssssssssssssssssssssscccssssssssssscssssscsssssssssssscssssssssssssssssssssssssssssscsscsssssssscsssssscssssssssssssssss" />
  </g>
</svg>
