<?xml version="1.0" encoding="UTF-8" standalone="no"?>
<!-- Created with Inkscape (http://www.inkscape.org/) -->

<svg
   version="1.1"
   id="svg2"
   width="600"
   height="230"
   viewBox="0 0 600 230"
   xmlns="http://www.w3.org/2000/svg"
   xmlns:svg="http://www.w3.org/2000/svg">
  <defs
     id="defs6" />
  <g
     id="g8">
    <path
       style="fill:#b3b3b3"
       d="M 109.21072,175.75 109.5,131.5 l 3.66324,-7.6711 c 6.40391,-13.41027 19.53487,-23.855114 33.84937,-26.925024 7.74424,-1.660842 22.23917,-0.64555 28.89775,2.024131 12.18823,4.886733 21.74191,13.894243 27.3957,25.829513 3.06417,6.46853 3.19394,7.25247 3.19394,19.29434 0,12.45251 -0.0292,12.61082 -3.68666,20 -13.45957,27.19227 -48.18171,36.05305 -71.50749,18.24808 L 127,179.01321 l -0.004,7.7434 c -0.002,4.25886 -0.29667,13.48089 -0.65432,20.49339 L 125.69142,220 h -8.38496 -8.38496 l 0.28928,-44.25 z m 61.63241,-4.79224 c 18.94197,-8.35244 24.20106,-32.21348 10.32011,-46.82339 -7.38909,-7.77712 -11.84105,-9.62831 -23.16324,-9.63161 -8.66402,-0.003 -9.97127,0.25827 -14.85541,2.96354 -24.80736,13.74051 -20.04546,48.56389 7.58988,55.50417 5.31509,1.33482 14.63182,0.40229 20.10866,-2.01271 z M 44.655038,190.90216 C 31.635112,188.99993 16.191033,178.1163 9.7695633,166.31794 4.4501528,156.54443 2.7815443,144.88449 5.1159373,133.79922 8.6176642,117.17066 23.415856,101.93175 40.5,97.361353 c 6.418546,-1.717109 19.581454,-1.717109 26,0 25.726295,6.882377 41.48712,33.071617 34.96709,58.103687 -4.758344,18.26852 -21.192263,32.87006 -39.96709,35.51078 -7.914591,1.1132 -8.746299,1.10956 -16.844962,-0.0737 z m 21.810498,-19.78389 c 5.955888,-2.63457 12.20607,-8.56601 15.336952,-14.55481 3.492118,-6.67978 3.746821,-17.71414 0.566992,-24.56346 -2.603833,-5.60863 -9.362773,-12.32853 -15.329331,-15.2408 -6.219373,-3.03566 -17.066491,-3.57474 -24.214535,-1.20342 -7.910872,2.62439 -17.076791,12.06055 -19.366752,19.93773 -4.775635,16.42761 5.88971,33.92691 22.867538,37.52019 5.800032,1.22755 15.046441,0.35731 20.139136,-1.89543 z M 251,190.95993 c -16.28479,-2.50995 -30.33782,-12.95307 -37.27705,-27.7014 -2.81175,-5.97597 -3.22281,-7.97431 -3.5501,-17.25853 -0.41,-11.63063 1.39667,-19.18776 6.53343,-27.32871 6.60705,-10.47111 19.1737,-19.258771 31.07424,-21.729722 8.15615,-1.693488 22.40143,-0.711129 29.1986,2.013543 10.80669,4.331899 20.79683,13.036759 25.90972,22.576299 l 2.08923,3.89805 -4.8764,3.03527 c -52.45736,32.65161 -60.84381,38.12918 -59.98001,39.17567 0.51772,0.62722 3.28964,2.1754 6.15983,3.44039 7.27171,3.20492 18.16879,3.20334 25.44556,-0.004 9.10262,-4.0117 16.80953,-14.36861 17.96746,-24.14551 L 290.27858,142 h 9.37976 c 9.19563,0 9.37081,0.0442 8.92369,2.25 -0.25085,1.2375 -0.71399,4.15784 -1.02922,6.48965 -2.2175,16.40347 -16.42934,33.38841 -31.8983,38.12249 -7.72536,2.36424 -17.51909,3.19757 -24.65451,2.09779 z M 254.03762,136.75 c 13.1783,-8.3875 23.82826,-15.7 23.66656,-16.25 -0.16169,-0.55 -2.52377,-2.125 -5.24908,-3.5 -4.20251,-2.12029 -6.32204,-2.49739 -13.9551,-2.48284 -7.37461,0.0141 -9.76252,0.42152 -13.2222,2.25614 -6.67866,3.54161 -10.94519,7.87348 -14.23097,14.4489 -2.48232,4.96755 -3.04683,7.33372 -3.04683,12.77086 0,5.9028 0.44811,8.00694 1.7052,8.00694 0.20453,0 11.15412,-6.8625 24.33242,-15.25 z M 314,161.2101 c 0,-36.21131 0.89346,-40.42649 10.92559,-51.54471 8.63492,-9.56976 19.79411,-14.095893 33.20124,-13.466317 7.15002,0.335753 9.71785,0.942603 15,3.544926 7.72288,3.804771 17.02298,12.807551 20.39716,19.745071 3.66069,7.5266 4.34817,15.71239 3.73175,44.43399 l -0.56123,26.15035 -8.59725,-0.2867 L 379.5,189.5 379,159.5 c -0.55735,-33.4409 -0.4895,-33.09575 -7.80455,-39.70446 -5.0211,-4.53626 -9.91796,-6.12833 -17.22399,-5.59986 -7.67799,0.55538 -14.34504,4.62167 -18.44502,11.24978 L 332.5,130.33805 332.20793,160.16903 331.91586,190 H 322.95793 314 Z m 115.53022,27.06973 c -0.38865,-0.97891 -8.11635,-21.77479 -17.17266,-46.21307 C 403.30125,117.62848 395.66439,97.265982 395.38675,96.816763 395.10912,96.367543 399.30771,96 404.71695,96 h 9.83499 l 13.46175,36.5 c 7.40396,20.075 13.69929,36.5 13.98963,36.5 0.29033,0 6.59586,-16.41807 14.01228,-36.4846 L 469.5,96.030799 479.23596,96.0154 488.97193,96 l -1.95803,5.25 c -1.07692,2.8875 -8.90606,23.925 -17.39809,46.75 l -15.44005,41.5 -11.96944,0.27983 c -10.69819,0.25011 -12.0445,0.0908 -12.6761,-1.5 z M 490,143 V 96 h 9 9 v 47 47 h -9 -9 z m 23,46.51419 c 0,-0.26719 6.75,-10.63841 15,-23.04714 8.25,-12.40873 15,-22.99851 15,-23.53285 0,-0.53433 -5.7617,-9.62561 -12.80378,-20.20285 C 523.15414,112.15411 516.36744,101.8125 515.11466,99.75 l -2.27778,-3.75 10.83156,0.02121 10.83156,0.02121 9.89375,14.97879 C 549.83532,119.25954 554.38313,126 554.5,126 c 0.11687,0 4.66468,-6.74046 10.10625,-14.97879 L 574.5,96.04242 585.30902,96.02121 c 8.39141,-0.01647 10.63843,0.258372 10.04634,1.22879 -0.41946,0.6875 -7.19602,11.04206 -15.05901,23.01012 C 572.43336,132.22819 566,142.46232 566,143.00263 c 0,0.5403 5.7525,9.64825 12.78333,20.23987 7.03083,10.59163 13.81754,20.945 15.08156,23.0075 l 2.29823,3.75 H 585.59756 575.032 L 565,175 c -5.5176,-8.25 -10.2426,-15 -10.5,-15 -0.2574,0 -4.9824,6.75 -10.5,15 l -10.032,15 H 523.484 C 517.7178,190 513,189.78139 513,189.51419 Z M 483.51638,83.25 c 0.4017,-0.9625 2.14116,-5.883919 3.86546,-10.936487 l 3.1351,-9.186487 2.49153,1.890227 c 1.37034,1.039624 4.98883,2.68456 8.04109,3.655412 5.4676,1.739117 5.58943,1.862496 8.25,8.354254 C 510.7848,80.650906 512,83.92739 512,84.307993 512,84.688597 505.42686,85 497.39301,85 483.87003,85 482.84022,84.87013 483.51638,83.25 Z M 490.94997,76 c 2.87483,-5.610484 3.28621,-7.69539 1.64287,-8.326001 -1.32942,-0.510146 -3.33329,4.0316 -6.3208,14.326001 -0.65154,2.2451 2.5711,-1.888317 4.67793,-6 z M 504.77595,65.580056 C 489.52716,61.191409 479.23034,48.269688 478.20101,32.230536 l -0.47354,-7.378855 14.71013,7.700292 c 8.31433,4.352288 15.07935,7.319359 15.55932,6.82416 0.46705,-0.481873 0.99631,-2.226133 1.17613,-3.876133 0.23593,-2.164808 0.91791,-3.084319 2.44967,-3.302872 1.21497,-0.173352 2.37755,0.361196 2.71862,1.25 C 515.03272,35.248834 514.1788,38 512.92819,38 c -0.4718,0 -1.32534,0.873566 -1.89675,1.941259 -0.94311,1.762213 0.30428,2.648114 13.5246,9.605192 16.66062,8.767503 16.68327,8.829158 5.14639,14.006603 -7.33528,3.291879 -17.62435,4.128577 -24.92648,2.027002 z m -15.726,-18.431791 C 487.92248,43.801419 487,39.485451 487,37.557226 487,34.673233 486.46786,33.776179 484,32.5 l -3,-1.55136 0.01,3.27568 c 0.005,1.801624 1.09753,5.611986 2.42703,8.46747 2.49813,5.365505 6.64038,11.564364 7.29211,10.912631 0.20404,-0.20404 -0.55149,-3.10931 -1.67896,-6.456156 z m 33.11916,-17.586212 c -2.68975,-4.558794 -7.38312,-6.930814 -12.38589,-6.259803 -2.69793,0.361869 -3.77434,0.16555 -3.50995,-0.64016 0.53856,-1.641261 7.43268,-2.026531 10.85998,-0.606898 3.30752,1.37002 8.86675,7.313496 8.86675,9.479604 0,2.500834 -1.71139,1.619543 -3.83089,-1.972743 z m 6.89506,-2.436262 c -3.99369,-7.828285 -11.60492,-11.842338 -20.2742,-10.692318 -3.85948,0.511979 -4.89138,0.368078 -4.5598,-0.635871 0.68398,-2.070938 12.00891,-2.23402 15.97925,-0.230105 4.58614,2.314724 8.63555,6.275008 10.88216,10.642665 C 533.27231,30.449718 533.37901,31 532.02032,31 c -0.53882,0 -1.86909,-1.743394 -2.95615,-3.874209 z m 7.91896,-1.166519 C 531.99949,13.927699 518.89509,6.4463059 507.34008,9.0358398 c -3.11565,0.6982308 -4.99229,0.7119493 -5.66284,0.041396 -1.57494,-1.5749322 3.63945,-3.0785209 10.63786,-3.0674671 7.59199,0.011991 14.57735,3.0477283 19.83661,8.6206993 C 535.88013,18.581292 540,25.460465 540,27.735191 c 0,2.325374 -1.74308,1.29929 -3.01687,-1.775919 z"
       id="path293" />
  </g>
</svg>
